<svg xmlns="http://www.w3.org/2000/svg" xmlns:xlink="http://www.w3.org/1999/xlink" width="885" zoomAndPan="magnify" viewBox="0 0 663.75 239.999995" height="320" preserveAspectRatio="xMidYMid meet" version="1.0"><defs><g/><clipPath id="25621a76d5"><path d="M 338 0.046875 L 342 0.046875 L 342 239.953125 L 338 239.953125 Z M 338 0.046875 " clip-rule="nonzero"/></clipPath></defs><g fill="#ffffff" fill-opacity="1"><g transform="translate(23.990963, 68.269479)"><g/></g></g><g fill="#ffffff" fill-opacity="1"><g transform="translate(34.604152, 68.269479)"><g><path d="M 1.6875 0 L 1.6875 -5.25 L 9.4375 -5.25 L 9.4375 -25.234375 L 8.9375 -25.375 C 7.84375 -24.84375 6.765625 -24.421875 5.703125 -24.109375 C 4.640625 -23.804688 3.425781 -23.566406 2.0625 -23.390625 L 2.0625 -28.8125 C 5.625 -29.5625 8.503906 -30.660156 10.703125 -32.109375 L 15.734375 -32.109375 L 15.734375 -5.25 L 22.640625 -5.25 L 22.640625 0 Z M 1.6875 0 "/></g></g><g transform="translate(58.303721, 68.269479)"><g><path d="M 13.09375 0.46875 C 9.644531 0.46875 6.910156 -0.257812 4.890625 -1.71875 C 2.867188 -3.175781 1.585938 -5.238281 1.046875 -7.90625 L 5.859375 -10.140625 L 6.375 -10.0625 C 6.914062 -8.289062 7.6875 -7 8.6875 -6.1875 C 9.6875 -5.375 11.082031 -4.96875 12.875 -4.96875 C 14.601562 -4.96875 15.921875 -5.367188 16.828125 -6.171875 C 17.734375 -6.972656 18.1875 -8.144531 18.1875 -9.6875 C 18.1875 -11.195312 17.734375 -12.351562 16.828125 -13.15625 C 15.929688 -13.957031 14.613281 -14.359375 12.875 -14.359375 L 8.046875 -14.359375 L 8.046875 -19.3125 L 12.25 -19.3125 C 13.6875 -19.3125 14.828125 -19.664062 15.671875 -20.375 C 16.523438 -21.09375 16.953125 -22.117188 16.953125 -23.453125 C 16.953125 -24.773438 16.550781 -25.769531 15.75 -26.4375 C 14.957031 -27.101562 13.859375 -27.4375 12.453125 -27.4375 C 11.015625 -27.4375 9.742188 -27.097656 8.640625 -26.421875 C 7.535156 -25.742188 6.644531 -24.835938 5.96875 -23.703125 L 5.46875 -23.609375 L 2.125 -27.5 C 3.257812 -29.019531 4.710938 -30.242188 6.484375 -31.171875 C 8.253906 -32.109375 10.363281 -32.578125 12.8125 -32.578125 C 16.175781 -32.578125 18.742188 -31.875 20.515625 -30.46875 C 22.285156 -29.0625 23.171875 -27.082031 23.171875 -24.53125 C 23.171875 -23 22.8125 -21.6875 22.09375 -20.59375 C 21.375 -19.5 20.34375 -18.554688 19 -17.765625 L 19 -17.3125 C 22.707031 -16.007812 24.5625 -13.375 24.5625 -9.40625 C 24.5625 -7.40625 24.132812 -5.664062 23.28125 -4.1875 C 22.4375 -2.71875 21.15625 -1.570312 19.4375 -0.75 C 17.726562 0.0625 15.613281 0.46875 13.09375 0.46875 Z M 13.09375 0.46875 "/></g></g></g><g fill="#ffffff" fill-opacity="1"><g transform="translate(31.722425, 103.506205)"><g><path d="M 4.671875 -14.265625 L 4.671875 -2.359375 L 11.078125 -2.359375 L 11.078125 0 L 1.859375 0 L 1.859375 -14.265625 Z M 4.671875 -14.265625 "/></g></g></g><g fill="#ffffff" fill-opacity="1"><g transform="translate(43.276057, 103.506205)"><g><path d="M 7.78125 0.203125 C 6.46875 0.203125 5.3125 -0.0625 4.3125 -0.59375 C 3.3125 -1.125 2.53125 -1.9375 1.96875 -3.03125 C 1.40625 -4.132812 1.125 -5.503906 1.125 -7.140625 C 1.125 -8.765625 1.40625 -10.125 1.96875 -11.21875 C 2.53125 -12.320312 3.3125 -13.140625 4.3125 -13.671875 C 5.3125 -14.203125 6.46875 -14.46875 7.78125 -14.46875 C 9.082031 -14.46875 10.226562 -14.203125 11.21875 -13.671875 C 12.21875 -13.140625 13 -12.320312 13.5625 -11.21875 C 14.125 -10.125 14.40625 -8.765625 14.40625 -7.140625 C 14.40625 -5.503906 14.125 -4.132812 13.5625 -3.03125 C 13 -1.9375 12.21875 -1.125 11.21875 -0.59375 C 10.226562 -0.0625 9.082031 0.203125 7.78125 0.203125 Z M 7.78125 -2.25 C 8.988281 -2.25 9.910156 -2.632812 10.546875 -3.40625 C 11.179688 -4.1875 11.5 -5.429688 11.5 -7.140625 C 11.5 -8.835938 11.179688 -10.078125 10.546875 -10.859375 C 9.910156 -11.640625 8.988281 -12.03125 7.78125 -12.03125 C 6.5625 -12.03125 5.628906 -11.640625 4.984375 -10.859375 C 4.347656 -10.078125 4.03125 -8.835938 4.03125 -7.140625 C 4.03125 -5.429688 4.347656 -4.1875 4.984375 -3.40625 C 5.628906 -2.632812 6.5625 -2.25 7.78125 -2.25 Z M 7.78125 -2.25 "/></g></g></g><g fill="#ffffff" fill-opacity="1"><g transform="translate(58.820765, 103.506205)"><g><path d="M 7.796875 0.203125 C 6.484375 0.203125 5.320312 -0.0664062 4.3125 -0.609375 C 3.3125 -1.160156 2.53125 -1.984375 1.96875 -3.078125 C 1.40625 -4.171875 1.125 -5.523438 1.125 -7.140625 C 1.125 -8.742188 1.40625 -10.09375 1.96875 -11.1875 C 2.53125 -12.28125 3.3125 -13.097656 4.3125 -13.640625 C 5.320312 -14.191406 6.484375 -14.46875 7.796875 -14.46875 C 9.171875 -14.46875 10.335938 -14.195312 11.296875 -13.65625 C 12.253906 -13.125 12.9375 -12.3125 13.34375 -11.21875 L 11.296875 -9.953125 L 11.046875 -9.96875 C 10.742188 -10.707031 10.328125 -11.238281 9.796875 -11.5625 C 9.273438 -11.882812 8.609375 -12.046875 7.796875 -12.046875 C 6.609375 -12.046875 5.679688 -11.648438 5.015625 -10.859375 C 4.359375 -10.078125 4.03125 -8.835938 4.03125 -7.140625 C 4.03125 -5.441406 4.359375 -4.195312 5.015625 -3.40625 C 5.679688 -2.625 6.609375 -2.234375 7.796875 -2.234375 C 9.648438 -2.234375 10.785156 -3.132812 11.203125 -4.9375 L 11.453125 -4.9375 L 13.53125 -3.859375 C 13.132812 -2.503906 12.460938 -1.488281 11.515625 -0.8125 C 10.578125 -0.132812 9.335938 0.203125 7.796875 0.203125 Z M 7.796875 0.203125 "/></g></g></g><g fill="#ffffff" fill-opacity="1"><g transform="translate(72.81393, 103.506205)"><g><path d="M 13.6875 0 L 10.71875 0 L 9.65625 -3.28125 L 4.1875 -3.28125 L 3.109375 0 L 0.21875 0 L 5.140625 -14.265625 L 8.765625 -14.265625 Z M 6.78125 -11.296875 L 4.953125 -5.65625 L 8.875 -5.65625 L 7.03125 -11.296875 Z M 6.78125 -11.296875 "/></g></g></g><g fill="#ffffff" fill-opacity="1"><g transform="translate(86.719272, 103.506205)"><g><path d="M 11.4375 -14.265625 L 11.4375 -11.890625 L 7.3125 -11.890625 L 7.3125 0 L 4.515625 0 L 4.515625 -11.890625 L 0.390625 -11.890625 L 0.390625 -14.265625 Z M 11.4375 -14.265625 "/></g></g></g><g fill="#ffffff" fill-opacity="1"><g transform="translate(98.546131, 103.506205)"><g><path d="M 4.671875 0 L 1.859375 0 L 1.859375 -14.265625 L 4.671875 -14.265625 Z M 4.671875 0 "/></g></g></g><g fill="#ffffff" fill-opacity="1"><g transform="translate(105.084081, 103.506205)"><g><path d="M 7.78125 0.203125 C 6.46875 0.203125 5.3125 -0.0625 4.3125 -0.59375 C 3.3125 -1.125 2.53125 -1.9375 1.96875 -3.03125 C 1.40625 -4.132812 1.125 -5.503906 1.125 -7.140625 C 1.125 -8.765625 1.40625 -10.125 1.96875 -11.21875 C 2.53125 -12.320312 3.3125 -13.140625 4.3125 -13.671875 C 5.3125 -14.203125 6.46875 -14.46875 7.78125 -14.46875 C 9.082031 -14.46875 10.226562 -14.203125 11.21875 -13.671875 C 12.21875 -13.140625 13 -12.320312 13.5625 -11.21875 C 14.125 -10.125 14.40625 -8.765625 14.40625 -7.140625 C 14.40625 -5.503906 14.125 -4.132812 13.5625 -3.03125 C 13 -1.9375 12.21875 -1.125 11.21875 -0.59375 C 10.226562 -0.0625 9.082031 0.203125 7.78125 0.203125 Z M 7.78125 -2.25 C 8.988281 -2.25 9.910156 -2.632812 10.546875 -3.40625 C 11.179688 -4.1875 11.5 -5.429688 11.5 -7.140625 C 11.5 -8.835938 11.179688 -10.078125 10.546875 -10.859375 C 9.910156 -11.640625 8.988281 -12.03125 7.78125 -12.03125 C 6.5625 -12.03125 5.628906 -11.640625 4.984375 -10.859375 C 4.347656 -10.078125 4.03125 -8.835938 4.03125 -7.140625 C 4.03125 -5.429688 4.347656 -4.1875 4.984375 -3.40625 C 5.628906 -2.632812 6.5625 -2.25 7.78125 -2.25 Z M 7.78125 -2.25 "/></g></g></g><g fill="#ffffff" fill-opacity="1"><g transform="translate(120.628789, 103.506205)"><g><path d="M 4.59375 0 L 1.859375 0 L 1.859375 -14.265625 L 5.078125 -14.265625 L 10.8125 -5.078125 L 11.0625 -5.109375 L 11.0625 -14.265625 L 13.78125 -14.265625 L 13.78125 0 L 10.890625 0 L 4.828125 -9.8125 L 4.59375 -9.78125 Z M 4.59375 0 "/></g></g></g><g fill="#ffffff" fill-opacity="1"><g transform="translate(136.271079, 103.506205)"><g><path d="M 6.328125 0.203125 C 5.335938 0.203125 4.457031 0.0820312 3.6875 -0.15625 C 2.914062 -0.40625 2.269531 -0.726562 1.75 -1.125 C 1.238281 -1.519531 0.847656 -1.957031 0.578125 -2.4375 L 2.125 -4.328125 L 2.375 -4.328125 C 2.800781 -3.679688 3.34375 -3.171875 4 -2.796875 C 4.664062 -2.421875 5.441406 -2.234375 6.328125 -2.234375 C 7.078125 -2.234375 7.644531 -2.390625 8.03125 -2.703125 C 8.414062 -3.023438 8.609375 -3.46875 8.609375 -4.03125 C 8.609375 -4.363281 8.546875 -4.644531 8.421875 -4.875 C 8.296875 -5.101562 8.085938 -5.296875 7.796875 -5.453125 C 7.515625 -5.617188 7.128906 -5.765625 6.640625 -5.890625 L 4.8125 -6.296875 C 3.53125 -6.597656 2.570312 -7.085938 1.9375 -7.765625 C 1.3125 -8.441406 1 -9.320312 1 -10.40625 C 1 -11.21875 1.203125 -11.925781 1.609375 -12.53125 C 2.015625 -13.144531 2.601562 -13.617188 3.375 -13.953125 C 4.144531 -14.296875 5.066406 -14.46875 6.140625 -14.46875 C 7.234375 -14.46875 8.171875 -14.320312 8.953125 -14.03125 C 9.742188 -13.75 10.410156 -13.304688 10.953125 -12.703125 L 9.546875 -10.796875 L 9.3125 -10.796875 C 8.90625 -11.210938 8.441406 -11.523438 7.921875 -11.734375 C 7.398438 -11.953125 6.804688 -12.0625 6.140625 -12.0625 C 5.367188 -12.0625 4.78125 -11.921875 4.375 -11.640625 C 3.96875 -11.367188 3.765625 -10.992188 3.765625 -10.515625 C 3.765625 -10.066406 3.90625 -9.707031 4.1875 -9.4375 C 4.46875 -9.175781 4.957031 -8.972656 5.65625 -8.828125 L 7.53125 -8.4375 C 8.914062 -8.132812 9.921875 -7.632812 10.546875 -6.9375 C 11.171875 -6.238281 11.484375 -5.328125 11.484375 -4.203125 C 11.484375 -3.316406 11.289062 -2.539062 10.90625 -1.875 C 10.519531 -1.21875 9.941406 -0.707031 9.171875 -0.34375 C 8.398438 0.0195312 7.453125 0.203125 6.328125 0.203125 Z M 6.328125 0.203125 "/></g></g></g><g fill="#ffffff" fill-opacity="1"><g transform="translate(23.990963, 175.978914)"><g/></g></g><g fill="#ffffff" fill-opacity="1"><g transform="translate(34.604152, 175.978914)"><g><path d="M 13.375 0.46875 C 10.164062 0.46875 7.617188 -0.203125 5.734375 -1.546875 C 3.859375 -2.898438 2.632812 -4.785156 2.0625 -7.203125 L 6.875 -9.328125 L 7.375 -9.25 C 7.84375 -7.820312 8.539062 -6.75 9.46875 -6.03125 C 10.40625 -5.320312 11.6875 -4.96875 13.3125 -4.96875 C 14.976562 -4.96875 16.265625 -5.441406 17.171875 -6.390625 C 18.078125 -7.335938 18.53125 -8.757812 18.53125 -10.65625 C 18.53125 -12.53125 18.082031 -13.945312 17.1875 -14.90625 C 16.289062 -15.875 15.066406 -16.359375 13.515625 -16.359375 C 12.328125 -16.359375 11.328125 -16.101562 10.515625 -15.59375 C 9.710938 -15.082031 9.039062 -14.320312 8.5 -13.3125 L 3.25 -13.6875 L 3.90625 -32.109375 L 23.015625 -32.109375 L 23.015625 -26.78125 L 9.25 -26.78125 L 8.9375 -18.578125 L 9.40625 -18.5 C 10.144531 -19.476562 11.035156 -20.21875 12.078125 -20.71875 C 13.117188 -21.226562 14.375 -21.484375 15.84375 -21.484375 C 17.664062 -21.484375 19.257812 -21.078125 20.625 -20.265625 C 22 -19.453125 23.0625 -18.242188 23.8125 -16.640625 C 24.5625 -15.035156 24.9375 -13.078125 24.9375 -10.765625 C 24.9375 -8.398438 24.484375 -6.378906 23.578125 -4.703125 C 22.679688 -3.035156 21.367188 -1.753906 19.640625 -0.859375 C 17.910156 0.0234375 15.820312 0.46875 13.375 0.46875 Z M 13.375 0.46875 "/></g></g></g><g fill="#ffffff" fill-opacity="1"><g transform="translate(35.213298, 211.215641)"><g><path d="M 13.6875 0 L 10.71875 0 L 9.65625 -3.28125 L 4.1875 -3.28125 L 3.109375 0 L 0.21875 0 L 5.140625 -14.265625 L 8.765625 -14.265625 Z M 6.78125 -11.296875 L 4.953125 -5.65625 L 8.875 -5.65625 L 7.03125 -11.296875 Z M 6.78125 -11.296875 "/></g></g></g><g fill="#ffffff" fill-opacity="1"><g transform="translate(49.11864, 211.215641)"><g><path d="M 4.59375 0 L 1.859375 0 L 1.859375 -14.265625 L 5.078125 -14.265625 L 10.8125 -5.078125 L 11.0625 -5.109375 L 11.0625 -14.265625 L 13.78125 -14.265625 L 13.78125 0 L 10.890625 0 L 4.828125 -9.8125 L 4.59375 -9.78125 Z M 4.59375 0 "/></g></g></g><g fill="#ffffff" fill-opacity="1"><g transform="translate(64.76093, 211.215641)"><g><path d="M 4.59375 0 L 1.859375 0 L 1.859375 -14.265625 L 5.078125 -14.265625 L 10.8125 -5.078125 L 11.0625 -5.109375 L 11.0625 -14.265625 L 13.78125 -14.265625 L 13.78125 0 L 10.890625 0 L 4.828125 -9.8125 L 4.59375 -9.78125 Z M 4.59375 0 "/></g></g></g><g fill="#ffffff" fill-opacity="1"><g transform="translate(80.40322, 211.215641)"><g><path d="M 7.5625 0.203125 C 5.59375 0.203125 4.132812 -0.257812 3.1875 -1.1875 C 2.238281 -2.125 1.765625 -3.507812 1.765625 -5.34375 L 1.765625 -14.265625 L 4.53125 -14.265625 L 4.53125 -5.359375 C 4.53125 -4.328125 4.78125 -3.550781 5.28125 -3.03125 C 5.78125 -2.507812 6.539062 -2.25 7.5625 -2.25 C 9.582031 -2.25 10.59375 -3.285156 10.59375 -5.359375 L 10.59375 -14.265625 L 13.359375 -14.265625 L 13.359375 -5.34375 C 13.359375 -3.507812 12.882812 -2.125 11.9375 -1.1875 C 10.988281 -0.257812 9.53125 0.203125 7.5625 0.203125 Z M 7.5625 0.203125 "/></g></g></g><g fill="#ffffff" fill-opacity="1"><g transform="translate(95.528328, 211.215641)"><g><path d="M 13.6875 0 L 10.71875 0 L 9.65625 -3.28125 L 4.1875 -3.28125 L 3.109375 0 L 0.21875 0 L 5.140625 -14.265625 L 8.765625 -14.265625 Z M 6.78125 -11.296875 L 4.953125 -5.65625 L 8.875 -5.65625 L 7.03125 -11.296875 Z M 6.78125 -11.296875 "/></g></g></g><g fill="#ffffff" fill-opacity="1"><g transform="translate(109.43367, 211.215641)"><g><path d="M 4.671875 -14.265625 L 4.671875 -2.359375 L 11.078125 -2.359375 L 11.078125 0 L 1.859375 0 L 1.859375 -14.265625 Z M 4.671875 -14.265625 "/></g></g></g><g fill="#ffffff" fill-opacity="1"><g transform="translate(120.987302, 211.215641)"><g/></g></g><g fill="#ffffff" fill-opacity="1"><g transform="translate(125.700481, 211.215641)"><g><path d="M 1.859375 0 L 1.859375 -14.265625 L 7.9375 -14.265625 C 8.820312 -14.265625 9.566406 -14.125 10.171875 -13.84375 C 10.773438 -13.570312 11.234375 -13.179688 11.546875 -12.671875 C 11.859375 -12.160156 12.015625 -11.554688 12.015625 -10.859375 C 12.015625 -10.234375 11.863281 -9.675781 11.5625 -9.1875 C 11.257812 -8.707031 10.820312 -8.320312 10.25 -8.03125 L 10.25 -7.828125 C 11.144531 -7.585938 11.835938 -7.160156 12.328125 -6.546875 C 12.816406 -5.929688 13.0625 -5.175781 13.0625 -4.28125 C 13.0625 -2.90625 12.648438 -1.847656 11.828125 -1.109375 C 11.003906 -0.367188 9.78125 0 8.15625 0 Z M 7.359375 -8.578125 C 8.671875 -8.578125 9.328125 -9.171875 9.328125 -10.359375 C 9.328125 -10.960938 9.164062 -11.410156 8.84375 -11.703125 C 8.519531 -12.003906 8.023438 -12.15625 7.359375 -12.15625 L 4.671875 -12.15625 L 4.671875 -8.578125 Z M 7.875 -2.234375 C 9.425781 -2.234375 10.203125 -2.941406 10.203125 -4.359375 C 10.203125 -5.773438 9.425781 -6.484375 7.875 -6.484375 L 4.671875 -6.484375 L 4.671875 -2.234375 Z M 7.875 -2.234375 "/></g></g></g><g fill="#ffffff" fill-opacity="1"><g transform="translate(139.654613, 211.215641)"><g><path d="M 11.0625 -8.90625 L 11.0625 -14.265625 L 13.875 -14.265625 L 13.875 0 L 11.0625 0 L 11.0625 -6.5 L 4.671875 -6.5 L 4.671875 0 L 1.859375 0 L 1.859375 -14.265625 L 4.671875 -14.265625 L 4.671875 -8.90625 Z M 11.0625 -8.90625 "/></g></g></g><g fill="#ffffff" fill-opacity="1"><g transform="translate(155.394484, 211.215641)"><g><path d="M 13.6875 0 L 10.71875 0 L 9.65625 -3.28125 L 4.1875 -3.28125 L 3.109375 0 L 0.21875 0 L 5.140625 -14.265625 L 8.765625 -14.265625 Z M 6.78125 -11.296875 L 4.953125 -5.65625 L 8.875 -5.65625 L 7.03125 -11.296875 Z M 6.78125 -11.296875 "/></g></g></g><g fill="#ffffff" fill-opacity="1"><g transform="translate(169.299826, 211.215641)"><g><path d="M 4.59375 0 L 1.859375 0 L 1.859375 -14.265625 L 5.078125 -14.265625 L 10.8125 -5.078125 L 11.0625 -5.109375 L 11.0625 -14.265625 L 13.78125 -14.265625 L 13.78125 0 L 10.890625 0 L 4.828125 -9.8125 L 4.59375 -9.78125 Z M 4.59375 0 "/></g></g></g><g fill="#ffffff" fill-opacity="1"><g transform="translate(184.942116, 211.215641)"><g><path d="M 6.921875 0.203125 C 5.734375 0.203125 4.703125 -0.0664062 3.828125 -0.609375 C 2.960938 -1.148438 2.296875 -1.96875 1.828125 -3.0625 C 1.359375 -4.164062 1.125 -5.523438 1.125 -7.140625 C 1.125 -8.765625 1.40625 -10.125 1.96875 -11.21875 C 2.53125 -12.3125 3.3125 -13.125 4.3125 -13.65625 C 5.320312 -14.195312 6.492188 -14.46875 7.828125 -14.46875 C 9.191406 -14.46875 10.351562 -14.210938 11.3125 -13.703125 C 12.28125 -13.203125 12.957031 -12.453125 13.34375 -11.453125 L 11.296875 -10.203125 L 11.046875 -10.203125 C 10.753906 -10.835938 10.34375 -11.300781 9.8125 -11.59375 C 9.28125 -11.894531 8.617188 -12.046875 7.828125 -12.046875 C 6.597656 -12.046875 5.65625 -11.65625 5 -10.875 C 4.351562 -10.09375 4.03125 -8.847656 4.03125 -7.140625 C 4.03125 -5.410156 4.332031 -4.15625 4.9375 -3.375 C 5.550781 -2.59375 6.453125 -2.203125 7.640625 -2.203125 C 8.671875 -2.203125 9.425781 -2.429688 9.90625 -2.890625 C 10.394531 -3.359375 10.640625 -4.050781 10.640625 -4.96875 L 10.640625 -5.578125 L 7.265625 -5.578125 L 7.265625 -7.875 L 13.453125 -7.875 L 13.453125 0 L 10.75 0 L 10.75 -1.90625 L 10.546875 -1.9375 C 10.253906 -1.257812 9.8125 -0.734375 9.21875 -0.359375 C 8.625 0.015625 7.859375 0.203125 6.921875 0.203125 Z M 6.921875 0.203125 "/></g></g></g><g fill="#ffffff" fill-opacity="1"><g transform="translate(199.823271, 211.215641)"><g><path d="M 1.859375 0 L 1.859375 -14.265625 L 7.578125 -14.265625 C 9.054688 -14.265625 10.171875 -13.925781 10.921875 -13.25 C 11.671875 -12.570312 12.046875 -11.632812 12.046875 -10.4375 C 12.046875 -9.570312 11.828125 -8.859375 11.390625 -8.296875 C 10.953125 -7.742188 10.296875 -7.320312 9.421875 -7.03125 L 9.421875 -6.828125 C 9.867188 -6.628906 10.226562 -6.335938 10.5 -5.953125 C 10.78125 -5.578125 11.046875 -5.007812 11.296875 -4.25 L 12.71875 0 L 9.828125 0 L 8.4375 -4.265625 C 8.289062 -4.691406 8.125 -5.023438 7.9375 -5.265625 C 7.757812 -5.503906 7.53125 -5.675781 7.25 -5.78125 C 6.976562 -5.882812 6.625 -5.9375 6.1875 -5.9375 L 4.671875 -5.9375 L 4.671875 0 Z M 7.234375 -8.171875 C 8.609375 -8.171875 9.296875 -8.8125 9.296875 -10.09375 C 9.296875 -11.382812 8.609375 -12.03125 7.234375 -12.03125 L 4.671875 -12.03125 L 4.671875 -8.171875 Z M 7.234375 -8.171875 "/></g></g></g><g fill="#ffffff" fill-opacity="1"><g transform="translate(213.16264, 211.215641)"><g><path d="M 13.6875 0 L 10.71875 0 L 9.65625 -3.28125 L 4.1875 -3.28125 L 3.109375 0 L 0.21875 0 L 5.140625 -14.265625 L 8.765625 -14.265625 Z M 6.78125 -11.296875 L 4.953125 -5.65625 L 8.875 -5.65625 L 7.03125 -11.296875 Z M 6.78125 -11.296875 "/></g></g></g><g fill="#ffffff" fill-opacity="1"><g transform="translate(227.067982, 211.215641)"><g/></g></g><g fill="#ffffff" fill-opacity="1"><g transform="translate(231.781161, 211.215641)"><g><path d="M 4.671875 -6.265625 L 4.671875 -2.359375 L 11.484375 -2.359375 L 11.484375 0 L 1.859375 0 L 1.859375 -14.265625 L 11.328125 -14.265625 L 11.328125 -11.90625 L 4.671875 -11.90625 L 4.671875 -8.5625 L 10.484375 -8.5625 L 10.484375 -6.265625 Z M 4.671875 -6.265625 "/></g></g></g><g fill="#ffffff" fill-opacity="1"><g transform="translate(244.047125, 211.215641)"><g><path d="M 8.484375 0 L 5.078125 0 L 0.25 -14.265625 L 3.25 -14.265625 L 6.71875 -3.625 L 6.953125 -3.625 L 10.375 -14.265625 L 13.296875 -14.265625 Z M 8.484375 0 "/></g></g></g><g fill="#ffffff" fill-opacity="1"><g transform="translate(257.591416, 211.215641)"><g><path d="M 4.671875 -6.265625 L 4.671875 -2.359375 L 11.484375 -2.359375 L 11.484375 0 L 1.859375 0 L 1.859375 -14.265625 L 11.328125 -14.265625 L 11.328125 -11.90625 L 4.671875 -11.90625 L 4.671875 -8.5625 L 10.484375 -8.5625 L 10.484375 -6.265625 Z M 4.671875 -6.265625 "/></g></g></g><g fill="#ffffff" fill-opacity="1"><g transform="translate(269.857379, 211.215641)"><g><path d="M 4.59375 0 L 1.859375 0 L 1.859375 -14.265625 L 5.078125 -14.265625 L 10.8125 -5.078125 L 11.0625 -5.109375 L 11.0625 -14.265625 L 13.78125 -14.265625 L 13.78125 0 L 10.890625 0 L 4.828125 -9.8125 L 4.59375 -9.78125 Z M 4.59375 0 "/></g></g></g><g fill="#ffffff" fill-opacity="1"><g transform="translate(285.499681, 211.215641)"><g><path d="M 11.4375 -14.265625 L 11.4375 -11.890625 L 7.3125 -11.890625 L 7.3125 0 L 4.515625 0 L 4.515625 -11.890625 L 0.390625 -11.890625 L 0.390625 -14.265625 Z M 11.4375 -14.265625 "/></g></g></g><g fill="#ffffff" fill-opacity="1"><g transform="translate(297.32654, 211.215641)"><g><path d="M 6.328125 0.203125 C 5.335938 0.203125 4.457031 0.0820312 3.6875 -0.15625 C 2.914062 -0.40625 2.269531 -0.726562 1.75 -1.125 C 1.238281 -1.519531 0.847656 -1.957031 0.578125 -2.4375 L 2.125 -4.328125 L 2.375 -4.328125 C 2.800781 -3.679688 3.34375 -3.171875 4 -2.796875 C 4.664062 -2.421875 5.441406 -2.234375 6.328125 -2.234375 C 7.078125 -2.234375 7.644531 -2.390625 8.03125 -2.703125 C 8.414062 -3.023438 8.609375 -3.46875 8.609375 -4.03125 C 8.609375 -4.363281 8.546875 -4.644531 8.421875 -4.875 C 8.296875 -5.101562 8.085938 -5.296875 7.796875 -5.453125 C 7.515625 -5.617188 7.128906 -5.765625 6.640625 -5.890625 L 4.8125 -6.296875 C 3.53125 -6.597656 2.570312 -7.085938 1.9375 -7.765625 C 1.3125 -8.441406 1 -9.320312 1 -10.40625 C 1 -11.21875 1.203125 -11.925781 1.609375 -12.53125 C 2.015625 -13.144531 2.601562 -13.617188 3.375 -13.953125 C 4.144531 -14.296875 5.066406 -14.46875 6.140625 -14.46875 C 7.234375 -14.46875 8.171875 -14.320312 8.953125 -14.03125 C 9.742188 -13.75 10.410156 -13.304688 10.953125 -12.703125 L 9.546875 -10.796875 L 9.3125 -10.796875 C 8.90625 -11.210938 8.441406 -11.523438 7.921875 -11.734375 C 7.398438 -11.953125 6.804688 -12.0625 6.140625 -12.0625 C 5.367188 -12.0625 4.78125 -11.921875 4.375 -11.640625 C 3.96875 -11.367188 3.765625 -10.992188 3.765625 -10.515625 C 3.765625 -10.066406 3.90625 -9.707031 4.1875 -9.4375 C 4.46875 -9.175781 4.957031 -8.972656 5.65625 -8.828125 L 7.53125 -8.4375 C 8.914062 -8.132812 9.921875 -7.632812 10.546875 -6.9375 C 11.171875 -6.238281 11.484375 -5.328125 11.484375 -4.203125 C 11.484375 -3.316406 11.289062 -2.539062 10.90625 -1.875 C 10.519531 -1.21875 9.941406 -0.707031 9.171875 -0.34375 C 8.398438 0.0195312 7.453125 0.203125 6.328125 0.203125 Z M 6.328125 0.203125 "/></g></g></g><g fill="#ffffff" fill-opacity="1"><g transform="translate(359.419444, 68.269479)"><g/></g></g><g fill="#ffffff" fill-opacity="1"><g transform="translate(370.032634, 68.269479)"><g><path d="M 10.671875 0 L 4.203125 0 L 15.265625 -26.3125 L 15.140625 -26.78125 L 0.875 -26.78125 L 0.875 -32.109375 L 21.703125 -32.109375 L 21.703125 -26.484375 Z M 10.671875 0 "/></g></g><g transform="translate(392.809699, 68.269479)"><g><path d="M 15.6875 0.46875 C 13.0625 0.46875 10.78125 -0.113281 8.84375 -1.28125 C 6.90625 -2.445312 5.394531 -4.257812 4.3125 -6.71875 C 3.238281 -9.175781 2.703125 -12.289062 2.703125 -16.0625 C 2.703125 -19.820312 3.238281 -22.929688 4.3125 -25.390625 C 5.394531 -27.847656 6.90625 -29.660156 8.84375 -30.828125 C 10.78125 -31.992188 13.0625 -32.578125 15.6875 -32.578125 C 18.320312 -32.578125 20.609375 -31.992188 22.546875 -30.828125 C 24.484375 -29.660156 25.988281 -27.847656 27.0625 -25.390625 C 28.144531 -22.929688 28.6875 -19.820312 28.6875 -16.0625 C 28.6875 -12.289062 28.144531 -9.175781 27.0625 -6.71875 C 25.988281 -4.257812 24.484375 -2.445312 22.546875 -1.28125 C 20.609375 -0.113281 18.320312 0.46875 15.6875 0.46875 Z M 15.6875 -4.921875 C 17.113281 -4.921875 18.3125 -5.265625 19.28125 -5.953125 C 20.25 -6.648438 20.992188 -7.816406 21.515625 -9.453125 C 22.035156 -11.097656 22.296875 -13.300781 22.296875 -16.0625 C 22.296875 -18.8125 22.035156 -21.003906 21.515625 -22.640625 C 20.992188 -24.285156 20.25 -25.453125 19.28125 -26.140625 C 18.3125 -26.835938 17.113281 -27.1875 15.6875 -27.1875 C 14.25 -27.1875 13.046875 -26.835938 12.078125 -26.140625 C 11.109375 -25.453125 10.363281 -24.285156 9.84375 -22.640625 C 9.332031 -21.003906 9.078125 -18.8125 9.078125 -16.0625 C 9.078125 -13.300781 9.332031 -11.097656 9.84375 -9.453125 C 10.363281 -7.816406 11.109375 -6.648438 12.078125 -5.953125 C 13.046875 -5.265625 14.25 -4.921875 15.6875 -4.921875 Z M 15.6875 -4.921875 "/></g></g><g transform="translate(424.196801, 68.269479)"><g><path d="M 15.6875 0.46875 C 13.0625 0.46875 10.78125 -0.113281 8.84375 -1.28125 C 6.90625 -2.445312 5.394531 -4.257812 4.3125 -6.71875 C 3.238281 -9.175781 2.703125 -12.289062 2.703125 -16.0625 C 2.703125 -19.820312 3.238281 -22.929688 4.3125 -25.390625 C 5.394531 -27.847656 6.90625 -29.660156 8.84375 -30.828125 C 10.78125 -31.992188 13.0625 -32.578125 15.6875 -32.578125 C 18.320312 -32.578125 20.609375 -31.992188 22.546875 -30.828125 C 24.484375 -29.660156 25.988281 -27.847656 27.0625 -25.390625 C 28.144531 -22.929688 28.6875 -19.820312 28.6875 -16.0625 C 28.6875 -12.289062 28.144531 -9.175781 27.0625 -6.71875 C 25.988281 -4.257812 24.484375 -2.445312 22.546875 -1.28125 C 20.609375 -0.113281 18.320312 0.46875 15.6875 0.46875 Z M 15.6875 -4.921875 C 17.113281 -4.921875 18.3125 -5.265625 19.28125 -5.953125 C 20.25 -6.648438 20.992188 -7.816406 21.515625 -9.453125 C 22.035156 -11.097656 22.296875 -13.300781 22.296875 -16.0625 C 22.296875 -18.8125 22.035156 -21.003906 21.515625 -22.640625 C 20.992188 -24.285156 20.25 -25.453125 19.28125 -26.140625 C 18.3125 -26.835938 17.113281 -27.1875 15.6875 -27.1875 C 14.25 -27.1875 13.046875 -26.835938 12.078125 -26.140625 C 11.109375 -25.453125 10.363281 -24.285156 9.84375 -22.640625 C 9.332031 -21.003906 9.078125 -18.8125 9.078125 -16.0625 C 9.078125 -13.300781 9.332031 -11.097656 9.84375 -9.453125 C 10.363281 -7.816406 11.109375 -6.648438 12.078125 -5.953125 C 13.046875 -5.265625 14.25 -4.921875 15.6875 -4.921875 Z M 15.6875 -4.921875 "/></g></g><g transform="translate(455.583904, 68.269479)"><g><path d="M 14.46875 -18.578125 L 21.75 -18.578125 L 21.75 -13.53125 L 14.46875 -13.53125 L 14.46875 -6.15625 L 9.203125 -6.15625 L 9.203125 -13.53125 L 1.90625 -13.53125 L 1.90625 -18.578125 L 9.203125 -18.578125 L 9.203125 -25.96875 L 14.46875 -25.96875 Z M 14.46875 -18.578125 "/></g></g></g><g fill="#ffffff" fill-opacity="1"><g transform="translate(372.328644, 103.506205)"><g><path d="M 6.328125 0.203125 C 5.335938 0.203125 4.457031 0.0820312 3.6875 -0.15625 C 2.914062 -0.40625 2.269531 -0.726562 1.75 -1.125 C 1.238281 -1.519531 0.847656 -1.957031 0.578125 -2.4375 L 2.125 -4.328125 L 2.375 -4.328125 C 2.800781 -3.679688 3.34375 -3.171875 4 -2.796875 C 4.664062 -2.421875 5.441406 -2.234375 6.328125 -2.234375 C 7.078125 -2.234375 7.644531 -2.390625 8.03125 -2.703125 C 8.414062 -3.023438 8.609375 -3.46875 8.609375 -4.03125 C 8.609375 -4.363281 8.546875 -4.644531 8.421875 -4.875 C 8.296875 -5.101562 8.085938 -5.296875 7.796875 -5.453125 C 7.515625 -5.617188 7.128906 -5.765625 6.640625 -5.890625 L 4.8125 -6.296875 C 3.53125 -6.597656 2.570312 -7.085938 1.9375 -7.765625 C 1.3125 -8.441406 1 -9.320312 1 -10.40625 C 1 -11.21875 1.203125 -11.925781 1.609375 -12.53125 C 2.015625 -13.144531 2.601562 -13.617188 3.375 -13.953125 C 4.144531 -14.296875 5.066406 -14.46875 6.140625 -14.46875 C 7.234375 -14.46875 8.171875 -14.320312 8.953125 -14.03125 C 9.742188 -13.75 10.410156 -13.304688 10.953125 -12.703125 L 9.546875 -10.796875 L 9.3125 -10.796875 C 8.90625 -11.210938 8.441406 -11.523438 7.921875 -11.734375 C 7.398438 -11.953125 6.804688 -12.0625 6.140625 -12.0625 C 5.367188 -12.0625 4.78125 -11.921875 4.375 -11.640625 C 3.96875 -11.367188 3.765625 -10.992188 3.765625 -10.515625 C 3.765625 -10.066406 3.90625 -9.707031 4.1875 -9.4375 C 4.46875 -9.175781 4.957031 -8.972656 5.65625 -8.828125 L 7.53125 -8.4375 C 8.914062 -8.132812 9.921875 -7.632812 10.546875 -6.9375 C 11.171875 -6.238281 11.484375 -5.328125 11.484375 -4.203125 C 11.484375 -3.316406 11.289062 -2.539062 10.90625 -1.875 C 10.519531 -1.21875 9.941406 -0.707031 9.171875 -0.34375 C 8.398438 0.0195312 7.453125 0.203125 6.328125 0.203125 Z M 6.328125 0.203125 "/></g></g></g><g fill="#ffffff" fill-opacity="1"><g transform="translate(384.584861, 103.506205)"><g><path d="M 11.4375 -14.265625 L 11.4375 -11.890625 L 7.3125 -11.890625 L 7.3125 0 L 4.515625 0 L 4.515625 -11.890625 L 0.390625 -11.890625 L 0.390625 -14.265625 Z M 11.4375 -14.265625 "/></g></g></g><g fill="#ffffff" fill-opacity="1"><g transform="translate(396.41172, 103.506205)"><g><path d="M 7.5625 0.203125 C 5.59375 0.203125 4.132812 -0.257812 3.1875 -1.1875 C 2.238281 -2.125 1.765625 -3.507812 1.765625 -5.34375 L 1.765625 -14.265625 L 4.53125 -14.265625 L 4.53125 -5.359375 C 4.53125 -4.328125 4.78125 -3.550781 5.28125 -3.03125 C 5.78125 -2.507812 6.539062 -2.25 7.5625 -2.25 C 9.582031 -2.25 10.59375 -3.285156 10.59375 -5.359375 L 10.59375 -14.265625 L 13.359375 -14.265625 L 13.359375 -5.34375 C 13.359375 -3.507812 12.882812 -2.125 11.9375 -1.1875 C 10.988281 -0.257812 9.53125 0.203125 7.5625 0.203125 Z M 7.5625 0.203125 "/></g></g></g><g fill="#ffffff" fill-opacity="1"><g transform="translate(411.536828, 103.506205)"><g><path d="M 6.984375 -14.265625 C 9.296875 -14.265625 11.0625 -13.664062 12.28125 -12.46875 C 13.507812 -11.269531 14.125 -9.492188 14.125 -7.140625 C 14.125 -4.773438 13.507812 -2.992188 12.28125 -1.796875 C 11.0625 -0.597656 9.296875 0 6.984375 0 L 1.859375 0 L 1.859375 -14.265625 Z M 6.828125 -2.375 C 8.296875 -2.375 9.394531 -2.75 10.125 -3.5 C 10.851562 -4.25 11.21875 -5.460938 11.21875 -7.140625 C 11.21875 -8.804688 10.851562 -10.015625 10.125 -10.765625 C 9.394531 -11.515625 8.296875 -11.890625 6.828125 -11.890625 L 4.671875 -11.890625 L 4.671875 -2.375 Z M 6.828125 -2.375 "/></g></g></g><g fill="#ffffff" fill-opacity="1"><g transform="translate(426.788793, 103.506205)"><g><path d="M 4.671875 -6.265625 L 4.671875 -2.359375 L 11.484375 -2.359375 L 11.484375 0 L 1.859375 0 L 1.859375 -14.265625 L 11.328125 -14.265625 L 11.328125 -11.90625 L 4.671875 -11.90625 L 4.671875 -8.5625 L 10.484375 -8.5625 L 10.484375 -6.265625 Z M 4.671875 -6.265625 "/></g></g></g><g fill="#ffffff" fill-opacity="1"><g transform="translate(439.054768, 103.506205)"><g><path d="M 4.59375 0 L 1.859375 0 L 1.859375 -14.265625 L 5.078125 -14.265625 L 10.8125 -5.078125 L 11.0625 -5.109375 L 11.0625 -14.265625 L 13.78125 -14.265625 L 13.78125 0 L 10.890625 0 L 4.828125 -9.8125 L 4.59375 -9.78125 Z M 4.59375 0 "/></g></g></g><g fill="#ffffff" fill-opacity="1"><g transform="translate(454.697058, 103.506205)"><g><path d="M 11.4375 -14.265625 L 11.4375 -11.890625 L 7.3125 -11.890625 L 7.3125 0 L 4.515625 0 L 4.515625 -11.890625 L 0.390625 -11.890625 L 0.390625 -14.265625 Z M 11.4375 -14.265625 "/></g></g></g><g fill="#ffffff" fill-opacity="1"><g transform="translate(466.523917, 103.506205)"><g><path d="M 6.328125 0.203125 C 5.335938 0.203125 4.457031 0.0820312 3.6875 -0.15625 C 2.914062 -0.40625 2.269531 -0.726562 1.75 -1.125 C 1.238281 -1.519531 0.847656 -1.957031 0.578125 -2.4375 L 2.125 -4.328125 L 2.375 -4.328125 C 2.800781 -3.679688 3.34375 -3.171875 4 -2.796875 C 4.664062 -2.421875 5.441406 -2.234375 6.328125 -2.234375 C 7.078125 -2.234375 7.644531 -2.390625 8.03125 -2.703125 C 8.414062 -3.023438 8.609375 -3.46875 8.609375 -4.03125 C 8.609375 -4.363281 8.546875 -4.644531 8.421875 -4.875 C 8.296875 -5.101562 8.085938 -5.296875 7.796875 -5.453125 C 7.515625 -5.617188 7.128906 -5.765625 6.640625 -5.890625 L 4.8125 -6.296875 C 3.53125 -6.597656 2.570312 -7.085938 1.9375 -7.765625 C 1.3125 -8.441406 1 -9.320312 1 -10.40625 C 1 -11.21875 1.203125 -11.925781 1.609375 -12.53125 C 2.015625 -13.144531 2.601562 -13.617188 3.375 -13.953125 C 4.144531 -14.296875 5.066406 -14.46875 6.140625 -14.46875 C 7.234375 -14.46875 8.171875 -14.320312 8.953125 -14.03125 C 9.742188 -13.75 10.410156 -13.304688 10.953125 -12.703125 L 9.546875 -10.796875 L 9.3125 -10.796875 C 8.90625 -11.210938 8.441406 -11.523438 7.921875 -11.734375 C 7.398438 -11.953125 6.804688 -12.0625 6.140625 -12.0625 C 5.367188 -12.0625 4.78125 -11.921875 4.375 -11.640625 C 3.96875 -11.367188 3.765625 -10.992188 3.765625 -10.515625 C 3.765625 -10.066406 3.90625 -9.707031 4.1875 -9.4375 C 4.46875 -9.175781 4.957031 -8.972656 5.65625 -8.828125 L 7.53125 -8.4375 C 8.914062 -8.132812 9.921875 -7.632812 10.546875 -6.9375 C 11.171875 -6.238281 11.484375 -5.328125 11.484375 -4.203125 C 11.484375 -3.316406 11.289062 -2.539062 10.90625 -1.875 C 10.519531 -1.21875 9.941406 -0.707031 9.171875 -0.34375 C 8.398438 0.0195312 7.453125 0.203125 6.328125 0.203125 Z M 6.328125 0.203125 "/></g></g></g><g fill="#ffffff" fill-opacity="1"><g transform="translate(370.399645, 175.978914)"><g><path d="M 1.6875 0 L 1.6875 -5.25 L 9.4375 -5.25 L 9.4375 -25.234375 L 8.9375 -25.375 C 7.84375 -24.84375 6.765625 -24.421875 5.703125 -24.109375 C 4.640625 -23.804688 3.425781 -23.566406 2.0625 -23.390625 L 2.0625 -28.8125 C 5.625 -29.5625 8.503906 -30.660156 10.703125 -32.109375 L 15.734375 -32.109375 L 15.734375 -5.25 L 22.640625 -5.25 L 22.640625 0 Z M 1.6875 0 "/></g></g><g transform="translate(394.099214, 175.978914)"><g><path d="M 15.6875 0.46875 C 13.0625 0.46875 10.78125 -0.113281 8.84375 -1.28125 C 6.90625 -2.445312 5.394531 -4.257812 4.3125 -6.71875 C 3.238281 -9.175781 2.703125 -12.289062 2.703125 -16.0625 C 2.703125 -19.820312 3.238281 -22.929688 4.3125 -25.390625 C 5.394531 -27.847656 6.90625 -29.660156 8.84375 -30.828125 C 10.78125 -31.992188 13.0625 -32.578125 15.6875 -32.578125 C 18.320312 -32.578125 20.609375 -31.992188 22.546875 -30.828125 C 24.484375 -29.660156 25.988281 -27.847656 27.0625 -25.390625 C 28.144531 -22.929688 28.6875 -19.820312 28.6875 -16.0625 C 28.6875 -12.289062 28.144531 -9.175781 27.0625 -6.71875 C 25.988281 -4.257812 24.484375 -2.445312 22.546875 -1.28125 C 20.609375 -0.113281 18.320312 0.46875 15.6875 0.46875 Z M 15.6875 -4.921875 C 17.113281 -4.921875 18.3125 -5.265625 19.28125 -5.953125 C 20.25 -6.648438 20.992188 -7.816406 21.515625 -9.453125 C 22.035156 -11.097656 22.296875 -13.300781 22.296875 -16.0625 C 22.296875 -18.8125 22.035156 -21.003906 21.515625 -22.640625 C 20.992188 -24.285156 20.25 -25.453125 19.28125 -26.140625 C 18.3125 -26.835938 17.113281 -27.1875 15.6875 -27.1875 C 14.25 -27.1875 13.046875 -26.835938 12.078125 -26.140625 C 11.109375 -25.453125 10.363281 -24.285156 9.84375 -22.640625 C 9.332031 -21.003906 9.078125 -18.8125 9.078125 -16.0625 C 9.078125 -13.300781 9.332031 -11.097656 9.84375 -9.453125 C 10.363281 -7.816406 11.109375 -6.648438 12.078125 -5.953125 C 13.046875 -5.265625 14.25 -4.921875 15.6875 -4.921875 Z M 15.6875 -4.921875 "/></g></g><g transform="translate(425.486316, 175.978914)"><g><path d="M 15.6875 0.46875 C 13.0625 0.46875 10.78125 -0.113281 8.84375 -1.28125 C 6.90625 -2.445312 5.394531 -4.257812 4.3125 -6.71875 C 3.238281 -9.175781 2.703125 -12.289062 2.703125 -16.0625 C 2.703125 -19.820312 3.238281 -22.929688 4.3125 -25.390625 C 5.394531 -27.847656 6.90625 -29.660156 8.84375 -30.828125 C 10.78125 -31.992188 13.0625 -32.578125 15.6875 -32.578125 C 18.320312 -32.578125 20.609375 -31.992188 22.546875 -30.828125 C 24.484375 -29.660156 25.988281 -27.847656 27.0625 -25.390625 C 28.144531 -22.929688 28.6875 -19.820312 28.6875 -16.0625 C 28.6875 -12.289062 28.144531 -9.175781 27.0625 -6.71875 C 25.988281 -4.257812 24.484375 -2.445312 22.546875 -1.28125 C 20.609375 -0.113281 18.320312 0.46875 15.6875 0.46875 Z M 15.6875 -4.921875 C 17.113281 -4.921875 18.3125 -5.265625 19.28125 -5.953125 C 20.25 -6.648438 20.992188 -7.816406 21.515625 -9.453125 C 22.035156 -11.097656 22.296875 -13.300781 22.296875 -16.0625 C 22.296875 -18.8125 22.035156 -21.003906 21.515625 -22.640625 C 20.992188 -24.285156 20.25 -25.453125 19.28125 -26.140625 C 18.3125 -26.835938 17.113281 -27.1875 15.6875 -27.1875 C 14.25 -27.1875 13.046875 -26.835938 12.078125 -26.140625 C 11.109375 -25.453125 10.363281 -24.285156 9.84375 -22.640625 C 9.332031 -21.003906 9.078125 -18.8125 9.078125 -16.0625 C 9.078125 -13.300781 9.332031 -11.097656 9.84375 -9.453125 C 10.363281 -7.816406 11.109375 -6.648438 12.078125 -5.953125 C 13.046875 -5.265625 14.25 -4.921875 15.6875 -4.921875 Z M 15.6875 -4.921875 "/></g></g><g transform="translate(456.873419, 175.978914)"><g><path d="M 14.46875 -18.578125 L 21.75 -18.578125 L 21.75 -13.53125 L 14.46875 -13.53125 L 14.46875 -6.15625 L 9.203125 -6.15625 L 9.203125 -13.53125 L 1.90625 -13.53125 L 1.90625 -18.578125 L 9.203125 -18.578125 L 9.203125 -25.96875 L 14.46875 -25.96875 Z M 14.46875 -18.578125 "/></g></g></g><g fill="#ffffff" fill-opacity="1"><g transform="translate(370.399645, 211.215641)"><g><path d="M 1.859375 0 L 1.859375 -14.265625 L 7.9375 -14.265625 C 8.820312 -14.265625 9.566406 -14.125 10.171875 -13.84375 C 10.773438 -13.570312 11.234375 -13.179688 11.546875 -12.671875 C 11.859375 -12.160156 12.015625 -11.554688 12.015625 -10.859375 C 12.015625 -10.234375 11.863281 -9.675781 11.5625 -9.1875 C 11.257812 -8.707031 10.820312 -8.320312 10.25 -8.03125 L 10.25 -7.828125 C 11.144531 -7.585938 11.835938 -7.160156 12.328125 -6.546875 C 12.816406 -5.929688 13.0625 -5.175781 13.0625 -4.28125 C 13.0625 -2.90625 12.648438 -1.847656 11.828125 -1.109375 C 11.003906 -0.367188 9.78125 0 8.15625 0 Z M 7.359375 -8.578125 C 8.671875 -8.578125 9.328125 -9.171875 9.328125 -10.359375 C 9.328125 -10.960938 9.164062 -11.410156 8.84375 -11.703125 C 8.519531 -12.003906 8.023438 -12.15625 7.359375 -12.15625 L 4.671875 -12.15625 L 4.671875 -8.578125 Z M 7.875 -2.234375 C 9.425781 -2.234375 10.203125 -2.941406 10.203125 -4.359375 C 10.203125 -5.773438 9.425781 -6.484375 7.875 -6.484375 L 4.671875 -6.484375 L 4.671875 -2.234375 Z M 7.875 -2.234375 "/></g></g></g><g fill="#ffffff" fill-opacity="1"><g transform="translate(384.353777, 211.215641)"><g><path d="M 11.0625 -8.90625 L 11.0625 -14.265625 L 13.875 -14.265625 L 13.875 0 L 11.0625 0 L 11.0625 -6.5 L 4.671875 -6.5 L 4.671875 0 L 1.859375 0 L 1.859375 -14.265625 L 4.671875 -14.265625 L 4.671875 -8.90625 Z M 11.0625 -8.90625 "/></g></g></g><g fill="#ffffff" fill-opacity="1"><g transform="translate(400.093648, 211.215641)"><g><path d="M 13.6875 0 L 10.71875 0 L 9.65625 -3.28125 L 4.1875 -3.28125 L 3.109375 0 L 0.21875 0 L 5.140625 -14.265625 L 8.765625 -14.265625 Z M 6.78125 -11.296875 L 4.953125 -5.65625 L 8.875 -5.65625 L 7.03125 -11.296875 Z M 6.78125 -11.296875 "/></g></g></g><g fill="#ffffff" fill-opacity="1"><g transform="translate(413.99899, 211.215641)"><g><path d="M 4.59375 0 L 1.859375 0 L 1.859375 -14.265625 L 5.078125 -14.265625 L 10.8125 -5.078125 L 11.0625 -5.109375 L 11.0625 -14.265625 L 13.78125 -14.265625 L 13.78125 0 L 10.890625 0 L 4.828125 -9.8125 L 4.59375 -9.78125 Z M 4.59375 0 "/></g></g></g><g fill="#ffffff" fill-opacity="1"><g transform="translate(429.64128, 211.215641)"><g><path d="M 6.921875 0.203125 C 5.734375 0.203125 4.703125 -0.0664062 3.828125 -0.609375 C 2.960938 -1.148438 2.296875 -1.96875 1.828125 -3.0625 C 1.359375 -4.164062 1.125 -5.523438 1.125 -7.140625 C 1.125 -8.765625 1.40625 -10.125 1.96875 -11.21875 C 2.53125 -12.3125 3.3125 -13.125 4.3125 -13.65625 C 5.320312 -14.195312 6.492188 -14.46875 7.828125 -14.46875 C 9.191406 -14.46875 10.351562 -14.210938 11.3125 -13.703125 C 12.28125 -13.203125 12.957031 -12.453125 13.34375 -11.453125 L 11.296875 -10.203125 L 11.046875 -10.203125 C 10.753906 -10.835938 10.34375 -11.300781 9.8125 -11.59375 C 9.28125 -11.894531 8.617188 -12.046875 7.828125 -12.046875 C 6.597656 -12.046875 5.65625 -11.65625 5 -10.875 C 4.351562 -10.09375 4.03125 -8.847656 4.03125 -7.140625 C 4.03125 -5.410156 4.332031 -4.15625 4.9375 -3.375 C 5.550781 -2.59375 6.453125 -2.203125 7.640625 -2.203125 C 8.671875 -2.203125 9.425781 -2.429688 9.90625 -2.890625 C 10.394531 -3.359375 10.640625 -4.050781 10.640625 -4.96875 L 10.640625 -5.578125 L 7.265625 -5.578125 L 7.265625 -7.875 L 13.453125 -7.875 L 13.453125 0 L 10.75 0 L 10.75 -1.90625 L 10.546875 -1.9375 C 10.253906 -1.257812 9.8125 -0.734375 9.21875 -0.359375 C 8.625 0.015625 7.859375 0.203125 6.921875 0.203125 Z M 6.921875 0.203125 "/></g></g></g><g fill="#ffffff" fill-opacity="1"><g transform="translate(444.522435, 211.215641)"><g><path d="M 1.859375 0 L 1.859375 -14.265625 L 7.578125 -14.265625 C 9.054688 -14.265625 10.171875 -13.925781 10.921875 -13.25 C 11.671875 -12.570312 12.046875 -11.632812 12.046875 -10.4375 C 12.046875 -9.570312 11.828125 -8.859375 11.390625 -8.296875 C 10.953125 -7.742188 10.296875 -7.320312 9.421875 -7.03125 L 9.421875 -6.828125 C 9.867188 -6.628906 10.226562 -6.335938 10.5 -5.953125 C 10.78125 -5.578125 11.046875 -5.007812 11.296875 -4.25 L 12.71875 0 L 9.828125 0 L 8.4375 -4.265625 C 8.289062 -4.691406 8.125 -5.023438 7.9375 -5.265625 C 7.757812 -5.503906 7.53125 -5.675781 7.25 -5.78125 C 6.976562 -5.882812 6.625 -5.9375 6.1875 -5.9375 L 4.671875 -5.9375 L 4.671875 0 Z M 7.234375 -8.171875 C 8.609375 -8.171875 9.296875 -8.8125 9.296875 -10.09375 C 9.296875 -11.382812 8.609375 -12.03125 7.234375 -12.03125 L 4.671875 -12.03125 L 4.671875 -8.171875 Z M 7.234375 -8.171875 "/></g></g></g><g fill="#ffffff" fill-opacity="1"><g transform="translate(457.861804, 211.215641)"><g><path d="M 13.6875 0 L 10.71875 0 L 9.65625 -3.28125 L 4.1875 -3.28125 L 3.109375 0 L 0.21875 0 L 5.140625 -14.265625 L 8.765625 -14.265625 Z M 6.78125 -11.296875 L 4.953125 -5.65625 L 8.875 -5.65625 L 7.03125 -11.296875 Z M 6.78125 -11.296875 "/></g></g></g><g fill="#ffffff" fill-opacity="1"><g transform="translate(471.767146, 211.215641)"><g/></g></g><g fill="#ffffff" fill-opacity="1"><g transform="translate(476.480325, 211.215641)"><g><path d="M 7.375 -14.265625 C 8.394531 -14.265625 9.265625 -14.078125 9.984375 -13.703125 C 10.710938 -13.328125 11.257812 -12.800781 11.625 -12.125 C 12 -11.457031 12.1875 -10.675781 12.1875 -9.78125 C 12.1875 -8.894531 12 -8.113281 11.625 -7.4375 C 11.257812 -6.769531 10.710938 -6.25 9.984375 -5.875 C 9.265625 -5.5 8.394531 -5.3125 7.375 -5.3125 L 4.671875 -5.3125 L 4.671875 0 L 1.859375 0 L 1.859375 -14.265625 Z M 7 -7.546875 C 8.5625 -7.546875 9.34375 -8.289062 9.34375 -9.78125 C 9.34375 -11.28125 8.5625 -12.03125 7 -12.03125 L 4.671875 -12.03125 L 4.671875 -7.546875 Z M 7 -7.546875 "/></g></g></g><g fill="#ffffff" fill-opacity="1"><g transform="translate(489.517193, 211.215641)"><g><path d="M 4.671875 -6.265625 L 4.671875 -2.359375 L 11.484375 -2.359375 L 11.484375 0 L 1.859375 0 L 1.859375 -14.265625 L 11.328125 -14.265625 L 11.328125 -11.90625 L 4.671875 -11.90625 L 4.671875 -8.5625 L 10.484375 -8.5625 L 10.484375 -6.265625 Z M 4.671875 -6.265625 "/></g></g></g><g fill="#ffffff" fill-opacity="1"><g transform="translate(501.783168, 211.215641)"><g><path d="M 1.859375 0 L 1.859375 -14.265625 L 7.578125 -14.265625 C 9.054688 -14.265625 10.171875 -13.925781 10.921875 -13.25 C 11.671875 -12.570312 12.046875 -11.632812 12.046875 -10.4375 C 12.046875 -9.570312 11.828125 -8.859375 11.390625 -8.296875 C 10.953125 -7.742188 10.296875 -7.320312 9.421875 -7.03125 L 9.421875 -6.828125 C 9.867188 -6.628906 10.226562 -6.335938 10.5 -5.953125 C 10.78125 -5.578125 11.046875 -5.007812 11.296875 -4.25 L 12.71875 0 L 9.828125 0 L 8.4375 -4.265625 C 8.289062 -4.691406 8.125 -5.023438 7.9375 -5.265625 C 7.757812 -5.503906 7.53125 -5.675781 7.25 -5.78125 C 6.976562 -5.882812 6.625 -5.9375 6.1875 -5.9375 L 4.671875 -5.9375 L 4.671875 0 Z M 7.234375 -8.171875 C 8.609375 -8.171875 9.296875 -8.8125 9.296875 -10.09375 C 9.296875 -11.382812 8.609375 -12.03125 7.234375 -12.03125 L 4.671875 -12.03125 L 4.671875 -8.171875 Z M 7.234375 -8.171875 "/></g></g></g><g fill="#ffffff" fill-opacity="1"><g transform="translate(515.122538, 211.215641)"><g><path d="M 10.90625 -14.265625 L 10.90625 -11.90625 L 4.671875 -11.90625 L 4.671875 -8.125 L 10.328125 -8.125 L 10.328125 -5.796875 L 4.671875 -5.796875 L 4.671875 0 L 1.859375 0 L 1.859375 -14.265625 Z M 10.90625 -14.265625 "/></g></g></g><g fill="#ffffff" fill-opacity="1"><g transform="translate(526.656653, 211.215641)"><g><path d="M 7.78125 0.203125 C 6.46875 0.203125 5.3125 -0.0625 4.3125 -0.59375 C 3.3125 -1.125 2.53125 -1.9375 1.96875 -3.03125 C 1.40625 -4.132812 1.125 -5.503906 1.125 -7.140625 C 1.125 -8.765625 1.40625 -10.125 1.96875 -11.21875 C 2.53125 -12.320312 3.3125 -13.140625 4.3125 -13.671875 C 5.3125 -14.203125 6.46875 -14.46875 7.78125 -14.46875 C 9.082031 -14.46875 10.226562 -14.203125 11.21875 -13.671875 C 12.21875 -13.140625 13 -12.320312 13.5625 -11.21875 C 14.125 -10.125 14.40625 -8.765625 14.40625 -7.140625 C 14.40625 -5.503906 14.125 -4.132812 13.5625 -3.03125 C 13 -1.9375 12.21875 -1.125 11.21875 -0.59375 C 10.226562 -0.0625 9.082031 0.203125 7.78125 0.203125 Z M 7.78125 -2.25 C 8.988281 -2.25 9.910156 -2.632812 10.546875 -3.40625 C 11.179688 -4.1875 11.5 -5.429688 11.5 -7.140625 C 11.5 -8.835938 11.179688 -10.078125 10.546875 -10.859375 C 9.910156 -11.640625 8.988281 -12.03125 7.78125 -12.03125 C 6.5625 -12.03125 5.628906 -11.640625 4.984375 -10.859375 C 4.347656 -10.078125 4.03125 -8.835938 4.03125 -7.140625 C 4.03125 -5.429688 4.347656 -4.1875 4.984375 -3.40625 C 5.628906 -2.632812 6.5625 -2.25 7.78125 -2.25 Z M 7.78125 -2.25 "/></g></g></g><g fill="#ffffff" fill-opacity="1"><g transform="translate(542.201361, 211.215641)"><g><path d="M 1.859375 0 L 1.859375 -14.265625 L 7.578125 -14.265625 C 9.054688 -14.265625 10.171875 -13.925781 10.921875 -13.25 C 11.671875 -12.570312 12.046875 -11.632812 12.046875 -10.4375 C 12.046875 -9.570312 11.828125 -8.859375 11.390625 -8.296875 C 10.953125 -7.742188 10.296875 -7.320312 9.421875 -7.03125 L 9.421875 -6.828125 C 9.867188 -6.628906 10.226562 -6.335938 10.5 -5.953125 C 10.78125 -5.578125 11.046875 -5.007812 11.296875 -4.25 L 12.71875 0 L 9.828125 0 L 8.4375 -4.265625 C 8.289062 -4.691406 8.125 -5.023438 7.9375 -5.265625 C 7.757812 -5.503906 7.53125 -5.675781 7.25 -5.78125 C 6.976562 -5.882812 6.625 -5.9375 6.1875 -5.9375 L 4.671875 -5.9375 L 4.671875 0 Z M 7.234375 -8.171875 C 8.609375 -8.171875 9.296875 -8.8125 9.296875 -10.09375 C 9.296875 -11.382812 8.609375 -12.03125 7.234375 -12.03125 L 4.671875 -12.03125 L 4.671875 -8.171875 Z M 7.234375 -8.171875 "/></g></g></g><g fill="#ffffff" fill-opacity="1"><g transform="translate(555.540731, 211.215641)"><g><path d="M 4.4375 0 L 1.859375 0 L 1.859375 -14.265625 L 5.546875 -14.265625 L 9.15625 -3.78125 L 9.359375 -3.78125 L 12.953125 -14.265625 L 16.546875 -14.265625 L 16.546875 0 L 13.875 0 L 13.875 -9.421875 L 13.625 -9.46875 L 10.328125 0 L 7.984375 0 L 4.6875 -9.46875 L 4.4375 -9.421875 Z M 4.4375 0 "/></g></g></g><g fill="#ffffff" fill-opacity="1"><g transform="translate(573.954331, 211.215641)"><g><path d="M 13.6875 0 L 10.71875 0 L 9.65625 -3.28125 L 4.1875 -3.28125 L 3.109375 0 L 0.21875 0 L 5.140625 -14.265625 L 8.765625 -14.265625 Z M 6.78125 -11.296875 L 4.953125 -5.65625 L 8.875 -5.65625 L 7.03125 -11.296875 Z M 6.78125 -11.296875 "/></g></g></g><g fill="#ffffff" fill-opacity="1"><g transform="translate(587.859661, 211.215641)"><g><path d="M 4.59375 0 L 1.859375 0 L 1.859375 -14.265625 L 5.078125 -14.265625 L 10.8125 -5.078125 L 11.0625 -5.109375 L 11.0625 -14.265625 L 13.78125 -14.265625 L 13.78125 0 L 10.890625 0 L 4.828125 -9.8125 L 4.59375 -9.78125 Z M 4.59375 0 "/></g></g></g><g fill="#ffffff" fill-opacity="1"><g transform="translate(603.501962, 211.215641)"><g><path d="M 7.796875 0.203125 C 6.484375 0.203125 5.320312 -0.0664062 4.3125 -0.609375 C 3.3125 -1.160156 2.53125 -1.984375 1.96875 -3.078125 C 1.40625 -4.171875 1.125 -5.523438 1.125 -7.140625 C 1.125 -8.742188 1.40625 -10.09375 1.96875 -11.1875 C 2.53125 -12.28125 3.3125 -13.097656 4.3125 -13.640625 C 5.320312 -14.191406 6.484375 -14.46875 7.796875 -14.46875 C 9.171875 -14.46875 10.335938 -14.195312 11.296875 -13.65625 C 12.253906 -13.125 12.9375 -12.3125 13.34375 -11.21875 L 11.296875 -9.953125 L 11.046875 -9.96875 C 10.742188 -10.707031 10.328125 -11.238281 9.796875 -11.5625 C 9.273438 -11.882812 8.609375 -12.046875 7.796875 -12.046875 C 6.609375 -12.046875 5.679688 -11.648438 5.015625 -10.859375 C 4.359375 -10.078125 4.03125 -8.835938 4.03125 -7.140625 C 4.03125 -5.441406 4.359375 -4.195312 5.015625 -3.40625 C 5.679688 -2.625 6.609375 -2.234375 7.796875 -2.234375 C 9.648438 -2.234375 10.785156 -3.132812 11.203125 -4.9375 L 11.453125 -4.9375 L 13.53125 -3.859375 C 13.132812 -2.503906 12.460938 -1.488281 11.515625 -0.8125 C 10.578125 -0.132812 9.335938 0.203125 7.796875 0.203125 Z M 7.796875 0.203125 "/></g></g></g><g fill="#ffffff" fill-opacity="1"><g transform="translate(617.495127, 211.215641)"><g><path d="M 4.671875 -6.265625 L 4.671875 -2.359375 L 11.484375 -2.359375 L 11.484375 0 L 1.859375 0 L 1.859375 -14.265625 L 11.328125 -14.265625 L 11.328125 -11.90625 L 4.671875 -11.90625 L 4.671875 -8.5625 L 10.484375 -8.5625 L 10.484375 -6.265625 Z M 4.671875 -6.265625 "/></g></g></g><g fill="#ffffff" fill-opacity="1"><g transform="translate(629.761113, 211.215641)"><g><path d="M 6.328125 0.203125 C 5.335938 0.203125 4.457031 0.0820312 3.6875 -0.15625 C 2.914062 -0.40625 2.269531 -0.726562 1.75 -1.125 C 1.238281 -1.519531 0.847656 -1.957031 0.578125 -2.4375 L 2.125 -4.328125 L 2.375 -4.328125 C 2.800781 -3.679688 3.34375 -3.171875 4 -2.796875 C 4.664062 -2.421875 5.441406 -2.234375 6.328125 -2.234375 C 7.078125 -2.234375 7.644531 -2.390625 8.03125 -2.703125 C 8.414062 -3.023438 8.609375 -3.46875 8.609375 -4.03125 C 8.609375 -4.363281 8.546875 -4.644531 8.421875 -4.875 C 8.296875 -5.101562 8.085938 -5.296875 7.796875 -5.453125 C 7.515625 -5.617188 7.128906 -5.765625 6.640625 -5.890625 L 4.8125 -6.296875 C 3.53125 -6.597656 2.570312 -7.085938 1.9375 -7.765625 C 1.3125 -8.441406 1 -9.320312 1 -10.40625 C 1 -11.21875 1.203125 -11.925781 1.609375 -12.53125 C 2.015625 -13.144531 2.601562 -13.617188 3.375 -13.953125 C 4.144531 -14.296875 5.066406 -14.46875 6.140625 -14.46875 C 7.234375 -14.46875 8.171875 -14.320312 8.953125 -14.03125 C 9.742188 -13.75 10.410156 -13.304688 10.953125 -12.703125 L 9.546875 -10.796875 L 9.3125 -10.796875 C 8.90625 -11.210938 8.441406 -11.523438 7.921875 -11.734375 C 7.398438 -11.953125 6.804688 -12.0625 6.140625 -12.0625 C 5.367188 -12.0625 4.78125 -11.921875 4.375 -11.640625 C 3.96875 -11.367188 3.765625 -10.992188 3.765625 -10.515625 C 3.765625 -10.066406 3.90625 -9.707031 4.1875 -9.4375 C 4.46875 -9.175781 4.957031 -8.972656 5.65625 -8.828125 L 7.53125 -8.4375 C 8.914062 -8.132812 9.921875 -7.632812 10.546875 -6.9375 C 11.171875 -6.238281 11.484375 -5.328125 11.484375 -4.203125 C 11.484375 -3.316406 11.289062 -2.539062 10.90625 -1.875 C 10.519531 -1.21875 9.941406 -0.707031 9.171875 -0.34375 C 8.398438 0.0195312 7.453125 0.203125 6.328125 0.203125 Z M 6.328125 0.203125 "/></g></g></g><path fill="#ffffff" d="M -0.00390625 122.25 L 2.996094 122.242188 L 3.003906 125.242188 L 0.00390625 125.246094 M 5.996094 122.234375 L 8.992188 122.230469 L 9 125.226562 L 6 125.234375 M 11.992188 122.222656 L 14.992188 122.214844 L 14.996094 125.214844 L 12 125.222656 M 17.988281 122.207031 L 20.988281 122.203125 L 20.996094 125.199219 L 17.996094 125.207031 M 23.988281 122.195312 L 26.988281 122.1875 L 26.992188 125.1875 L 23.996094 125.195312 M 29.984375 122.179688 L 32.984375 122.175781 L 32.992188 125.171875 L 29.992188 125.179688 M 35.984375 122.167969 L 38.980469 122.160156 L 38.988281 125.160156 L 35.988281 125.167969 M 41.980469 122.152344 L 44.980469 122.148438 L 44.984375 125.144531 L 41.988281 125.152344 M 47.976562 122.140625 L 50.976562 122.132812 L 50.984375 125.132812 L 47.984375 125.140625 M 53.976562 122.128906 L 56.976562 122.121094 L 56.980469 125.121094 L 53.984375 125.125 M 59.972656 122.113281 L 62.972656 122.105469 L 62.980469 125.105469 L 59.980469 125.113281 M 65.972656 122.101562 L 68.96875 122.09375 L 68.976562 125.09375 L 65.976562 125.097656 M 71.96875 122.085938 L 74.96875 122.078125 L 74.976562 125.078125 L 71.976562 125.085938 M 77.96875 122.074219 L 80.964844 122.066406 L 80.972656 125.066406 L 77.972656 125.070312 M 83.964844 122.058594 L 86.964844 122.050781 L 86.96875 125.050781 L 83.972656 125.058594 M 89.960938 122.046875 L 92.960938 122.039062 L 92.96875 125.039062 L 89.96875 125.042969 M 95.960938 122.03125 L 98.960938 122.027344 L 98.964844 125.023438 L 95.96875 125.03125 M 101.957031 122.019531 L 104.957031 122.011719 L 104.964844 125.011719 L 101.964844 125.019531 M 107.957031 122.003906 L 110.953125 122 L 110.960938 124.996094 L 107.960938 125.003906 M 113.953125 121.992188 L 116.953125 121.984375 L 116.960938 124.984375 L 113.960938 124.992188 M 119.949219 121.976562 L 122.949219 121.972656 L 122.957031 124.96875 L 119.957031 124.976562 M 125.949219 121.964844 L 128.949219 121.957031 L 128.953125 124.957031 L 125.957031 124.964844 M 131.945312 121.949219 L 134.945312 121.945312 L 134.953125 124.941406 L 131.953125 124.949219 M 137.945312 121.9375 L 140.941406 121.929688 L 140.949219 124.929688 L 137.949219 124.9375 M 143.941406 121.925781 L 146.941406 121.917969 L 146.949219 124.914062 L 143.949219 124.921875 M 149.941406 121.910156 L 152.9375 121.902344 L 152.945312 124.902344 L 149.945312 124.910156 M 155.9375 121.898438 L 158.9375 121.890625 L 158.941406 124.890625 L 155.945312 124.894531 M 161.933594 121.882812 L 164.933594 121.875 L 164.941406 124.875 L 161.941406 124.882812 M 167.933594 121.871094 L 170.933594 121.863281 L 170.9375 124.863281 L 167.941406 124.867188 M 173.929688 121.855469 L 176.929688 121.847656 L 176.9375 124.847656 L 173.9375 124.855469 M 179.929688 121.84375 L 182.925781 121.835938 L 182.933594 124.835938 L 179.933594 124.839844 M 185.925781 121.828125 L 188.925781 121.820312 L 188.933594 124.820312 L 185.933594 124.828125 M 191.921875 121.816406 L 194.921875 121.808594 L 194.929688 124.808594 L 191.929688 124.8125 M 197.921875 121.800781 L 200.921875 121.796875 L 200.925781 124.792969 L 197.929688 124.800781 M 203.917969 121.789062 L 206.917969 121.78125 L 206.925781 124.78125 L 203.925781 124.789062 M 209.917969 121.773438 L 212.914062 121.769531 L 212.921875 124.765625 L 209.921875 124.773438 M 215.914062 121.761719 L 218.914062 121.753906 L 218.921875 124.753906 L 215.921875 124.761719 M 221.914062 121.746094 L 224.910156 121.742188 L 224.917969 124.738281 L 221.917969 124.746094 M 227.910156 121.734375 L 230.910156 121.726562 L 230.914062 124.726562 L 227.917969 124.734375 M 233.90625 121.71875 L 236.90625 121.714844 L 236.914062 124.710938 L 233.914062 124.71875 M 239.90625 121.707031 L 242.90625 121.699219 L 242.910156 124.699219 L 239.914062 124.707031 M 245.902344 121.695312 L 248.902344 121.6875 L 248.910156 124.683594 L 245.910156 124.691406 M 251.902344 121.679688 L 254.898438 121.671875 L 254.90625 124.671875 L 251.90625 124.679688 M 257.898438 121.667969 L 260.898438 121.660156 L 260.90625 124.660156 L 257.90625 124.664062 M 263.898438 121.652344 L 266.894531 121.644531 L 266.902344 124.644531 L 263.902344 124.652344 M 269.894531 121.640625 L 272.894531 121.632812 L 272.898438 124.632812 L 269.902344 124.636719 M 275.890625 121.625 L 278.890625 121.617188 L 278.898438 124.617188 L 275.898438 124.625 M 281.890625 121.613281 L 284.886719 121.605469 L 284.894531 124.605469 L 281.894531 124.609375 M 287.886719 121.597656 L 290.886719 121.589844 L 290.894531 124.589844 L 287.894531 124.597656 M 293.886719 121.585938 L 296.882812 121.578125 L 296.890625 124.578125 L 293.890625 124.582031 M 299.882812 121.570312 L 302.882812 121.566406 L 302.886719 124.5625 L 299.890625 124.570312 M 305.878906 121.558594 L 308.878906 121.550781 L 308.886719 124.550781 L 305.886719 124.558594 M 311.878906 121.542969 L 314.878906 121.539062 L 314.882812 124.535156 L 311.886719 124.542969 M 317.875 121.53125 L 320.875 121.523438 L 320.882812 124.523438 L 317.882812 124.53125 M 323.875 121.515625 L 326.871094 121.511719 L 326.878906 124.507812 L 323.878906 124.515625 M 329.871094 121.503906 L 332.871094 121.496094 L 332.878906 124.496094 L 329.878906 124.503906 M 335.871094 121.488281 L 338.867188 121.484375 L 338.875 124.480469 L 335.875 124.488281 M 341.867188 121.476562 L 344.867188 121.46875 L 344.871094 124.46875 L 341.875 124.476562 M 347.863281 121.464844 L 350.863281 121.457031 L 350.871094 124.457031 L 347.871094 124.460938 M 353.863281 121.449219 L 356.859375 121.441406 L 356.867188 124.441406 L 353.871094 124.449219 M 359.859375 121.4375 L 362.859375 121.429688 L 362.867188 124.429688 L 359.867188 124.433594 M 365.859375 121.421875 L 368.855469 121.414062 L 368.863281 124.414062 L 365.863281 124.421875 M 371.855469 121.410156 L 374.855469 121.402344 L 374.859375 124.402344 L 371.863281 124.40625 M 377.851562 121.394531 L 380.851562 121.386719 L 380.859375 124.386719 L 377.859375 124.394531 M 383.851562 121.382812 L 386.851562 121.375 L 386.855469 124.375 L 383.859375 124.378906 M 389.847656 121.367188 L 392.847656 121.363281 L 392.855469 124.359375 L 389.855469 124.367188 M 395.847656 121.355469 L 398.84375 121.347656 L 398.851562 124.347656 L 395.851562 124.351562 M 401.84375 121.339844 L 404.84375 121.335938 L 404.851562 124.332031 L 401.851562 124.339844 M 407.84375 121.328125 L 410.839844 121.320312 L 410.847656 124.320312 L 407.847656 124.328125 M 413.839844 121.3125 L 416.839844 121.308594 L 416.84375 124.304688 L 413.847656 124.3125 M 419.835938 121.300781 L 422.835938 121.292969 L 422.84375 124.292969 L 419.84375 124.300781 M 425.835938 121.285156 L 428.832031 121.28125 L 428.839844 124.277344 L 425.84375 124.285156 M 431.832031 121.273438 L 434.832031 121.265625 L 434.839844 124.265625 L 431.839844 124.273438 M 437.832031 121.257812 L 440.828125 121.253906 L 440.835938 124.25 L 437.835938 124.257812 M 443.828125 121.246094 L 446.828125 121.238281 L 446.832031 124.238281 L 443.835938 124.246094 M 449.824219 121.234375 L 452.824219 121.226562 L 452.832031 124.226562 L 449.832031 124.230469 M 455.824219 121.21875 L 458.824219 121.210938 L 458.828125 124.210938 L 455.832031 124.21875 M 461.820312 121.207031 L 464.820312 121.199219 L 464.828125 124.199219 L 461.828125 124.203125 M 467.820312 121.191406 L 470.816406 121.183594 L 470.824219 124.183594 L 467.824219 124.191406 M 473.816406 121.179688 L 476.816406 121.171875 L 476.824219 124.171875 L 473.824219 124.175781 M 479.816406 121.164062 L 482.8125 121.15625 L 482.820312 124.15625 L 479.820312 124.164062 M 485.8125 121.152344 L 488.8125 121.144531 L 488.816406 124.144531 L 485.820312 124.148438 M 491.808594 121.136719 L 494.808594 121.132812 L 494.816406 124.128906 L 491.816406 124.136719 M 497.808594 121.125 L 500.808594 121.117188 L 500.8125 124.117188 L 497.816406 124.121094 M 503.804688 121.109375 L 506.804688 121.105469 L 506.8125 124.101562 L 503.8125 124.109375 M 509.804688 121.097656 L 512.800781 121.089844 L 512.808594 124.089844 L 509.808594 124.097656 M 515.800781 121.082031 L 518.800781 121.078125 L 518.804688 124.074219 L 515.808594 124.082031 M 521.796875 121.070312 L 524.796875 121.0625 L 524.804688 124.0625 L 521.804688 124.070312 M 527.796875 121.054688 L 530.796875 121.050781 L 530.800781 124.046875 L 527.804688 124.054688 M 533.792969 121.042969 L 536.792969 121.035156 L 536.800781 124.035156 L 533.800781 124.042969 M 539.792969 121.027344 L 542.789062 121.023438 L 542.796875 124.019531 L 539.796875 124.027344 M 545.789062 121.015625 L 548.789062 121.007812 L 548.796875 124.007812 L 545.796875 124.015625 M 551.789062 121.003906 L 554.785156 120.996094 L 554.792969 123.996094 L 551.792969 124 M 557.785156 120.988281 L 560.785156 120.980469 L 560.789062 123.980469 L 557.792969 123.988281 M 563.78125 120.976562 L 566.78125 120.96875 L 566.789062 123.96875 L 563.789062 123.972656 M 569.78125 120.960938 L 572.78125 120.953125 L 572.785156 123.953125 L 569.789062 123.960938 M 575.777344 120.949219 L 578.777344 120.941406 L 578.785156 123.941406 L 575.785156 123.945312 M 581.777344 120.933594 L 584.773438 120.925781 L 584.78125 123.925781 L 581.78125 123.933594 M 587.773438 120.921875 L 590.773438 120.914062 L 590.78125 123.914062 L 587.78125 123.917969 M 593.769531 120.90625 L 596.769531 120.902344 L 596.777344 123.898438 L 593.777344 123.90625 M 599.769531 120.894531 L 602.769531 120.886719 L 602.773438 123.886719 L 599.777344 123.894531 M 605.765625 120.878906 L 608.765625 120.875 L 608.773438 123.871094 L 605.773438 123.878906 M 611.765625 120.867188 L 614.761719 120.859375 L 614.769531 123.859375 L 611.769531 123.867188 M 617.761719 120.851562 L 620.761719 120.847656 L 620.769531 123.84375 L 617.769531 123.851562 M 623.761719 120.839844 L 626.757812 120.832031 L 626.765625 123.832031 L 623.765625 123.839844 M 629.757812 120.824219 L 632.757812 120.820312 L 632.761719 123.816406 L 629.765625 123.824219 M 635.753906 120.8125 L 638.753906 120.804688 L 638.761719 123.804688 L 635.761719 123.8125 M 641.753906 120.800781 L 644.753906 120.792969 L 644.757812 123.789062 L 641.761719 123.796875 M 647.75 120.785156 L 650.75 120.777344 L 650.757812 123.777344 L 647.757812 123.785156 M 653.75 120.773438 L 656.746094 120.765625 L 656.753906 123.765625 L 653.753906 123.769531 M 659.746094 120.757812 L 662.746094 120.75 L 662.753906 123.75 L 659.753906 123.757812 " fill-opacity="1" fill-rule="nonzero"/><g clip-path="url(#25621a76d5)"><path fill="#ffffff" d="M 341.496094 -196.753906 L 341.496094 -193.757812 L 338.496094 -193.757812 L 338.496094 -196.753906 M 341.496094 -190.757812 L 341.496094 -187.757812 L 338.496094 -187.757812 L 338.496094 -190.757812 M 341.496094 -184.761719 L 341.496094 -181.761719 L 338.496094 -181.761719 L 338.496094 -184.761719 M 341.496094 -178.761719 L 341.496094 -175.761719 L 338.496094 -175.761719 L 338.496094 -178.761719 M 341.496094 -172.765625 L 341.496094 -169.765625 L 338.496094 -169.765625 L 338.496094 -172.765625 M 341.496094 -166.765625 L 341.496094 -163.769531 L 338.496094 -163.769531 L 338.496094 -166.765625 M 341.496094 -160.769531 L 341.496094 -157.769531 L 338.496094 -157.769531 L 338.496094 -160.769531 M 341.496094 -154.773438 L 341.496094 -151.773438 L 338.496094 -151.773438 L 338.496094 -154.773438 M 341.496094 -148.773438 L 341.496094 -145.773438 L 338.496094 -145.773438 L 338.496094 -148.773438 M 341.496094 -142.777344 L 341.496094 -139.777344 L 338.496094 -139.777344 L 338.496094 -142.777344 M 341.496094 -136.777344 L 341.496094 -133.78125 L 338.496094 -133.78125 L 338.496094 -136.777344 M 341.496094 -130.78125 L 341.496094 -127.78125 L 338.496094 -127.78125 L 338.496094 -130.78125 M 341.496094 -124.78125 L 341.496094 -121.785156 L 338.496094 -121.785156 L 338.496094 -124.78125 M 341.496094 -118.785156 L 341.496094 -115.785156 L 338.496094 -115.785156 L 338.496094 -118.785156 M 341.496094 -112.789062 L 341.496094 -109.789062 L 338.496094 -109.789062 L 338.496094 -112.789062 M 341.496094 -106.789062 L 341.496094 -103.789062 L 338.496094 -103.789062 L 338.496094 -106.789062 M 341.496094 -100.792969 L 341.496094 -97.792969 L 338.496094 -97.792969 L 338.496094 -100.792969 M 341.496094 -94.792969 L 341.496094 -91.796875 L 338.496094 -91.796875 L 338.496094 -94.792969 M 341.496094 -88.796875 L 341.496094 -85.796875 L 338.496094 -85.796875 L 338.496094 -88.796875 M 341.496094 -82.796875 L 341.496094 -79.800781 L 338.496094 -79.800781 L 338.496094 -82.796875 M 341.496094 -76.800781 L 341.496094 -73.800781 L 338.496094 -73.800781 L 338.496094 -76.800781 M 341.496094 -70.804688 L 341.496094 -67.804688 L 338.496094 -67.804688 L 338.496094 -70.804688 M 341.496094 -64.804688 L 341.496094 -61.804688 L 338.496094 -61.804688 L 338.496094 -64.804688 M 341.496094 -58.808594 L 341.496094 -55.808594 L 338.496094 -55.808594 L 338.496094 -58.808594 M 341.496094 -52.808594 L 341.496094 -49.8125 L 338.496094 -49.8125 L 338.496094 -52.808594 M 341.496094 -46.8125 L 341.496094 -43.8125 L 338.496094 -43.8125 L 338.496094 -46.8125 M 341.496094 -40.8125 L 341.496094 -37.816406 L 338.496094 -37.816406 L 338.496094 -40.8125 M 341.496094 -34.816406 L 341.496094 -31.816406 L 338.496094 -31.816406 L 338.496094 -34.816406 M 341.496094 -28.820312 L 341.496094 -25.820312 L 338.496094 -25.820312 L 338.496094 -28.820312 M 341.496094 -22.820312 L 341.496094 -19.824219 L 338.496094 -19.824219 L 338.496094 -22.820312 M 341.496094 -16.824219 L 341.496094 -13.824219 L 338.496094 -13.824219 L 338.496094 -16.824219 M 341.496094 -10.824219 L 341.496094 -7.828125 L 338.496094 -7.828125 L 338.496094 -10.824219 M 341.496094 -4.828125 L 341.496094 -1.828125 L 338.496094 -1.828125 L 338.496094 -4.828125 M 341.496094 1.167969 L 341.496094 4.167969 L 338.496094 4.167969 L 338.496094 1.167969 M 341.496094 7.167969 L 341.496094 10.167969 L 338.496094 10.167969 L 338.496094 7.167969 M 341.496094 13.164062 L 341.496094 16.164062 L 338.496094 16.164062 L 338.496094 13.164062 M 341.496094 19.164062 L 341.496094 22.160156 L 338.496094 22.160156 L 338.496094 19.164062 M 341.496094 25.160156 L 341.496094 28.160156 L 338.496094 28.160156 L 338.496094 25.160156 M 341.496094 31.160156 L 341.496094 34.15625 L 338.496094 34.15625 L 338.496094 31.160156 M 341.496094 37.15625 L 341.496094 40.15625 L 338.496094 40.15625 L 338.496094 37.15625 M 341.496094 43.152344 L 341.496094 46.152344 L 338.496094 46.152344 L 338.496094 43.152344 M 341.496094 49.152344 L 341.496094 52.152344 L 338.496094 52.152344 L 338.496094 49.152344 M 341.496094 55.148438 L 341.496094 58.148438 L 338.496094 58.148438 L 338.496094 55.148438 M 341.496094 61.148438 L 341.496094 64.144531 L 338.496094 64.144531 L 338.496094 61.148438 M 341.496094 67.144531 L 341.496094 70.144531 L 338.496094 70.144531 L 338.496094 67.144531 M 341.496094 73.144531 L 341.496094 76.140625 L 338.496094 76.140625 L 338.496094 73.144531 M 341.496094 79.140625 L 341.496094 82.140625 L 338.496094 82.140625 L 338.496094 79.140625 M 341.496094 85.136719 L 341.496094 88.136719 L 338.496094 88.136719 L 338.496094 85.136719 M 341.496094 91.136719 L 341.496094 94.132812 L 338.496094 94.132812 L 338.496094 91.136719 M 341.496094 97.132812 L 341.496094 100.132812 L 338.496094 100.132812 L 338.496094 97.132812 M 341.496094 103.132812 L 341.496094 106.128906 L 338.496094 106.128906 L 338.496094 103.132812 M 341.496094 109.128906 L 341.496094 112.128906 L 338.496094 112.128906 L 338.496094 109.128906 M 341.496094 115.125 L 341.496094 118.125 L 338.496094 118.125 L 338.496094 115.125 M 341.496094 121.125 L 341.496094 124.125 L 338.496094 124.125 L 338.496094 121.125 M 341.496094 127.121094 L 341.496094 130.121094 L 338.496094 130.121094 L 338.496094 127.121094 M 341.496094 133.121094 L 341.496094 136.117188 L 338.496094 136.117188 L 338.496094 133.121094 M 341.496094 139.117188 L 341.496094 142.117188 L 338.496094 142.117188 L 338.496094 139.117188 M 341.496094 145.117188 L 341.496094 148.113281 L 338.496094 148.113281 L 338.496094 145.117188 M 341.496094 151.113281 L 341.496094 154.113281 L 338.496094 154.113281 L 338.496094 151.113281 M 341.496094 157.109375 L 341.496094 160.109375 L 338.496094 160.109375 L 338.496094 157.109375 M 341.496094 163.109375 L 341.496094 166.109375 L 338.496094 166.109375 L 338.496094 163.109375 M 341.496094 169.105469 L 341.496094 172.105469 L 338.496094 172.105469 L 338.496094 169.105469 M 341.496094 175.105469 L 341.496094 178.101562 L 338.496094 178.101562 L 338.496094 175.105469 M 341.496094 181.101562 L 341.496094 184.101562 L 338.496094 184.101562 L 338.496094 181.101562 M 341.496094 187.101562 L 341.496094 190.097656 L 338.496094 190.097656 L 338.496094 187.101562 M 341.496094 193.097656 L 341.496094 196.097656 L 338.496094 196.097656 L 338.496094 193.097656 M 341.496094 199.09375 L 341.496094 202.09375 L 338.496094 202.09375 L 338.496094 199.09375 M 341.496094 205.09375 L 341.496094 208.09375 L 338.496094 208.09375 L 338.496094 205.09375 M 341.496094 211.089844 L 341.496094 214.089844 L 338.496094 214.089844 L 338.496094 211.089844 M 341.496094 217.089844 L 341.496094 220.085938 L 338.496094 220.085938 L 338.496094 217.089844 M 341.496094 223.085938 L 341.496094 226.085938 L 338.496094 226.085938 L 338.496094 223.085938 M 341.496094 229.082031 L 341.496094 232.082031 L 338.496094 232.082031 L 338.496094 229.082031 M 341.496094 235.082031 L 341.496094 238.082031 L 338.496094 238.082031 L 338.496094 235.082031 M 341.496094 241.078125 L 341.496094 244.078125 L 338.496094 244.078125 L 338.496094 241.078125 M 341.496094 247.078125 L 341.496094 250.074219 L 338.496094 250.074219 L 338.496094 247.078125 M 341.496094 253.074219 L 341.496094 256.074219 L 338.496094 256.074219 L 338.496094 253.074219 M 341.496094 259.074219 L 341.496094 262.070312 L 338.496094 262.070312 L 338.496094 259.074219 M 341.496094 265.070312 L 341.496094 268.070312 L 338.496094 268.070312 L 338.496094 265.070312 M 341.496094 271.066406 L 341.496094 274.066406 L 338.496094 274.066406 L 338.496094 271.066406 M 341.496094 277.066406 L 341.496094 280.066406 L 338.496094 280.066406 L 338.496094 277.066406 M 341.496094 283.0625 L 341.496094 286.0625 L 338.496094 286.0625 L 338.496094 283.0625 M 341.496094 289.0625 L 341.496094 292.058594 L 338.496094 292.058594 L 338.496094 289.0625 M 341.496094 295.058594 L 341.496094 298.058594 L 338.496094 298.058594 L 338.496094 295.058594 M 341.496094 301.058594 L 341.496094 304.054688 L 338.496094 304.054688 L 338.496094 301.058594 M 341.496094 307.054688 L 341.496094 310.054688 L 338.496094 310.054688 L 338.496094 307.054688 M 341.496094 313.050781 L 341.496094 316.050781 L 338.496094 316.050781 L 338.496094 313.050781 M 341.496094 319.050781 L 341.496094 322.050781 L 338.496094 322.050781 L 338.496094 319.050781 M 341.496094 325.046875 L 341.496094 328.046875 L 338.496094 328.046875 L 338.496094 325.046875 M 341.496094 331.046875 L 341.496094 334.042969 L 338.496094 334.042969 L 338.496094 331.046875 M 341.496094 337.042969 L 341.496094 340.042969 L 338.496094 340.042969 L 338.496094 337.042969 M 341.496094 343.039062 L 341.496094 346.039062 L 338.496094 346.039062 L 338.496094 343.039062 M 341.496094 349.039062 L 341.496094 352.039062 L 338.496094 352.039062 L 338.496094 349.039062 M 341.496094 355.035156 L 341.496094 358.035156 L 338.496094 358.035156 L 338.496094 355.035156 M 341.496094 361.035156 L 341.496094 364.03125 L 338.496094 364.03125 L 338.496094 361.035156 M 341.496094 367.03125 L 341.496094 370.03125 L 338.496094 370.03125 L 338.496094 367.03125 M 341.496094 373.03125 L 341.496094 376.027344 L 338.496094 376.027344 L 338.496094 373.03125 M 341.496094 379.027344 L 341.496094 382.027344 L 338.496094 382.027344 L 338.496094 379.027344 M 341.496094 385.023438 L 341.496094 388.023438 L 338.496094 388.023438 L 338.496094 385.023438 M 341.496094 391.023438 L 341.496094 394.023438 L 338.496094 394.023438 L 338.496094 391.023438 M 341.496094 397.019531 L 341.496094 400.019531 L 338.496094 400.019531 L 338.496094 397.019531 M 341.496094 403.019531 L 341.496094 406.015625 L 338.496094 406.015625 L 338.496094 403.019531 M 341.496094 409.015625 L 341.496094 412.015625 L 338.496094 412.015625 L 338.496094 409.015625 M 341.496094 415.015625 L 341.496094 418.011719 L 338.496094 418.011719 L 338.496094 415.015625 M 341.496094 421.011719 L 341.496094 424.011719 L 338.496094 424.011719 L 338.496094 421.011719 M 341.496094 427.007812 L 341.496094 430.007812 L 338.496094 430.007812 L 338.496094 427.007812 M 341.496094 433.007812 L 341.496094 436.007812 L 338.496094 436.007812 L 338.496094 433.007812 M 341.496094 439.003906 L 341.496094 442.003906 L 338.496094 442.003906 L 338.496094 439.003906 M 341.496094 445.003906 L 341.496094 448 L 338.496094 448 L 338.496094 445.003906 M 341.496094 451 L 341.496094 454 L 338.496094 454 L 338.496094 451 M 341.496094 457 L 341.496094 459.996094 L 338.496094 459.996094 L 338.496094 457 M 341.496094 462.996094 L 341.496094 465.996094 L 338.496094 465.996094 L 338.496094 462.996094 " fill-opacity="1" fill-rule="nonzero"/></g></svg>