<svg width="32" height="35" viewBox="0 0 32 35" fill="none" xmlns="http://www.w3.org/2000/svg">
<path d="M30 17.4048C30 17.3296 30 17.2441 29.9969 17.145C29.9938 16.8682 29.9875 16.5571 29.9813 16.2256C29.9563 15.272 29.9125 14.3218 29.8438 13.4263C29.75 12.1924 29.6125 11.1636 29.425 10.3911C29.2271 9.58498 28.8393 8.84978 28.3002 8.25897C27.7612 7.66817 27.0898 7.24247 26.3531 7.02441C25.4688 6.76465 23.7375 6.604 21.3 6.50488C20.1406 6.45703 18.9 6.42627 17.6594 6.40918C17.225 6.40234 16.8219 6.39893 16.4594 6.39551H15.5406C15.1781 6.39893 14.775 6.40234 14.3406 6.40918C13.1 6.42627 11.8594 6.45703 10.7 6.50488C8.2625 6.60742 6.52812 6.76807 5.64687 7.02441C4.91 7.24193 4.23834 7.66745 3.6992 8.25834C3.16006 8.84923 2.77238 9.58472 2.575 10.3911C2.38438 11.1636 2.25 12.1924 2.15625 13.4263C2.0875 14.3218 2.04375 15.272 2.01875 16.2256C2.00937 16.5571 2.00625 16.8682 2.00312 17.145C2.00312 17.2441 2 17.3296 2 17.4048V17.5962C2 17.6714 2 17.7568 2.00312 17.856C2.00625 18.1328 2.0125 18.4438 2.01875 18.7754C2.04375 19.729 2.0875 20.6792 2.15625 21.5747C2.25 22.8086 2.3875 23.8374 2.575 24.6099C2.975 26.2471 4.15 27.5391 5.64687 27.9766C6.52812 28.2363 8.2625 28.397 10.7 28.4961C11.8594 28.5439 13.1 28.5747 14.3406 28.5918C14.775 28.5986 15.1781 28.6021 15.5406 28.6055H16.4594C16.8219 28.6021 17.225 28.5986 17.6594 28.5918C18.9 28.5747 20.1406 28.5439 21.3 28.4961C23.7375 28.3936 25.4719 28.2329 26.3531 27.9766C27.85 27.5391 29.025 26.2505 29.425 24.6099C29.6156 23.8374 29.75 22.8086 29.8438 21.5747C29.9125 20.6792 29.9563 19.729 29.9813 18.7754C29.9906 18.4438 29.9938 18.1328 29.9969 17.856C29.9969 17.7568 30 17.6714 30 17.5962V17.4048ZM27.75 17.5825C27.75 17.6543 27.75 17.7329 27.7469 17.8252C27.7438 18.0918 27.7375 18.3857 27.7313 18.7036C27.7094 19.6128 27.6656 20.522 27.6 21.3662C27.5156 22.4668 27.3969 23.3691 27.25 23.9741C27.0562 24.7637 26.4875 25.3892 25.7687 25.5977C25.1125 25.7891 23.4594 25.9429 21.2125 26.0352C20.075 26.083 18.85 26.1138 17.6281 26.1309C17.2 26.1377 16.8031 26.1411 16.4469 26.1411H15.5531L14.3719 26.1309C13.15 26.1138 11.9281 26.083 10.7875 26.0352C8.54063 25.9395 6.88437 25.7891 6.23125 25.5977C5.5125 25.3857 4.94375 24.7637 4.75 23.9741C4.60313 23.3691 4.48438 22.4668 4.4 21.3662C4.33438 20.522 4.29375 19.6128 4.26875 18.7036C4.25938 18.3857 4.25625 18.0884 4.25313 17.8252C4.25313 17.7329 4.25 17.6509 4.25 17.5825V17.4185C4.25 17.3467 4.25 17.2681 4.25313 17.1758C4.25625 16.9092 4.2625 16.6152 4.26875 16.2974C4.29063 15.3882 4.33438 14.479 4.4 13.6348C4.48438 12.5342 4.60313 11.6318 4.75 11.0269C4.94375 10.2373 5.5125 9.61182 6.23125 9.40332C6.8875 9.21191 8.54063 9.0581 10.7875 8.96582C11.925 8.91797 13.15 8.88721 14.3719 8.87012C14.8 8.86328 15.1969 8.85986 15.5531 8.85986H16.4469L17.6281 8.87012C18.85 8.88721 20.0719 8.91797 21.2125 8.96582C23.4594 9.06152 25.1156 9.21191 25.7687 9.40332C26.4875 9.61523 27.0562 10.2373 27.25 11.0269C27.3969 11.6318 27.5156 12.5342 27.6 13.6348C27.6656 14.479 27.7063 15.3882 27.7313 16.2974C27.7406 16.6152 27.7438 16.9126 27.7469 17.1758C27.7469 17.2681 27.75 17.3501 27.75 17.4185V17.5825ZM13.2188 22.0806L20.4688 17.4663L13.2188 12.9204V22.0806Z" fill="white"/>
</svg>
