<svg width="24" height="24" viewBox="0 0 24 24" fill="none" xmlns="http://www.w3.org/2000/svg">
<g clip-path="url(#clip0_617_1316)">
<path d="M4.5 6.75004H12V3.00004C12 2.85172 12.044 2.70675 12.1264 2.58344C12.2089 2.46014 12.326 2.36403 12.463 2.30728C12.6 2.25053 12.7508 2.23568 12.8963 2.2646C13.0417 2.29353 13.1754 2.36493 13.2803 2.46979L22.2803 11.4698C22.3499 11.5394 22.4052 11.6221 22.4429 11.713C22.4806 11.804 22.5 11.9015 22.5 12C22.5 12.0985 22.4806 12.196 22.4429 12.287C22.4052 12.378 22.3499 12.4607 22.2803 12.5303L13.2803 21.5303C13.1754 21.6351 13.0417 21.7065 12.8963 21.7355C12.7508 21.7644 12.6 21.7495 12.463 21.6928C12.326 21.636 12.2089 21.5399 12.1264 21.4166C12.044 21.2933 12 21.1484 12 21V17.25H4.5C4.10232 17.2496 3.72105 17.0914 3.43984 16.8102C3.15864 16.529 3.00046 16.1477 3 15.75L3 8.25004C3.00054 7.85238 3.15874 7.47116 3.43993 7.18997C3.72112 6.90878 4.10234 6.75057 4.5 6.75004ZM20.6894 12L13.5 4.81061L13.5 8.25004H4.5L4.5 15.75H13.5V19.1895L20.6894 12Z" fill="#003A72"/>
</g>
<defs>
<clipPath id="clip0_617_1316">
<rect width="24" height="24" fill="white" transform="matrix(0 -1 1 0 0 24)"/>
</clipPath>
</defs>
</svg>
