<svg width="37" height="37" viewBox="0 0 37 37" fill="none" xmlns="http://www.w3.org/2000/svg">
<path d="M33.7195 1.39648H3.28406C2.24158 1.39648 1.39648 2.24158 1.39648 3.28406V33.7195C1.39648 34.7619 2.24158 35.607 3.28406 35.607H33.7195C34.7619 35.607 35.607 34.7619 35.607 33.7195V3.28406C35.607 2.24158 34.7619 1.39648 33.7195 1.39648Z" fill="#3D5A98"/>
<path d="M24.9986 35.6051V22.3574H29.4444L30.1092 17.1947H24.9986V13.8994C24.9986 12.4049 25.4148 11.3845 27.5568 11.3845H30.2913V6.75954C28.9672 6.62179 27.6365 6.55617 26.3052 6.56298C22.3681 6.56298 19.6567 8.9622 19.6567 13.3877V17.1947H15.2109V22.3574H19.6567V35.6051H24.9986Z" fill="white"/>
</svg>
