<svg width="37" height="37" viewBox="0 0 37 37" fill="none" xmlns="http://www.w3.org/2000/svg">
<g clip-path="url(#clip0_1_1703)">
<path d="M33.5312 0.867321H3.46875C2.78665 0.860379 2.12966 1.12431 1.64193 1.6012C1.1542 2.07809 0.875574 2.72899 0.867188 3.41107V33.595C0.87709 34.2761 1.15638 34.9255 1.64395 35.4011C2.13151 35.8768 2.78764 36.1399 3.46875 36.1329H33.5312C34.2134 36.1384 34.8699 35.8735 35.3574 35.3963C35.8449 34.9192 36.1237 34.2684 36.1328 33.5863V3.4024C36.1206 2.72232 35.8405 2.07452 35.3534 1.59982C34.8662 1.12512 34.2114 0.86188 33.5312 0.867321Z" fill="#0076B2"/>
<path d="M6.08764 14.0859H11.3226V30.9296H6.08764V14.0859ZM8.70654 5.70313C9.30696 5.70313 9.89389 5.88121 10.3931 6.21484C10.8923 6.54848 11.2813 7.02268 11.5109 7.57745C11.7406 8.13222 11.8005 8.74263 11.6832 9.33147C11.5658 9.92032 11.2765 10.4611 10.8517 10.8855C10.4269 11.3098 9.88585 11.5987 9.2969 11.7155C8.70795 11.8323 8.09759 11.7717 7.54304 11.5416C6.98848 11.3114 6.51466 10.9219 6.1815 10.4224C5.84834 9.92291 5.67082 9.33581 5.67139 8.73539C5.67215 7.93092 5.99227 7.15966 6.56139 6.59108C7.1305 6.0225 7.90207 5.70312 8.70654 5.70313ZM14.6063 14.0859H19.6244V16.3984H19.6938C20.3933 15.0745 22.0988 13.6784 24.6455 13.6784C29.9469 13.6668 30.9297 17.1558 30.9297 21.6796V30.9296H25.6947V22.7347C25.6947 20.7835 25.6601 18.2716 22.9747 18.2716C20.2893 18.2716 19.8326 20.3991 19.8326 22.6075V30.9296H14.6063V14.0859Z" fill="white"/>
</g>
<defs>
<clipPath id="clip0_1_1703">
<rect width="37" height="37" fill="white"/>
</clipPath>
</defs>
</svg>
