<svg width="27" height="27" viewBox="0 0 27 27" fill="none" xmlns="http://www.w3.org/2000/svg">
<path fill-rule="evenodd" clip-rule="evenodd" d="M13.5 2.25C10.4445 2.25 10.062 2.2635 8.86162 2.3175C7.66462 2.37262 6.84675 2.56275 6.13125 2.84063C5.3803 3.12283 4.69997 3.5655 4.13775 4.13775C3.56553 4.7 3.12286 5.38031 2.84063 6.13125C2.56275 6.84675 2.37262 7.66462 2.3175 8.86162C2.26237 10.062 2.25 10.4445 2.25 13.5C2.25 16.5555 2.26237 16.938 2.3175 18.1384C2.37262 19.3354 2.56275 20.1532 2.84063 20.8687C3.12289 21.6197 3.56555 22.3 4.13775 22.8623C4.70002 23.4344 5.38033 23.8771 6.13125 24.1594C6.84675 24.4373 7.66462 24.6274 8.86162 24.6825C10.062 24.7365 10.4445 24.75 13.5 24.75C16.5555 24.75 16.938 24.7365 18.1384 24.6825C19.3354 24.6274 20.1532 24.4373 20.8687 24.1594C21.6197 23.8771 22.3 23.4345 22.8623 22.8623C23.4345 22.3 23.8771 21.6197 24.1594 20.8687C24.4373 20.1532 24.6274 19.3354 24.6825 18.1384C24.7365 16.938 24.75 16.5555 24.75 13.5C24.75 10.4445 24.7365 10.062 24.6825 8.86162C24.6274 7.66462 24.4373 6.84675 24.1594 6.13125C23.8771 5.38031 23.4345 4.7 22.8623 4.13775C22.3 3.5655 21.6197 3.12283 20.8687 2.84063C20.1532 2.56275 19.3354 2.37262 18.1384 2.3175C16.938 2.2635 16.5555 2.25 13.5 2.25ZM13.5 4.27725C16.5037 4.27725 16.8593 4.2885 18.045 4.3425C19.143 4.39312 19.7381 4.57538 20.1353 4.7295C20.6595 4.93425 21.0352 5.17838 21.429 5.571C21.8228 5.96475 22.0658 6.3405 22.2705 6.86475C22.4235 7.26188 22.608 7.857 22.6575 8.95388C22.7115 10.1407 22.7227 10.4951 22.7227 13.5C22.7227 16.5037 22.7115 16.8593 22.6575 18.045C22.6069 19.143 22.4235 19.7381 22.2705 20.1353C22.0901 20.6239 21.8026 21.066 21.429 21.429C21.0352 21.8228 20.6595 22.0658 20.1353 22.2705C19.7381 22.4235 19.143 22.608 18.0461 22.6575C16.8604 22.7115 16.5049 22.7227 13.5 22.7227C10.4963 22.7227 10.1396 22.7115 8.955 22.6575C7.857 22.6069 7.26188 22.4235 6.86475 22.2705C6.37603 22.0902 5.93395 21.8027 5.571 21.429C5.19734 21.0661 4.90979 20.624 4.7295 20.1353C4.57538 19.7381 4.392 19.143 4.3425 18.0461C4.2885 16.8593 4.27725 16.5049 4.27725 13.5C4.27725 10.4963 4.2885 10.1407 4.3425 8.955C4.39312 7.857 4.57538 7.26188 4.7295 6.86475C4.93425 6.3405 5.17838 5.96475 5.571 5.571C5.96475 5.17725 6.3405 4.93425 6.86475 4.7295C7.26188 4.57538 7.857 4.392 8.95388 4.3425C10.1407 4.2885 10.4951 4.27725 13.5 4.27725ZM13.5 17.2496C12.5055 17.2496 11.5518 16.8546 10.8486 16.1514C10.1454 15.4482 9.75037 14.4945 9.75037 13.5C9.75037 12.5055 10.1454 11.5518 10.8486 10.8486C11.5518 10.1454 12.5055 9.75037 13.5 9.75037C14.4945 9.75037 15.4482 10.1454 16.1514 10.8486C16.8546 11.5518 17.2496 12.5055 17.2496 13.5C17.2496 14.4945 16.8546 15.4482 16.1514 16.1514C15.4482 16.8546 14.4945 17.2496 13.5 17.2496ZM13.5 7.72312C12.7414 7.72312 11.9902 7.87255 11.2893 8.16286C10.5884 8.45318 9.95156 8.8787 9.41513 9.41513C8.8787 9.95157 8.45318 10.5884 8.16286 11.2893C7.87255 11.9902 7.72312 12.7414 7.72312 13.5C7.72312 14.2586 7.87255 15.0098 8.16286 15.7107C8.45318 16.4116 8.8787 17.0484 9.41513 17.5849C9.95156 18.1213 10.5884 18.5468 11.2893 18.8371C11.9902 19.1275 12.7414 19.2769 13.5 19.2769C15.0321 19.2769 16.5015 18.6682 17.5849 17.5849C18.6682 16.5015 19.2769 15.0321 19.2769 13.5C19.2769 11.9679 18.6682 10.4985 17.5849 9.41513C16.5015 8.33176 15.0321 7.72312 13.5 7.72312ZM20.8552 7.49475C20.8552 7.67203 20.8203 7.84758 20.7525 8.01137C20.6846 8.17516 20.5852 8.32399 20.4598 8.44934C20.3345 8.5747 20.1857 8.67414 20.0219 8.74199C19.8581 8.80983 19.6825 8.84475 19.5052 8.84475C19.328 8.84475 19.1524 8.80983 18.9886 8.74199C18.8248 8.67414 18.676 8.5747 18.5507 8.44934C18.4253 8.32399 18.3259 8.17516 18.258 8.01137C18.1902 7.84758 18.1553 7.67203 18.1553 7.49475C18.1553 7.13671 18.2975 6.79333 18.5507 6.54016C18.8038 6.28698 19.1472 6.14475 19.5052 6.14475C19.8633 6.14475 20.2067 6.28698 20.4598 6.54016C20.713 6.79333 20.8552 7.13671 20.8552 7.49475Z" fill="white"/>
</svg>
