<svg width="472" height="332" viewBox="0 0 472 332" fill="none" xmlns="http://www.w3.org/2000/svg">
<path d="M171.976 177.241C166.378 179.065 160.641 179.364 154.767 178.136C148.328 176.555 143.41 173.58 140.013 169.212C138.782 167.639 137.766 166.175 136.966 164.82C136.139 163.384 135.554 162.139 135.21 161.084C134.364 158.488 134.875 156.885 136.741 156.277C137.309 156.092 137.726 156.271 137.992 156.812C138.9 158.222 139.688 159.401 140.356 160.35C141.024 161.299 141.586 162.058 142.041 162.628C142.816 163.632 143.687 164.515 144.654 165.277C145.62 166.039 146.614 166.747 147.635 167.402C152.849 170.46 158.661 170.944 165.071 168.856C166.207 168.486 167.466 167.806 168.849 166.817C170.394 165.775 171.289 165.215 171.532 165.135C171.802 165.137 171.963 165.219 172.016 165.381C172.492 166.842 169.647 168.577 163.481 170.586C154.718 173.441 147.979 172.316 143.264 167.21C151.675 176.496 161.073 179.448 171.458 176.064C182.655 172.416 189.859 164.639 193.07 152.733C194.094 148.989 194.761 144.15 195.071 138.215C195.354 132.199 195.322 125.075 194.973 116.842C194.135 117.025 193.094 117.275 191.851 117.59C190.662 117.798 189.338 118.005 187.88 118.211C190.165 127.428 188.383 135.593 182.532 142.704C182.781 141.815 182.734 140.843 182.39 139.789C182.179 139.14 181.19 137.757 179.423 135.64C179.238 135.072 179.163 134.154 179.199 132.886C179.234 131.618 179.469 130.823 179.903 130.502L180.226 130.666C182.717 133.355 184.082 135.064 184.32 135.794C184.426 136.119 184.438 136.294 184.357 136.321L183.605 139.797C187.564 132.943 188.435 125.838 186.218 118.483C179.978 119.439 175.114 120.485 171.625 121.622C165.459 123.631 160.783 126.635 157.599 130.634L157.237 130.349L160.14 126.037C162.567 122.195 167.23 119.15 174.126 116.903C175.505 116.454 177.073 116.032 178.83 115.64C180.587 115.247 182.532 114.882 184.666 114.546C183.602 112.38 182.373 110.536 180.98 109.016C179.642 107.388 178.154 105.988 176.515 104.816C172.703 101.93 168.971 101.082 165.32 102.271C164.833 102.43 164.224 102.763 163.492 103.271C162.841 103.752 162.313 104.059 161.907 104.191C161.664 104.27 161.515 104.229 161.463 104.066C161.04 102.768 162.329 101.63 165.331 100.652C169.713 99.2246 174.024 100.063 178.267 103.169C181.757 105.891 184.512 109.525 186.532 114.073C187.451 113.863 188.558 113.682 189.855 113.529C191.206 113.268 192.786 113.022 194.595 112.792C194.283 107.15 194.14 102.305 194.168 98.2571C194.169 94.1283 194.327 90.7562 194.641 88.1408C191.911 88.8509 188.83 89.4506 185.4 89.9401C182.051 90.4031 178.378 90.837 174.381 91.2416L153.846 93.0857C149.795 93.598 146.121 94.1667 142.825 94.792C139.609 95.3909 136.744 96.1 134.229 96.9195C127.981 98.955 123.685 101.746 121.341 105.292C119.486 108.14 118.969 110.821 119.788 113.337C121.216 117.718 125.013 118.904 131.179 116.895C131.422 116.816 131.557 116.817 131.584 116.898C131.689 117.222 130.741 117.756 128.739 118.498C128.577 118.55 128.441 118.684 128.332 118.9C128.196 119.034 128.006 119.14 127.763 119.22C127.357 119.352 126.75 119.415 125.94 119.41C122.432 119.386 120.136 117.711 119.053 114.384C118.762 113.492 118.579 112.519 118.506 111.466C118.513 110.387 118.696 109.295 119.054 108.191C121.432 99.7876 127.651 93.947 137.712 90.669C139.74 90.0082 141.943 89.4699 144.321 89.0543C146.753 88.5311 149.387 88.0767 152.223 87.6911C157.056 87.3731 163.037 86.8605 170.165 86.1533C177.376 85.4196 185.788 84.5187 195.402 83.4505L196.111 80.2575C196.856 77.8609 198.181 75.4547 200.087 73.0389C202.262 70.625 204.445 69.0612 206.636 68.3474C207.771 67.9773 209.189 67.9195 210.887 68.1739C212.666 68.4018 213.741 69.0837 214.111 70.2196C214.402 71.1121 214.182 71.6773 213.452 71.9153C213.29 71.9681 212.402 71.5843 210.788 70.7638C209.311 69.8093 207.882 69.5567 206.503 70.0061C203.582 70.9578 201.833 74.1302 201.257 79.5234L200.915 82.1926C201.996 81.9301 203.024 81.6402 203.997 81.323C205.052 80.9793 205.985 80.6753 206.797 80.411C212.476 78.5605 215.904 76.4115 217.081 73.9638C217.987 71.7841 218.096 69.6395 217.408 67.53C217.038 66.3941 216.383 65.4856 215.443 64.8046C214.477 64.0425 213.994 63.6614 213.994 63.6614C213.862 63.2557 214.039 62.9736 214.526 62.815C215.986 62.3391 217.272 63.8051 218.382 67.2128C221.078 75.4886 215.557 81.8197 201.819 86.2061L200.845 86.5233C200.759 87.3592 200.728 89.8822 200.754 94.0921C200.834 98.1944 200.916 103.956 201.001 111.378L203.556 110.545C205.666 109.858 207.506 109.034 209.078 108.073C210.731 107.086 212.169 105.989 213.391 104.783C213.716 104.677 213.904 104.706 213.957 104.868C214.38 106.166 213.22 108.115 210.477 110.714C209.419 111.597 208.253 112.426 206.979 113.199C205.76 113.866 204.42 114.437 202.96 114.913C202.635 115.019 202.311 115.124 201.986 115.23C201.662 115.336 201.324 115.401 200.973 115.426C201.107 123.549 200.761 130.752 199.936 137.034C199.166 143.208 198.023 148.517 196.509 152.959C191.918 165.314 183.741 173.408 171.976 177.241ZM234.85 150.698C231.523 151.782 228.339 151.787 225.297 150.714C222.309 149.534 220.181 146.996 218.912 143.102C217.511 138.802 217.49 133.917 218.85 128.448C219.544 125.619 220.721 123.172 222.381 121.105C224.014 118.957 225.643 117.619 227.265 117.09C229.618 116.324 231.257 117.36 232.183 120.2C232.976 122.634 232.318 126.124 230.209 130.671C228.212 134.732 226.059 137.767 223.752 139.775C223.776 140.126 223.814 140.517 223.865 140.949C223.971 141.274 224.09 141.639 224.222 142.045C225.887 147.156 229.763 148.721 235.848 146.738C239.337 145.601 242.239 143.489 244.553 140.402C246.923 137.207 248.794 133.86 250.167 130.361C250.414 129.742 250.7 129.379 251.024 129.274C251.349 129.168 251.564 129.277 251.67 129.602C251.775 129.926 251.759 130.425 251.619 131.099C251.453 131.692 251.315 132.096 251.206 132.311C250.489 134.519 249.626 136.55 248.615 138.405C247.685 140.234 246.255 142.181 244.325 144.246C242.965 145.855 241.431 147.208 239.723 148.303C238.097 149.371 236.472 150.17 234.85 150.698ZM223.406 137.06C224.276 136.149 225.078 135.169 225.814 134.122C226.604 132.967 227.315 131.703 227.945 130.331C229.289 127.021 229.644 124.393 229.01 122.445C228.613 121.228 228.05 120.739 227.32 120.977C226.671 121.188 226.004 122.034 225.319 123.513C224.689 124.885 224.192 126.528 223.829 128.442C223.318 132.108 223.177 134.981 223.406 137.06ZM266.702 140.32C263.375 141.404 260.191 141.41 257.149 140.337C254.161 139.156 252.033 136.618 250.764 132.724C249.363 128.424 249.342 123.539 250.702 118.07C251.396 115.242 252.573 112.794 254.233 110.727C255.866 108.58 257.495 107.241 259.117 106.713C261.47 105.946 263.109 106.983 264.035 109.822C264.828 112.256 264.17 115.747 262.061 120.293C260.064 124.354 257.911 127.389 255.604 129.397C255.628 129.748 255.666 130.14 255.717 130.572C255.823 130.896 255.942 131.261 256.074 131.667C257.74 136.779 261.615 138.343 267.7 136.36C271.189 135.224 274.091 133.112 276.405 130.024C278.775 126.829 280.646 123.482 282.019 119.983C282.266 119.364 282.552 119.002 282.876 118.896C283.201 118.79 283.416 118.899 283.522 119.224C283.627 119.549 283.611 120.048 283.471 120.721C283.305 121.314 283.167 121.718 283.058 121.933C282.341 124.141 281.478 126.172 280.467 128.028C279.537 129.856 278.107 131.803 276.177 133.868C274.817 135.478 273.283 136.83 271.575 137.925C269.949 138.993 268.324 139.792 266.702 140.32ZM255.258 126.683C256.128 125.771 256.93 124.792 257.666 123.744C258.456 122.589 259.167 121.326 259.797 119.954C261.141 116.644 261.496 114.015 260.862 112.068C260.466 110.851 259.902 110.361 259.172 110.599C258.523 110.81 257.856 111.656 257.171 113.135C256.541 114.507 256.044 116.15 255.681 118.064C255.17 121.73 255.029 124.603 255.258 126.683ZM298.834 130.39C290.639 133.06 284.573 128.35 280.634 116.261C276.774 104.415 276.479 90.2863 279.747 73.8744C282.88 57.5964 287.854 48.3472 294.67 46.1267C297.104 45.3336 299.268 46.4682 301.164 49.5304L301.679 51.1125C303.582 56.9543 302.291 68.2794 297.805 85.0879C295.948 92.3343 294.043 98.7439 292.089 104.317C290.216 109.863 288.322 114.653 286.406 118.688C289.758 125.673 294.315 128.227 300.076 126.35C303.565 125.214 306.209 123.275 308.008 120.535C309.782 117.713 311.492 114.15 313.141 109.843C313.469 109.198 313.714 108.848 313.876 108.796C314.12 108.716 314.308 108.879 314.44 109.285C314.625 109.853 314.579 110.676 314.302 111.753C312.267 117.353 310.012 121.587 307.537 124.458C305.061 127.329 302.161 129.306 298.834 130.39ZM285.536 115.606C288.516 109.878 291.461 99.4955 294.369 84.4574C297.419 68.4757 298.111 57.9291 296.446 52.8176C295.706 50.5458 294.686 49.6214 293.388 50.0443C288.358 51.6833 284.99 60.768 283.286 77.2985C282.61 85.4165 282.413 92.6608 282.694 99.0312C283.055 105.375 284.003 110.9 285.536 115.606ZM97.8563 187.895C97.0185 188.078 95.5668 185.275 93.5012 179.486C93.2971 177.758 93.2588 175.437 93.3866 172.523C93.4878 169.528 93.8494 165.955 94.4712 161.804C94.9052 161.483 95.2438 161.283 95.4872 161.203C96.9477 160.728 98.1669 161.991 99.145 164.993C98.7566 166.555 98.3815 168.158 98.0195 169.802C97.6311 171.364 97.2833 172.914 96.976 174.45C96.16 179.383 96.4534 183.864 97.8563 187.895ZM89.6697 278.874C77.256 282.919 66.6766 283.09 57.9314 279.388C50.6941 276.181 45.8066 270.683 43.2688 262.894C40.4138 254.132 41.6981 245.816 47.1216 237.946C51.9734 230.8 58.5646 225.826 66.8951 223.022C73.8728 220.749 79.931 220.749 85.0698 223.024C89.616 225.132 92.6557 228.54 94.189 233.246C95.7486 238.033 95.3798 242.685 93.0823 247.203C90.4039 252.204 86.0626 255.683 80.0586 257.639C79.3283 257.877 78.9236 257.874 78.8443 257.631C78.6857 257.144 78.9583 256.741 79.662 256.422C82.0733 255.008 84.1213 253.443 85.8061 251.728C87.5719 249.986 88.9075 248.025 89.8128 245.845C91.5933 241.944 91.8359 238.006 90.5406 234.03C89.1131 229.649 86.3679 226.595 82.3048 224.867C78.0813 222.922 73.292 222.822 67.9371 224.567C60.6349 226.946 55.005 231.428 51.0475 238.013C46.6824 244.999 45.7688 252.387 48.3065 260.176C50.7914 267.803 55.0996 273.175 61.2312 276.293C68.4365 280.228 77.3942 280.451 88.1041 276.961C98.5706 273.551 106.315 267.572 111.339 259.025C116.879 249.861 117.997 240.207 114.692 230.066C112.287 222.682 107.161 216.589 99.3134 211.787L81.6066 202.478C78.3531 200.756 75.7618 198.863 73.8329 196.799C71.9586 194.627 70.6514 192.405 69.9112 190.134C68.2723 185.103 68.911 180.453 71.8274 176.182C74.5815 171.964 78.4332 169.048 83.3825 167.436C85.3297 166.801 87.3695 166.451 89.5018 166.385C91.6341 166.318 92.8324 166.69 93.0968 167.502C93.229 167.907 93.0516 168.19 92.5648 168.348C92.3214 168.428 91.2288 168.38 89.2871 168.205C87.7227 168.086 86.2103 168.265 84.7499 168.74C81.0988 169.93 78.2896 172.326 76.3222 175.929C74.4624 179.586 74.114 183.2 75.2772 186.77C76.5989 190.827 79.8273 194.262 84.9625 197.077L101.143 204.594C106.308 206.95 110.525 209.974 113.792 213.666C117.114 217.25 119.541 221.396 121.074 226.101C124.617 236.974 122.965 247.743 116.119 258.41C109.683 268.405 100.866 275.226 89.6697 278.874ZM105.994 229.399C105.641 229.694 105.359 229.516 105.148 228.867C103.285 225.077 100.34 221.549 96.3144 218.283C96.5486 219.553 96.7546 221.012 96.9323 222.659C95.4701 223.405 93.919 223.327 92.279 222.425C92.0374 222.234 91.7156 221.935 91.3136 221.528C90.9927 221.094 90.7265 220.553 90.515 219.903L90.2375 219.051C89.9467 218.159 89.8701 217.511 90.0078 217.107C92.1082 217.769 93.6866 217.793 94.7432 217.18C92.0048 215.11 89.0616 213.377 85.9138 211.979C82.7396 210.5 79.4418 209.331 76.0205 208.471C68.9344 206.831 63.1196 206.751 58.576 208.231C53.7079 209.818 51.0017 212.943 50.4573 217.608C51.1383 216.668 51.9251 216.053 52.8175 215.762C53.7912 215.445 54.8168 215.425 55.8943 215.702C57.8871 216.309 59.0808 217.356 59.4755 218.843C58.2622 218.7 57.047 218.826 55.8299 219.223C53.5581 219.963 52.2121 221.479 51.7917 223.77C50.4499 222.681 49.6203 221.65 49.3031 220.676C48.9066 219.459 48.9855 217.773 49.5398 215.618C50.6238 210.957 53.6405 207.82 58.5898 206.208C65.9731 203.802 74.7894 204.968 85.0387 209.706C90.2586 211.954 94.7474 214.576 98.505 217.569C102.236 220.482 104.763 223.967 106.084 228.024L106.203 228.389C106.336 228.794 106.266 229.131 105.994 229.399ZM166.335 235.587C164.064 236.327 162.204 235.991 160.756 234.578C159.309 233.165 158.069 230.876 157.038 227.712C156.906 227.306 156.774 226.9 156.642 226.495C156.483 226.008 156.378 225.548 156.327 225.116C155.877 227.866 154.643 230.826 152.624 233.996C150.494 237.652 148.294 239.85 146.022 240.59C144.562 241.066 142.986 240.637 141.295 239.303C139.874 237.971 138.899 236.494 138.37 234.871C137.471 232.112 137.143 228.764 137.386 224.826C137.419 219.969 138.571 217.17 140.843 216.43C141.654 216.165 142.272 216.547 142.697 217.576C141.304 224.043 141.136 228.899 142.193 232.144C143.224 235.309 144.713 236.574 146.661 235.939C150.799 234.591 153.848 228.661 155.808 218.15C155.812 217.611 155.87 216.963 155.983 216.209C156.151 215.346 156.346 214.43 156.568 213.46C156.574 212.651 157.55 211.929 159.497 211.294C160.147 211.083 160.55 211.22 160.709 211.707L160.6 215.916C160.532 217.913 160.641 219.762 160.926 221.464C161.211 223.166 161.579 224.707 162.028 226.086C163.482 230.548 165.264 232.436 167.373 231.749C168.996 231.22 170.653 229.558 172.346 226.763C174.119 223.942 175.57 220.821 176.7 217.402C176.864 217.079 177.027 216.891 177.189 216.838C177.514 216.732 177.769 216.964 177.954 217.532C178.139 218.099 178.108 218.693 177.861 219.312C176.016 224.67 174.101 228.569 172.114 231.012C170.209 233.427 168.283 234.952 166.335 235.587ZM184.469 293.22C182.279 293.934 180.209 292.814 178.259 289.859C178.125 289.723 177.873 289.087 177.503 287.952C175.546 281.947 176.609 270.472 180.691 253.526C182.388 246.063 184.092 239.449 185.804 233.686C187.624 227.978 189.398 223.092 191.125 219.029C188.614 211.321 186.385 207.784 184.438 208.419C183.707 208.657 182.756 209.729 181.582 211.638C180.383 213.464 179.151 216.02 177.887 219.303C177.503 220.326 177.067 220.917 176.58 221.075C176.174 221.208 175.905 221.071 175.773 220.665C175.747 220.584 175.789 220.301 175.9 219.816C175.985 219.25 176.26 218.442 176.726 217.393C177.496 215.347 178.32 213.194 179.199 210.933C180.132 208.565 181.131 206.534 182.195 204.841C183.233 203.067 184.36 201.982 185.577 201.586C188.011 200.793 189.815 201.371 190.989 203.322L193.379 209.005C197.07 198.02 201.025 191.841 205.244 190.466C209.625 189.039 212.45 190.272 213.719 194.167C215.041 198.223 214.572 203.671 212.313 210.51C209.971 217.645 206.812 221.861 202.836 223.156C200.483 223.923 198.353 223.719 196.445 222.546C198.591 228.308 199.816 234.685 200.12 241.677C200.531 248.723 200.114 256.397 198.871 264.7C196.085 281.493 191.285 291 184.469 293.22ZM202.369 220.481C205.614 219.424 207.82 216.416 208.987 211.459C210.017 206.906 209.989 202.966 208.905 199.639C207.769 196.15 206.024 194.789 203.671 195.556C200.831 196.481 197.797 202.181 194.569 212.657C194.965 213.874 195.438 215.739 195.988 218.252C197.97 220.478 200.097 221.221 202.369 220.481ZM186.116 289.184C191.067 287.301 194.017 278.038 194.967 261.395C196.209 245.374 195.081 232.683 191.582 223.323C188.79 229.078 186.183 239.531 183.759 254.68C182.491 262.633 181.812 269.226 181.723 274.46C181.552 279.721 181.89 283.65 182.736 286.246C183.529 288.681 184.656 289.66 186.116 289.184ZM229.514 278.544C227.323 279.258 225.253 278.138 223.303 275.183C223.169 275.047 222.917 274.411 222.547 273.275C220.591 267.271 221.654 255.796 225.735 238.85C227.432 231.387 229.137 224.773 230.849 219.01C232.669 213.302 234.442 208.416 236.17 204.353C233.659 196.645 231.429 193.108 229.482 193.743C228.752 193.98 227.8 195.053 226.627 196.961C225.427 198.788 224.195 201.344 222.932 204.627C222.547 205.65 222.111 206.241 221.624 206.399C221.219 206.532 220.95 206.395 220.818 205.989C220.791 205.908 220.834 205.625 220.945 205.14C221.03 204.574 221.305 203.766 221.771 202.717C222.54 200.671 223.364 198.518 224.243 196.257C225.177 193.889 226.176 191.858 227.24 190.165C228.277 188.391 229.404 187.306 230.621 186.909C233.055 186.116 234.859 186.695 236.034 188.646L238.424 194.329C242.114 183.344 246.069 177.165 250.288 175.79C254.669 174.362 257.495 175.596 258.763 179.491C260.085 183.547 259.616 188.995 257.357 195.834C255.015 202.969 251.856 207.185 247.881 208.48C245.528 209.247 243.397 209.043 241.489 207.87C243.636 213.632 244.861 220.009 245.164 227C245.575 234.046 245.159 241.721 243.915 250.024C241.13 266.817 236.329 276.324 229.514 278.544ZM247.413 205.805C250.658 204.748 252.865 201.74 254.032 196.783C255.061 192.229 255.034 188.289 253.95 184.963C252.813 181.474 251.068 180.113 248.715 180.88C245.876 181.805 242.842 187.505 239.613 197.981C240.01 199.198 240.483 201.063 241.033 203.576C243.014 205.802 245.141 206.545 247.413 205.805ZM231.16 274.508C236.112 272.625 239.062 263.362 240.011 246.719C241.253 230.698 240.125 218.007 236.627 208.646C233.835 214.402 231.227 224.855 228.804 240.004C227.536 247.956 226.857 254.55 226.767 259.784C226.597 265.045 226.934 268.974 227.78 271.57C228.573 274.004 229.7 274.984 231.16 274.508ZM275.018 202.061C272.016 203.039 269.801 201.338 268.374 196.957C268.004 195.821 267.716 194.523 267.51 193.065C267.304 191.606 267.153 190.04 267.056 188.366C266.942 185.262 267.115 181.661 267.574 177.562C268.37 171.739 269.578 168.563 271.201 168.034C272.743 167.532 274.278 167.974 275.807 169.36C276.376 168.906 276.864 168.612 277.27 168.48C279.542 167.74 281.233 169.073 282.343 172.481C282.819 173.942 283.09 175.738 283.156 177.87C283.223 180.002 283.042 182.754 282.615 186.124C285.251 187.329 287.543 187.615 289.49 186.98C291.032 186.478 292.373 185.637 293.515 184.457C294.63 183.197 295.669 181.153 296.633 178.326C296.742 178.111 296.959 177.95 297.283 177.845C297.527 177.765 297.728 177.969 297.886 178.456C298.045 178.943 298.014 179.536 297.793 180.236C297.188 181.959 296.259 183.653 295.006 185.318C293.809 186.875 292.033 188.036 289.68 188.803C287.327 189.57 284.953 189.446 282.559 188.431C281.67 196.17 279.156 200.713 275.018 202.061ZM280.639 185.018C280.812 183.346 280.81 181.686 280.632 180.039C280.454 178.392 280.075 176.675 279.493 174.89C278.594 172.132 277.334 171.017 275.711 171.546C274.169 172.048 273.888 173.8 274.866 176.802C275.289 178.1 276.088 179.59 277.264 181.271C278.521 182.925 279.646 184.174 280.639 185.018ZM276.099 197.94C277.234 197.57 278.297 196.012 279.288 193.266C279.727 192.136 280.045 191.045 280.241 189.994C280.41 188.862 280.523 188.107 280.58 187.729C278.913 186.747 277.383 185.63 275.988 184.379C274.593 183.128 273.551 181.718 272.86 180.148C272.15 181.277 271.823 183.717 271.879 187.468C271.934 191.219 272.213 193.866 272.716 195.407C273.429 197.598 274.557 198.442 276.099 197.94ZM320.521 185.486C317.6 186.438 315.545 185.088 314.355 181.437C313.721 179.49 313.658 176.818 314.167 173.421C314.488 169.726 314.412 167.148 313.936 165.688C313.592 164.633 312.922 163.954 311.926 163.65C311.01 163.32 309.905 163.097 308.611 162.98C307.667 162.839 306.657 162.63 305.579 162.353C304.502 162.075 303.587 161.745 302.834 161.362C302.662 162.765 302.092 165.284 301.123 168.92C300.154 172.557 299.049 176.327 297.808 180.232C297.615 180.743 297.357 181.052 297.032 181.157C296.708 181.263 296.453 181.032 296.268 180.464C296.083 179.896 296.209 179.182 296.647 178.321C297.032 177.298 297.542 175.696 298.177 173.515C298.786 171.252 299.356 168.868 299.885 166.362C300.389 163.775 300.7 161.564 300.821 159.73C299.966 158.483 299.258 157.412 298.697 156.517C298.137 155.623 297.698 154.689 297.38 153.716C296.825 152.012 296.81 150.312 297.334 148.615C297.858 146.918 298.891 145.819 300.433 145.317C302.623 144.603 304.142 145.544 304.988 148.141C305.913 150.98 305.782 154.299 304.596 158.096C305.079 158.477 305.617 158.75 306.21 158.916C306.802 159.082 307.692 159.196 308.879 159.258C309.526 159.316 310.107 159.307 310.62 159.229C311.214 159.126 311.714 159.007 312.12 158.875C312.769 158.664 313.283 158.451 313.662 158.238C314.123 157.998 314.515 157.826 314.84 157.72C315.327 157.561 315.987 157.66 316.821 158.017C317.71 158.266 318.326 158.917 318.67 159.972C318.855 160.54 318.933 160.918 318.905 161.107C318.877 161.296 318.858 162.065 318.849 163.414C318.895 164.656 318.815 166.477 318.61 168.877C318.361 173.625 318.515 176.85 319.07 178.554C319.81 180.826 320.951 181.711 322.493 181.209C324.197 180.653 325.895 178.978 327.587 176.183C329.36 173.362 330.811 170.242 331.941 166.822C332.105 166.499 332.268 166.312 332.43 166.259C332.755 166.153 333.01 166.384 333.195 166.952C333.38 167.52 333.349 168.113 333.102 168.732C331.257 174.09 329.315 178.044 327.273 180.593C325.206 183.062 322.955 184.693 320.521 185.486ZM351.597 176.303C346.891 177.837 342.75 177.66 339.174 175.774C335.679 173.861 333.125 170.43 331.512 165.481C330.19 161.424 329.625 157.21 329.817 152.84C327.383 153.633 325.397 154.011 323.859 153.974C321.429 154.227 320.015 153.745 319.619 152.528C319.46 152.041 319.746 151.679 320.476 151.441C321.044 151.256 321.706 151.085 322.463 150.928C323.274 150.664 324.22 150.4 325.302 150.138C326.464 149.849 327.464 149.613 328.302 149.43C329.113 149.165 329.762 148.954 330.249 148.795L331.257 137.428C331.464 134.758 331.736 132.56 332.071 130.835C332.407 129.111 332.725 127.885 333.027 127.158C333.821 125.464 335.232 124.286 337.261 123.625C339.208 122.991 340.314 123.079 340.578 123.89L338.499 131.972C337.751 134.908 337.125 137.67 336.622 140.257C336.199 142.818 335.859 145.217 335.601 147.455C340.632 145.816 344.648 144.508 347.65 143.53C350.626 142.471 352.641 141.769 353.695 141.425L354.669 141.108C355.643 140.791 356.169 140.754 356.248 140.997C356.407 141.484 355.579 142.248 353.764 143.288C350.407 144.83 347.227 146.225 344.223 147.473C341.219 148.721 338.338 149.795 335.579 150.693C335.455 153.067 335.493 155.523 335.691 158.061C335.945 160.492 336.415 162.762 337.102 164.871C338.133 168.035 339.762 170.556 341.989 172.433C344.216 174.31 347.196 174.641 350.928 173.425C355.391 171.971 358.576 169.766 360.485 166.811C362.449 163.748 364.255 160.063 365.904 155.757C366.151 155.138 366.436 154.775 366.761 154.669C367.004 154.59 367.192 154.753 367.324 155.159C367.509 155.727 367.423 156.563 367.064 157.667C365.03 163.266 362.775 167.501 360.299 170.372C357.905 173.216 355.005 175.193 351.597 176.303ZM382.628 165.655C379.301 166.738 376.117 166.744 373.075 165.671C370.087 164.49 367.959 161.953 366.69 158.058C365.289 153.758 365.268 148.873 366.628 143.405C367.322 140.576 368.499 138.128 370.159 136.061C371.792 133.914 373.421 132.576 375.043 132.047C377.396 131.28 379.035 132.317 379.96 135.156C380.754 137.591 380.096 141.081 377.987 145.627C375.99 149.688 373.837 152.723 371.53 154.731C371.554 155.082 371.592 155.474 371.643 155.906C371.749 156.23 371.868 156.595 372 157.001C373.665 162.113 377.541 163.677 383.626 161.695C387.115 160.558 390.016 158.446 392.331 155.358C394.701 152.163 396.572 148.816 397.945 145.317C398.192 144.698 398.478 144.336 398.802 144.23C399.127 144.124 399.342 144.234 399.448 144.558C399.553 144.883 399.536 145.382 399.397 146.056C399.231 146.648 399.093 147.052 398.984 147.267C398.267 149.475 397.404 151.507 396.393 153.362C395.463 155.19 394.033 157.137 392.103 159.202C390.743 160.812 389.209 162.164 387.501 163.259C385.875 164.327 384.25 165.126 382.628 165.655ZM371.184 152.017C372.054 151.105 372.856 150.126 373.592 149.078C374.382 147.923 375.093 146.66 375.723 145.288C377.067 141.978 377.422 139.349 376.788 137.402C376.391 136.185 375.828 135.695 375.098 135.933C374.449 136.145 373.782 136.99 373.097 138.47C372.467 139.842 371.97 141.484 371.607 143.398C371.096 147.064 370.955 149.937 371.184 152.017ZM404.989 157.965C401.42 159.128 398.987 157.722 397.692 153.746C396.132 148.959 397.805 142.939 402.712 135.687C407.237 128.917 412.096 124.686 417.289 122.994C417.533 122.915 417.83 122.863 418.181 122.838C418.613 122.787 418.951 122.722 419.194 122.643C419.356 122.59 419.446 121.349 419.462 118.921L420.316 88.487C420.382 86.7604 420.464 84.6696 420.561 82.2146C420.659 79.7596 420.853 76.914 421.145 73.6777C421.426 72.0605 421.729 71.199 422.053 71.0933C423.919 70.4852 425.117 70.9926 425.646 72.6153C426.016 73.7512 426.232 75.6551 426.295 78.3271C426.439 80.9727 426.375 84.3589 426.105 88.4858L425.061 105.115C424.845 109.135 424.738 112.939 424.741 116.528C424.798 120.009 424.911 123.248 425.079 126.245C425.22 129.43 425.964 133.092 427.312 137.23C429.427 143.72 432.026 146.464 435.109 145.459C436.975 144.851 438.834 143.393 440.684 141.085C442.616 138.75 444.545 134.891 446.47 129.507C446.58 129.292 446.73 128.928 446.923 128.417C447.196 127.879 447.374 127.597 447.455 127.571C447.698 127.491 447.873 127.614 447.978 127.938C448.137 128.425 448.187 128.992 448.129 129.64C448.044 130.206 447.878 130.798 447.631 131.417C446.004 136.614 444.048 140.527 441.763 143.157C439.452 145.704 437.039 147.388 434.524 148.208C428.763 150.085 423.991 145.492 420.207 134.429C420.062 135.912 419.456 137.77 418.388 140.003C417.375 142.128 415.995 144.641 414.249 147.544C410.51 153.698 407.424 157.172 404.989 157.965ZM406.644 152.714C408.997 151.947 411.377 149.198 413.784 144.464C414.714 142.636 415.495 140.9 416.126 139.259C416.813 137.509 417.446 135.732 418.025 133.928C418.387 132.285 418.694 130.749 418.946 129.32C419.172 127.81 419.29 126.381 419.299 125.032C418.948 125.056 418.57 125.135 418.164 125.267C417.732 125.318 417.232 125.436 416.664 125.621C409.281 128.027 404.652 134.067 402.779 143.742C402.14 146.463 402.124 148.757 402.732 150.623C403.393 152.651 404.697 153.348 406.644 152.714Z" fill="black" fill-opacity="0.05"/>
</svg>
