<svg width="159" height="48" viewBox="0 0 159 48" fill="none" xmlns="http://www.w3.org/2000/svg">
<rect width="159" height="48" rx="24" fill="#F46536"/>
<path d="M34.632 29H33.092V18.948H34.632V29ZM37.8328 24.814V29H36.4188V21.58H37.7348V22.812C38.2388 21.986 39.0788 21.44 40.1008 21.44C41.6268 21.44 42.6348 22.42 42.6348 24.198V29H41.2208V24.674C41.2208 23.4 40.6608 22.686 39.6108 22.686C38.6448 22.686 37.8328 23.498 37.8328 24.814ZM43.7005 25.29C43.7005 23.05 44.9885 21.44 46.9905 21.44C48.0545 21.44 48.9505 21.986 49.4685 22.952V21.58H50.7845V31.702H49.3705V27.74C48.8385 28.636 47.9845 29.14 46.9905 29.14C44.9885 29.14 43.7005 27.53 43.7005 25.29ZM45.1705 25.29C45.1705 26.956 46.0385 27.88 47.2705 27.88C48.4745 27.88 49.3705 26.928 49.3705 25.29C49.3705 23.624 48.4605 22.686 47.2705 22.686C46.0385 22.686 45.1705 23.624 45.1705 25.29ZM57.1041 25.948V21.58H58.5181V29H57.2021V27.824C56.8101 28.594 55.9421 29.14 54.9341 29.14C53.4361 29.14 52.4001 28.258 52.4001 26.354V21.58H53.8141V26.074C53.8141 27.362 54.4581 27.894 55.3821 27.894C56.3341 27.894 57.1041 27.11 57.1041 25.948ZM61.9238 19.858C61.9238 20.39 61.5038 20.796 60.9018 20.796C60.2998 20.796 59.8658 20.39 59.8658 19.858C59.8658 19.312 60.2998 18.92 60.9018 18.92C61.5038 18.92 61.9238 19.312 61.9238 19.858ZM61.6158 29H60.2018V21.58H61.6158V29ZM64.7128 25.206V29H63.2988V21.58H64.6148V23.148C65.1328 22.126 66.2528 21.482 67.4708 21.482V22.952C65.8748 22.868 64.7128 23.568 64.7128 25.206ZM71.3344 29.14C69.1924 29.14 67.7504 27.586 67.7504 25.248C67.7504 23.05 69.2484 21.44 71.2924 21.44C73.5044 21.44 74.9744 23.232 74.7224 25.64H69.1924C69.3044 27.152 70.0604 28.034 71.3064 28.034C72.3564 28.034 73.0844 27.46 73.3224 26.494H74.7224C74.3584 28.146 73.0844 29.14 71.3344 29.14ZM71.2644 22.504C70.1304 22.504 69.3604 23.316 69.2064 24.702H73.2244C73.1544 23.33 72.4124 22.504 71.2644 22.504ZM85.4236 29L80.1316 21.146V29H78.7036V18.948H80.3836L85.5496 26.592V18.948H86.9776V29H85.4236ZM91.8649 29.14C89.7649 29.14 88.2249 27.488 88.2249 25.29C88.2249 23.092 89.7649 21.44 91.8649 21.44C93.9649 21.44 95.5049 23.092 95.5049 25.29C95.5049 27.488 93.9649 29.14 91.8649 29.14ZM91.8649 27.894C93.0829 27.894 94.0489 26.914 94.0489 25.29C94.0489 23.666 93.0829 22.7 91.8649 22.7C90.6469 22.7 89.6949 23.666 89.6949 25.29C89.6949 26.914 90.6469 27.894 91.8649 27.894ZM102.634 29L100.954 23.484L99.2603 29H97.8323L95.6903 21.58H97.0763L98.5743 26.984L100.254 21.58H101.654L103.306 26.998L104.804 21.58H106.204L104.048 29H102.634Z" fill="white"/>
<path fill-rule="evenodd" clip-rule="evenodd" d="M114.885 28.1102C114.785 28.0101 114.729 27.8745 114.729 27.7331C114.729 27.5917 114.785 27.456 114.885 27.356L121.975 20.2659H117.396C117.255 20.2659 117.119 20.2097 117.019 20.1097C116.919 20.0097 116.863 19.874 116.863 19.7326C116.863 19.5911 116.919 19.4554 117.019 19.3554C117.119 19.2554 117.255 19.1992 117.396 19.1992H123.263C123.404 19.1992 123.54 19.2554 123.64 19.3554C123.74 19.4554 123.796 19.5911 123.796 19.7326V25.5992C123.796 25.7407 123.74 25.8763 123.64 25.9763C123.54 26.0764 123.404 26.1326 123.263 26.1326C123.121 26.1326 122.986 26.0764 122.886 25.9763C122.786 25.8763 122.729 25.7407 122.729 25.5992V21.02L115.64 28.1102C115.591 28.1598 115.532 28.1992 115.467 28.2261C115.402 28.253 115.333 28.2668 115.263 28.2668C115.193 28.2668 115.123 28.253 115.058 28.2261C114.994 28.1992 114.935 28.1598 114.885 28.1102Z" fill="white"/>
</svg>
