<svg width="29" height="29" viewBox="0 0 29 29" fill="none" xmlns="http://www.w3.org/2000/svg">
<path d="M6.79688 4.53125C6.19731 4.53552 5.62352 4.77559 5.19956 5.19956C4.77559 5.62352 4.53552 6.19731 4.53125 6.79688V22.2031C4.53125 23.442 5.55803 24.4688 6.79688 24.4688H22.2031C23.442 24.4688 24.4688 23.442 24.4688 22.2031V6.79688C24.4688 5.55803 23.442 4.53125 22.2031 4.53125H6.79688ZM6.79688 6.34375H22.2031C22.4614 6.34375 22.6562 6.53859 22.6562 6.79688V22.2031C22.6575 22.263 22.6466 22.3224 22.6243 22.378C22.6019 22.4335 22.5686 22.484 22.5263 22.5263C22.484 22.5686 22.4335 22.6019 22.378 22.6243C22.3224 22.6466 22.263 22.6575 22.2031 22.6562H6.79688C6.737 22.6576 6.67746 22.6468 6.62187 22.6245C6.56628 22.6022 6.51578 22.5689 6.47343 22.5266C6.43108 22.4842 6.39775 22.4337 6.37547 22.3781C6.35318 22.3225 6.34239 22.263 6.34375 22.2031V6.79688C6.34375 6.53859 6.53859 6.34375 6.79688 6.34375ZM9.45944 7.90159C9.25176 7.89658 9.04517 7.93316 8.85184 8.00918C8.6585 8.08519 8.48232 8.19911 8.33367 8.34422C8.18501 8.48933 8.06688 8.66271 7.98623 8.85416C7.90557 9.0456 7.86402 9.25124 7.86402 9.45898C7.86402 9.66673 7.90557 9.87237 7.98623 10.0638C8.06688 10.2553 8.18501 10.4286 8.33367 10.5738C8.48232 10.7189 8.6585 10.8328 8.85184 10.9088C9.04517 10.9848 9.25176 11.0214 9.45944 11.0164C9.86598 11.0066 10.2526 10.8382 10.5366 10.5472C10.8207 10.2562 10.9797 9.86564 10.9797 9.45898C10.9797 9.05232 10.8207 8.66179 10.5366 8.37079C10.2526 8.07979 9.86598 7.9114 9.45944 7.90159ZM17.6429 12.0359C16.3442 12.0359 15.4806 12.7473 15.1235 13.4234H15.0664V12.2344H12.5171V20.8438H15.1797V16.5953C15.1797 15.4733 15.4026 14.3867 16.7937 14.3867C18.164 14.3867 18.1821 15.6537 18.1821 16.6523V20.8438H20.8438V16.114C20.8438 13.7995 20.3507 12.0359 17.6429 12.0359ZM8.15625 12.2344V20.8438H10.8469V12.2344H8.15625Z" fill="white"/>
</svg>
