<svg width="45" height="37" viewBox="0 0 45 37" fill="none" xmlns="http://www.w3.org/2000/svg">
<path d="M44.0062 7.30306C43.7481 6.27806 43.2446 5.34361 42.5458 4.59274C41.8471 3.84188 40.9775 3.3008 40.0237 3.0234C36.5316 2 22.4772 2 22.4772 2C22.4772 2 8.42206 2.03098 4.92999 3.05438C3.97612 3.3318 3.10652 3.8729 2.40779 4.6238C1.70906 5.3747 1.20558 6.30919 0.947495 7.33422C-0.108775 14.0016 -0.518521 24.1612 0.976499 30.5619C1.23461 31.5869 1.7381 32.5213 2.43683 33.2722C3.13556 34.0231 4.00514 34.5641 4.959 34.8415C8.45107 35.8649 22.5058 35.8649 22.5058 35.8649C22.5058 35.8649 36.5604 35.8649 40.0523 34.8415C41.0062 34.5642 41.8758 34.0231 42.5746 33.2722C43.2734 32.5214 43.7769 31.5869 44.035 30.5619C45.1491 23.885 45.4924 13.7317 44.0062 7.30306Z" fill="#FF0000"/>
<path d="M17 26.5135L28.6592 19.2567L17 12V26.5135Z" fill="white"/>
</svg>
