<svg xmlns="http://www.w3.org/2000/svg" xmlns:xlink="http://www.w3.org/1999/xlink" contentStyleType="text/css" height="1397" preserveAspectRatio="none" style="width:1287px;height:1397px;background:#FFFFFF;" version="1.1" viewBox="0 0 1287 1397" width="1287" zoomAndPan="magnify"><defs/><g><ellipse cx="520.8125" cy="20" fill="#222222" rx="10" ry="10" style="stroke:#222222;stroke-width:1.0;"/><rect fill="#F1F1F1" height="33.9688" rx="12.5" ry="12.5" style="stroke:#181818;stroke-width:0.5;" width="87" x="477.3125" y="50"/><text fill="#000000" font-family="sans-serif" font-size="12" lengthAdjust="spacing" textLength="67" x="487.3125" y="71.1387">Homepage</text><polygon fill="#F1F1F1" points="443.8125,103.9688,597.8125,103.9688,609.8125,115.9688,597.8125,127.9688,443.8125,127.9688,431.8125,115.9688,443.8125,103.9688" style="stroke:#181818;stroke-width:0.5;"/><text fill="#000000" font-family="sans-serif" font-size="11" lengthAdjust="spacing" textLength="154" x="443.8125" y="119.7769">User selects Student Login</text><text fill="#000000" font-family="sans-serif" font-size="11" lengthAdjust="spacing" textLength="21" x="410.8125" y="113.3745">yes</text><text fill="#000000" font-family="sans-serif" font-size="11" lengthAdjust="spacing" textLength="14" x="609.8125" y="113.3745">no</text><rect fill="#F1F1F1" height="33.9688" rx="12.5" ry="12.5" style="stroke:#181818;stroke-width:0.5;" width="103" x="107.5" y="137.9688"/><text fill="#000000" font-family="sans-serif" font-size="12" lengthAdjust="spacing" textLength="83" x="117.5" y="159.1074">Student Portal</text><rect fill="#F1F1F1" height="33.9688" rx="12.5" ry="12.5" style="stroke:#181818;stroke-width:0.5;" width="292" x="13" y="206.9375"/><text fill="#000000" font-family="sans-serif" font-size="12" lengthAdjust="spacing" textLength="272" x="23" y="228.0762">Username, Password (Wetiger student login)</text><polygon fill="#F1F1F1" points="115.5,275.9063,202.5,275.9063,214.5,287.9063,202.5,299.9063,115.5,299.9063,103.5,287.9063,115.5,275.9063" style="stroke:#181818;stroke-width:0.5;"/><text fill="#000000" font-family="sans-serif" font-size="11" lengthAdjust="spacing" textLength="87" x="115.5" y="291.7144">Inactive in CRM</text><text fill="#000000" font-family="sans-serif" font-size="11" lengthAdjust="spacing" textLength="21" x="82.5" y="285.312">yes</text><text fill="#000000" font-family="sans-serif" font-size="11" lengthAdjust="spacing" textLength="14" x="214.5" y="285.312">no</text><rect fill="#F1F1F1" height="33.9688" rx="12.5" ry="12.5" style="stroke:#181818;stroke-width:0.5;" width="90" x="11" y="309.9063"/><text fill="#000000" font-family="sans-serif" font-size="12" lengthAdjust="spacing" textLength="70" x="21" y="331.0449">Close Login</text><rect fill="#F1F1F1" height="33.9688" rx="12.5" ry="12.5" style="stroke:#181818;stroke-width:0.5;" width="187" x="168.5" y="309.9063"/><text fill="#000000" font-family="sans-serif" font-size="12" lengthAdjust="spacing" textLength="167" x="178.5" y="331.0449">Videos (Instructor Uploads)</text><rect fill="#F1F1F1" height="33.9688" rx="12.5" ry="12.5" style="stroke:#181818;stroke-width:0.5;" width="181" x="171.5" y="378.875"/><text fill="#000000" font-family="sans-serif" font-size="12" lengthAdjust="spacing" textLength="161" x="181.5" y="400.0137">Notes (Instructor Updates)</text><rect fill="#F1F1F1" height="33.9688" rx="12.5" ry="12.5" style="stroke:#181818;stroke-width:0.5;" width="282" x="121" y="447.8438"/><text fill="#000000" font-family="sans-serif" font-size="12" lengthAdjust="spacing" textLength="262" x="131" y="468.9824">Class Cancellation (Static Website Request)</text><rect fill="#F1F1F1" height="33.9688" rx="12.5" ry="12.5" style="stroke:#181818;stroke-width:0.5;" width="231" x="146.5" y="516.8125"/><text fill="#000000" font-family="sans-serif" font-size="12" lengthAdjust="spacing" textLength="211" x="156.5" y="537.9512">General Message (Class Message)</text><rect fill="#F1F1F1" height="33.9688" rx="12.5" ry="12.5" style="stroke:#181818;stroke-width:0.5;" width="90" x="217" y="585.7813"/><text fill="#000000" font-family="sans-serif" font-size="12" lengthAdjust="spacing" textLength="70" x="227" y="606.9199">View Profile</text><polygon fill="#F1F1F1" points="159,625.75,171,637.75,159,649.75,147,637.75,159,625.75" style="stroke:#181818;stroke-width:0.5;"/><polygon fill="#F1F1F1" points="802.125,137.9688,963.125,137.9688,975.125,149.9688,963.125,161.9688,802.125,161.9688,790.125,149.9688,802.125,137.9688" style="stroke:#181818;stroke-width:0.5;"/><text fill="#000000" font-family="sans-serif" font-size="11" lengthAdjust="spacing" textLength="161" x="802.125" y="153.7769">User selects Instructor Login</text><text fill="#000000" font-family="sans-serif" font-size="11" lengthAdjust="spacing" textLength="21" x="769.125" y="147.3745">yes</text><text fill="#000000" font-family="sans-serif" font-size="11" lengthAdjust="spacing" textLength="14" x="975.125" y="147.3745">no</text><rect fill="#F1F1F1" height="33.9688" rx="12.5" ry="12.5" style="stroke:#181818;stroke-width:0.5;" width="114" x="604.75" y="171.9688"/><text fill="#000000" font-family="sans-serif" font-size="12" lengthAdjust="spacing" textLength="94" x="614.75" y="193.1074">Instructor Portal</text><rect fill="#F1F1F1" height="33.9688" rx="12.5" ry="12.5" style="stroke:#181818;stroke-width:0.5;" width="250" x="536.75" y="240.9375"/><text fill="#000000" font-family="sans-serif" font-size="12" lengthAdjust="spacing" textLength="230" x="546.75" y="262.0762">Username, Password (Admin Creates)</text><rect fill="#F1F1F1" height="33.9688" rx="12.5" ry="12.5" style="stroke:#181818;stroke-width:0.5;" width="111" x="606.25" y="309.9063"/><text fill="#000000" font-family="sans-serif" font-size="12" lengthAdjust="spacing" textLength="91" x="616.25" y="331.0449">View Own Data</text><rect fill="#F1F1F1" height="33.9688" rx="12.5" ry="12.5" style="stroke:#181818;stroke-width:0.5;" width="182" x="570.75" y="378.875"/><text fill="#000000" font-family="sans-serif" font-size="12" lengthAdjust="spacing" textLength="162" x="580.75" y="400.0137">Select Classes by Location</text><rect fill="#F1F1F1" height="33.9688" rx="12.5" ry="12.5" style="stroke:#181818;stroke-width:0.5;" width="127" x="598.25" y="447.8438"/><text fill="#000000" font-family="sans-serif" font-size="12" lengthAdjust="spacing" textLength="107" x="608.25" y="468.9824">Assigned Classes</text><polygon fill="#F1F1F1" points="606.75,516.8125,716.75,516.8125,728.75,528.8125,716.75,540.8125,606.75,540.8125,594.75,528.8125,606.75,516.8125" style="stroke:#181818;stroke-width:0.5;"/><text fill="#000000" font-family="sans-serif" font-size="11" lengthAdjust="spacing" textLength="110" x="606.75" y="532.6206">Instructor on Leave</text><text fill="#000000" font-family="sans-serif" font-size="11" lengthAdjust="spacing" textLength="21" x="573.75" y="526.2183">yes</text><text fill="#000000" font-family="sans-serif" font-size="11" lengthAdjust="spacing" textLength="14" x="728.75" y="526.2183">no</text><rect fill="#F1F1F1" height="33.9688" rx="12.5" ry="12.5" style="stroke:#181818;stroke-width:0.5;" width="176" x="453" y="550.8125"/><text fill="#000000" font-family="sans-serif" font-size="12" lengthAdjust="spacing" textLength="156" x="463" y="571.9512">Select Replacement Class</text><rect fill="#F1F1F1" height="33.9688" rx="12.5" ry="12.5" style="stroke:#181818;stroke-width:0.5;" width="89" x="738" y="550.8125"/><text fill="#000000" font-family="sans-serif" font-size="12" lengthAdjust="spacing" textLength="69" x="748" y="571.9512">Open Class</text><rect fill="#F1F1F1" height="33.9688" rx="12.5" ry="12.5" style="stroke:#181818;stroke-width:0.5;" width="267" x="649" y="619.7813"/><text fill="#000000" font-family="sans-serif" font-size="12" lengthAdjust="spacing" textLength="247" x="659" y="640.9199">View Student List (Filtered from Wetiger)</text><rect fill="#F1F1F1" height="33.9688" rx="12.5" ry="12.5" style="stroke:#181818;stroke-width:0.5;" width="124" x="720.5" y="673.75"/><text fill="#000000" font-family="sans-serif" font-size="12" lengthAdjust="spacing" textLength="104" x="730.5" y="694.8887">Manage Students</text><rect fill="#F1F1F1" height="33.9688" rx="12.5" ry="12.5" style="stroke:#181818;stroke-width:0.5;" width="89" x="738" y="727.7188"/><text fill="#000000" font-family="sans-serif" font-size="12" lengthAdjust="spacing" textLength="69" x="748" y="748.8574">Regular List</text><rect fill="#F1F1F1" height="33.9688" rx="12.5" ry="12.5" style="stroke:#181818;stroke-width:0.5;" width="254" x="655.5" y="781.6875"/><text fill="#000000" font-family="sans-serif" font-size="12" lengthAdjust="spacing" textLength="234" x="665.5" y="802.8262">New Registrations (Admin Acceptance)</text><rect fill="#F1F1F1" height="33.9688" rx="12.5" ry="12.5" style="stroke:#181818;stroke-width:0.5;" width="145" x="710" y="835.6563"/><text fill="#000000" font-family="sans-serif" font-size="12" lengthAdjust="spacing" textLength="125" x="720" y="856.7949">Direct Entry on Class</text><rect fill="#F1F1F1" height="33.9688" rx="12.5" ry="12.5" style="stroke:#181818;stroke-width:0.5;" width="206" x="679.5" y="889.625"/><text fill="#000000" font-family="sans-serif" font-size="12" lengthAdjust="spacing" textLength="186" x="689.5" y="910.7637">Declined Payments (Follow up)</text><rect fill="#F1F1F1" height="33.9688" rx="12.5" ry="12.5" style="stroke:#181818;stroke-width:0.5;" width="139" x="713" y="943.5938"/><text fill="#000000" font-family="sans-serif" font-size="12" lengthAdjust="spacing" textLength="119" x="723" y="964.7324">Manage Attendance</text><rect fill="#F1F1F1" height="33.9688" rx="12.5" ry="12.5" style="stroke:#181818;stroke-width:0.5;" width="121" x="722" y="997.5625"/><text fill="#000000" font-family="sans-serif" font-size="12" lengthAdjust="spacing" textLength="101" x="732" y="1018.7012">Mark Attendance</text><rect fill="#F1F1F1" height="33.9688" rx="12.5" ry="12.5" style="stroke:#181818;stroke-width:0.5;" width="128" x="718.5" y="1051.5313"/><text fill="#000000" font-family="sans-serif" font-size="12" lengthAdjust="spacing" textLength="108" x="728.5" y="1072.6699">Send Notifications</text><rect fill="#F1F1F1" height="33.9688" rx="12.5" ry="12.5" style="stroke:#181818;stroke-width:0.5;" width="106" x="729.5" y="1105.5"/><text fill="#000000" font-family="sans-serif" font-size="12" lengthAdjust="spacing" textLength="86" x="739.5" y="1126.6387">Manage Notes</text><rect fill="#F1F1F1" height="33.9688" rx="12.5" ry="12.5" style="stroke:#181818;stroke-width:0.5;" width="109" x="728" y="1159.4688"/><text fill="#000000" font-family="sans-serif" font-size="12" lengthAdjust="spacing" textLength="89" x="738" y="1180.6074">Upload Videos</text><rect fill="#F1F1F1" height="33.9688" rx="12.5" ry="12.5" style="stroke:#181818;stroke-width:0.5;" width="267" x="649" y="1213.4375"/><text fill="#000000" font-family="sans-serif" font-size="12" lengthAdjust="spacing" textLength="247" x="659" y="1234.5762">Quit Class (Instructor Approval Required)</text><polygon fill="#F1F1F1" points="661.75,1253.4063,673.75,1265.4063,661.75,1277.4063,649.75,1265.4063,661.75,1253.4063" style="stroke:#181818;stroke-width:0.5;"/><rect fill="#F1F1F1" height="33.9688" rx="12.5" ry="12.5" style="stroke:#181818;stroke-width:0.5;" width="94" x="1056.5" y="220.3711"/><text fill="#000000" font-family="sans-serif" font-size="12" lengthAdjust="spacing" textLength="74" x="1066.5" y="241.5098">Admin Portal</text><rect fill="#F1F1F1" height="33.9688" rx="12.5" ry="12.5" style="stroke:#181818;stroke-width:0.5;" width="191" x="1008" y="289.3398"/><text fill="#000000" font-family="sans-serif" font-size="12" lengthAdjust="spacing" textLength="171" x="1018" y="310.4785">Same Instructor Permissions</text><rect fill="#F1F1F1" height="33.9688" rx="12.5" ry="12.5" style="stroke:#181818;stroke-width:0.5;" width="135" x="1036" y="358.3086"/><text fill="#000000" font-family="sans-serif" font-size="12" lengthAdjust="spacing" textLength="115" x="1046" y="379.4473">View All Instructors</text><rect fill="#F1F1F1" height="33.9688" rx="12.5" ry="12.5" style="stroke:#181818;stroke-width:0.5;" width="282" x="962.5" y="427.2773"/><text fill="#000000" font-family="sans-serif" font-size="12" lengthAdjust="spacing" textLength="262" x="972.5" y="448.416">Generate Instructor Usernames (Randomly)</text><rect fill="#F1F1F1" height="33.9688" rx="12.5" ry="12.5" style="stroke:#181818;stroke-width:0.5;" width="295" x="956" y="496.2461"/><text fill="#000000" font-family="sans-serif" font-size="12" lengthAdjust="spacing" textLength="275" x="966" y="517.3848">System Auto-sends Usernames to Instructors</text><polygon fill="#F1F1F1" points="1031,171.9688,1176,171.9688,1188,183.9688,1176,195.9688,1031,195.9688,1019,183.9688,1031,171.9688" style="stroke:#181818;stroke-width:0.5;"/><text fill="#000000" font-family="sans-serif" font-size="11" lengthAdjust="spacing" textLength="21" x="1107.5" y="206.1792">yes</text><text fill="#000000" font-family="sans-serif" font-size="11" lengthAdjust="spacing" textLength="145" x="1031" y="187.7769">User selects Admin Login</text><polygon fill="#F1F1F1" points="1103.5,554.6172,1115.5,566.6172,1103.5,578.6172,1091.5,566.6172,1103.5,554.6172" style="stroke:#181818;stroke-width:0.5;"/><polygon fill="#F1F1F1" points="882.625,1283.4063,894.625,1295.4063,882.625,1307.4063,870.625,1295.4063,882.625,1283.4063" style="stroke:#181818;stroke-width:0.5;"/><ellipse cx="882.625" cy="1337.4063" fill="none" rx="10" ry="10" style="stroke:#222222;stroke-width:1.5;"/><line style="stroke:#222222;stroke-width:2.5;" x1="876.4378" x2="888.8122" y1="1331.2191" y2="1343.5934"/><line style="stroke:#222222;stroke-width:2.5;" x1="888.8122" x2="876.4378" y1="1331.2191" y2="1343.5934"/><ellipse cx="882.625" cy="1368.4063" fill="none" rx="11" ry="11" style="stroke:#222222;stroke-width:1.0;"/><ellipse cx="882.625" cy="1368.4063" fill="#222222" rx="6" ry="6" style="stroke:#222222;stroke-width:1.0;"/><line style="stroke:#181818;stroke-width:1.0;" x1="520.8125" x2="520.8125" y1="30" y2="50"/><polygon fill="#181818" points="516.8125,40,520.8125,50,524.8125,40,520.8125,44" style="stroke:#181818;stroke-width:1.0;"/><line style="stroke:#181818;stroke-width:1.0;" x1="159" x2="159" y1="171.9375" y2="206.9375"/><polygon fill="#181818" points="155,196.9375,159,206.9375,163,196.9375,159,200.9375" style="stroke:#181818;stroke-width:1.0;"/><line style="stroke:#181818;stroke-width:1.0;" x1="262" x2="262" y1="343.875" y2="378.875"/><polygon fill="#181818" points="258,368.875,262,378.875,266,368.875,262,372.875" style="stroke:#181818;stroke-width:1.0;"/><line style="stroke:#181818;stroke-width:1.0;" x1="262" x2="262" y1="412.8438" y2="447.8438"/><polygon fill="#181818" points="258,437.8438,262,447.8438,266,437.8438,262,441.8438" style="stroke:#181818;stroke-width:1.0;"/><line style="stroke:#181818;stroke-width:1.0;" x1="262" x2="262" y1="481.8125" y2="516.8125"/><polygon fill="#181818" points="258,506.8125,262,516.8125,266,506.8125,262,510.8125" style="stroke:#181818;stroke-width:1.0;"/><line style="stroke:#181818;stroke-width:1.0;" x1="262" x2="262" y1="550.7813" y2="585.7813"/><polygon fill="#181818" points="258,575.7813,262,585.7813,266,575.7813,262,579.7813" style="stroke:#181818;stroke-width:1.0;"/><line style="stroke:#181818;stroke-width:1.0;" x1="103.5" x2="56" y1="287.9063" y2="287.9063"/><line style="stroke:#181818;stroke-width:1.0;" x1="56" x2="56" y1="287.9063" y2="309.9063"/><polygon fill="#181818" points="52,299.9063,56,309.9063,60,299.9063,56,303.9063" style="stroke:#181818;stroke-width:1.0;"/><line style="stroke:#181818;stroke-width:1.0;" x1="214.5" x2="262" y1="287.9063" y2="287.9063"/><line style="stroke:#181818;stroke-width:1.0;" x1="262" x2="262" y1="287.9063" y2="309.9063"/><polygon fill="#181818" points="258,299.9063,262,309.9063,266,299.9063,262,303.9063" style="stroke:#181818;stroke-width:1.0;"/><line style="stroke:#181818;stroke-width:1.0;" x1="56" x2="56" y1="343.875" y2="637.75"/><line style="stroke:#181818;stroke-width:1.0;" x1="56" x2="147" y1="637.75" y2="637.75"/><polygon fill="#181818" points="137,633.75,147,637.75,137,641.75,141,637.75" style="stroke:#181818;stroke-width:1.0;"/><line style="stroke:#181818;stroke-width:1.0;" x1="262" x2="262" y1="619.75" y2="637.75"/><line style="stroke:#181818;stroke-width:1.0;" x1="262" x2="171" y1="637.75" y2="637.75"/><polygon fill="#181818" points="181,633.75,171,637.75,181,641.75,177,637.75" style="stroke:#181818;stroke-width:1.0;"/><line style="stroke:#181818;stroke-width:1.0;" x1="159" x2="159" y1="240.9063" y2="275.9063"/><polygon fill="#181818" points="155,265.9063,159,275.9063,163,265.9063,159,269.9063" style="stroke:#181818;stroke-width:1.0;"/><line style="stroke:#181818;stroke-width:1.0;" x1="661.75" x2="661.75" y1="205.9375" y2="240.9375"/><polygon fill="#181818" points="657.75,230.9375,661.75,240.9375,665.75,230.9375,661.75,234.9375" style="stroke:#181818;stroke-width:1.0;"/><line style="stroke:#181818;stroke-width:1.0;" x1="661.75" x2="661.75" y1="274.9063" y2="309.9063"/><polygon fill="#181818" points="657.75,299.9063,661.75,309.9063,665.75,299.9063,661.75,303.9063" style="stroke:#181818;stroke-width:1.0;"/><line style="stroke:#181818;stroke-width:1.0;" x1="661.75" x2="661.75" y1="343.875" y2="378.875"/><polygon fill="#181818" points="657.75,368.875,661.75,378.875,665.75,368.875,661.75,372.875" style="stroke:#181818;stroke-width:1.0;"/><line style="stroke:#181818;stroke-width:1.0;" x1="661.75" x2="661.75" y1="412.8438" y2="447.8438"/><polygon fill="#181818" points="657.75,437.8438,661.75,447.8438,665.75,437.8438,661.75,441.8438" style="stroke:#181818;stroke-width:1.0;"/><line style="stroke:#181818;stroke-width:1.0;" x1="782.5" x2="782.5" y1="584.7813" y2="619.7813"/><polygon fill="#181818" points="778.5,609.7813,782.5,619.7813,786.5,609.7813,782.5,613.7813" style="stroke:#181818;stroke-width:1.0;"/><line style="stroke:#181818;stroke-width:1.0;" x1="782.5" x2="782.5" y1="653.75" y2="673.75"/><polygon fill="#181818" points="778.5,663.75,782.5,673.75,786.5,663.75,782.5,667.75" style="stroke:#181818;stroke-width:1.0;"/><line style="stroke:#181818;stroke-width:1.0;" x1="782.5" x2="782.5" y1="707.7188" y2="727.7188"/><polygon fill="#181818" points="778.5,717.7188,782.5,727.7188,786.5,717.7188,782.5,721.7188" style="stroke:#181818;stroke-width:1.0;"/><line style="stroke:#181818;stroke-width:1.0;" x1="782.5" x2="782.5" y1="761.6875" y2="781.6875"/><polygon fill="#181818" points="778.5,771.6875,782.5,781.6875,786.5,771.6875,782.5,775.6875" style="stroke:#181818;stroke-width:1.0;"/><line style="stroke:#181818;stroke-width:1.0;" x1="782.5" x2="782.5" y1="815.6563" y2="835.6563"/><polygon fill="#181818" points="778.5,825.6563,782.5,835.6563,786.5,825.6563,782.5,829.6563" style="stroke:#181818;stroke-width:1.0;"/><line style="stroke:#181818;stroke-width:1.0;" x1="782.5" x2="782.5" y1="869.625" y2="889.625"/><polygon fill="#181818" points="778.5,879.625,782.5,889.625,786.5,879.625,782.5,883.625" style="stroke:#181818;stroke-width:1.0;"/><line style="stroke:#181818;stroke-width:1.0;" x1="782.5" x2="782.5" y1="923.5938" y2="943.5938"/><polygon fill="#181818" points="778.5,933.5938,782.5,943.5938,786.5,933.5938,782.5,937.5938" style="stroke:#181818;stroke-width:1.0;"/><line style="stroke:#181818;stroke-width:1.0;" x1="782.5" x2="782.5" y1="977.5625" y2="997.5625"/><polygon fill="#181818" points="778.5,987.5625,782.5,997.5625,786.5,987.5625,782.5,991.5625" style="stroke:#181818;stroke-width:1.0;"/><line style="stroke:#181818;stroke-width:1.0;" x1="782.5" x2="782.5" y1="1031.5313" y2="1051.5313"/><polygon fill="#181818" points="778.5,1041.5313,782.5,1051.5313,786.5,1041.5313,782.5,1045.5313" style="stroke:#181818;stroke-width:1.0;"/><line style="stroke:#181818;stroke-width:1.0;" x1="782.5" x2="782.5" y1="1085.5" y2="1105.5"/><polygon fill="#181818" points="778.5,1095.5,782.5,1105.5,786.5,1095.5,782.5,1099.5" style="stroke:#181818;stroke-width:1.0;"/><line style="stroke:#181818;stroke-width:1.0;" x1="782.5" x2="782.5" y1="1139.4688" y2="1159.4688"/><polygon fill="#181818" points="778.5,1149.4688,782.5,1159.4688,786.5,1149.4688,782.5,1153.4688" style="stroke:#181818;stroke-width:1.0;"/><line style="stroke:#181818;stroke-width:1.0;" x1="782.5" x2="782.5" y1="1193.4375" y2="1213.4375"/><polygon fill="#181818" points="778.5,1203.4375,782.5,1213.4375,786.5,1203.4375,782.5,1207.4375" style="stroke:#181818;stroke-width:1.0;"/><line style="stroke:#181818;stroke-width:1.0;" x1="594.75" x2="541" y1="528.8125" y2="528.8125"/><line style="stroke:#181818;stroke-width:1.0;" x1="541" x2="541" y1="528.8125" y2="550.8125"/><polygon fill="#181818" points="537,540.8125,541,550.8125,545,540.8125,541,544.8125" style="stroke:#181818;stroke-width:1.0;"/><line style="stroke:#181818;stroke-width:1.0;" x1="728.75" x2="782.5" y1="528.8125" y2="528.8125"/><line style="stroke:#181818;stroke-width:1.0;" x1="782.5" x2="782.5" y1="528.8125" y2="550.8125"/><polygon fill="#181818" points="778.5,540.8125,782.5,550.8125,786.5,540.8125,782.5,544.8125" style="stroke:#181818;stroke-width:1.0;"/><line style="stroke:#181818;stroke-width:1.0;" x1="541" x2="541" y1="584.7813" y2="1265.4063"/><line style="stroke:#181818;stroke-width:1.0;" x1="541" x2="649.75" y1="1265.4063" y2="1265.4063"/><polygon fill="#181818" points="639.75,1261.4063,649.75,1265.4063,639.75,1269.4063,643.75,1265.4063" style="stroke:#181818;stroke-width:1.0;"/><line style="stroke:#181818;stroke-width:1.0;" x1="782.5" x2="782.5" y1="1247.4063" y2="1265.4063"/><line style="stroke:#181818;stroke-width:1.0;" x1="782.5" x2="673.75" y1="1265.4063" y2="1265.4063"/><polygon fill="#181818" points="683.75,1261.4063,673.75,1265.4063,683.75,1269.4063,679.75,1265.4063" style="stroke:#181818;stroke-width:1.0;"/><line style="stroke:#181818;stroke-width:1.0;" x1="661.75" x2="661.75" y1="481.8125" y2="516.8125"/><polygon fill="#181818" points="657.75,506.8125,661.75,516.8125,665.75,506.8125,661.75,510.8125" style="stroke:#181818;stroke-width:1.0;"/><line style="stroke:#181818;stroke-width:1.0;" x1="1103.5" x2="1103.5" y1="254.3398" y2="289.3398"/><polygon fill="#181818" points="1099.5,279.3398,1103.5,289.3398,1107.5,279.3398,1103.5,283.3398" style="stroke:#181818;stroke-width:1.0;"/><line style="stroke:#181818;stroke-width:1.0;" x1="1103.5" x2="1103.5" y1="323.3086" y2="358.3086"/><polygon fill="#181818" points="1099.5,348.3086,1103.5,358.3086,1107.5,348.3086,1103.5,352.3086" style="stroke:#181818;stroke-width:1.0;"/><line style="stroke:#181818;stroke-width:1.0;" x1="1103.5" x2="1103.5" y1="392.2773" y2="427.2773"/><polygon fill="#181818" points="1099.5,417.2773,1103.5,427.2773,1107.5,417.2773,1103.5,421.2773" style="stroke:#181818;stroke-width:1.0;"/><line style="stroke:#181818;stroke-width:1.0;" x1="1103.5" x2="1103.5" y1="461.2461" y2="496.2461"/><polygon fill="#181818" points="1099.5,486.2461,1103.5,496.2461,1107.5,486.2461,1103.5,490.2461" style="stroke:#181818;stroke-width:1.0;"/><line style="stroke:#181818;stroke-width:1.0;" x1="1103.5" x2="1103.5" y1="195.9688" y2="220.3711"/><polygon fill="#181818" points="1099.5,210.3711,1103.5,220.3711,1107.5,210.3711,1103.5,214.3711" style="stroke:#181818;stroke-width:1.0;"/><line style="stroke:#181818;stroke-width:1.0;" x1="1188" x2="1261" y1="183.9688" y2="183.9688"/><polygon fill="#181818" points="1257,365.293,1261,375.293,1265,365.293,1261,369.293" style="stroke:#181818;stroke-width:1.0;"/><line style="stroke:#181818;stroke-width:1.0;" x1="1261" x2="1261" y1="183.9688" y2="566.6172"/><line style="stroke:#181818;stroke-width:1.0;" x1="1261" x2="1115.5" y1="566.6172" y2="566.6172"/><polygon fill="#181818" points="1125.5,562.6172,1115.5,566.6172,1125.5,570.6172,1121.5,566.6172" style="stroke:#181818;stroke-width:1.0;"/><line style="stroke:#181818;stroke-width:1.0;" x1="1103.5" x2="1103.5" y1="530.2148" y2="554.6172"/><polygon fill="#181818" points="1099.5,544.6172,1103.5,554.6172,1107.5,544.6172,1103.5,548.6172" style="stroke:#181818;stroke-width:1.0;"/><line style="stroke:#181818;stroke-width:1.0;" x1="790.125" x2="661.75" y1="149.9688" y2="149.9688"/><line style="stroke:#181818;stroke-width:1.0;" x1="661.75" x2="661.75" y1="149.9688" y2="171.9688"/><polygon fill="#181818" points="657.75,161.9688,661.75,171.9688,665.75,161.9688,661.75,165.9688" style="stroke:#181818;stroke-width:1.0;"/><line style="stroke:#181818;stroke-width:1.0;" x1="975.125" x2="1103.5" y1="149.9688" y2="149.9688"/><line style="stroke:#181818;stroke-width:1.0;" x1="1103.5" x2="1103.5" y1="149.9688" y2="171.9688"/><polygon fill="#181818" points="1099.5,161.9688,1103.5,171.9688,1107.5,161.9688,1103.5,165.9688" style="stroke:#181818;stroke-width:1.0;"/><line style="stroke:#181818;stroke-width:1.0;" x1="661.75" x2="661.75" y1="1277.4063" y2="1295.4063"/><line style="stroke:#181818;stroke-width:1.0;" x1="661.75" x2="870.625" y1="1295.4063" y2="1295.4063"/><polygon fill="#181818" points="860.625,1291.4063,870.625,1295.4063,860.625,1299.4063,864.625,1295.4063" style="stroke:#181818;stroke-width:1.0;"/><line style="stroke:#181818;stroke-width:1.0;" x1="1103.5" x2="1103.5" y1="578.6172" y2="1295.4063"/><line style="stroke:#181818;stroke-width:1.0;" x1="1103.5" x2="894.625" y1="1295.4063" y2="1295.4063"/><polygon fill="#181818" points="904.625,1291.4063,894.625,1295.4063,904.625,1299.4063,900.625,1295.4063" style="stroke:#181818;stroke-width:1.0;"/><line style="stroke:#181818;stroke-width:1.0;" x1="882.625" x2="882.625" y1="1307.4063" y2="1327.4063"/><polygon fill="#181818" points="878.625,1317.4063,882.625,1327.4063,886.625,1317.4063,882.625,1321.4063" style="stroke:#181818;stroke-width:1.0;"/><line style="stroke:#181818;stroke-width:1.0;" x1="431.8125" x2="159" y1="115.9688" y2="115.9688"/><line style="stroke:#181818;stroke-width:1.0;" x1="159" x2="159" y1="115.9688" y2="137.9688"/><polygon fill="#181818" points="155,127.9688,159,137.9688,163,127.9688,159,131.9688" style="stroke:#181818;stroke-width:1.0;"/><line style="stroke:#181818;stroke-width:1.0;" x1="609.8125" x2="882.625" y1="115.9688" y2="115.9688"/><line style="stroke:#181818;stroke-width:1.0;" x1="882.625" x2="882.625" y1="115.9688" y2="137.9688"/><polygon fill="#181818" points="878.625,127.9688,882.625,137.9688,886.625,127.9688,882.625,131.9688" style="stroke:#181818;stroke-width:1.0;"/><line style="stroke:#181818;stroke-width:1.0;" x1="159" x2="159" y1="649.75" y2="1385.4063"/><line style="stroke:#181818;stroke-width:1.0;" x1="159" x2="520.8125" y1="1385.4063" y2="1385.4063"/><line style="stroke:#181818;stroke-width:1.0;" x1="520.8125" x2="520.8125" y1="83.9688" y2="103.9688"/><polygon fill="#181818" points="516.8125,93.9688,520.8125,103.9688,524.8125,93.9688,520.8125,97.9688" style="stroke:#181818;stroke-width:1.0;"/><!--SRC=[TLFBSjim3BphAt2KPzeVI4uQksax4oUkFKdEZ0Ivd5AaIa3swEyBadhvqPi4BXUBnP9OUSuUVhW6MtN4nqpNaByHUY0qM3B1WRiABSEpEsgx0lwD5l8UQPK1F8o7E-TPcSTG2fUjQl0Bx1JHsVaAyWzaVGoS0zn4hW0FxNvQLR8-8MWBw_tsgeTGheqZJ0B27JJobritdBxh2Xq56cBVbUmylBN6gOfY1q6yECPhGAMaDWBMHgJ2MjaIZL6idRG_i7oKy86Vf1bXZtyx91vlV4UBNXdO8f7u1dcY67v7rBl6C-oygxN1gDnMkiwM-c_iNeYyvxYGBX2pxVynlgYQOAh7vRHHrUlPmaQn6cg7s1xY5EBLPo_To-Z402Y8zD5YDK9IEQrlqYE-FQCwuOtekSCUMwDAR48C8bKYkjofm5zR8LW0HjrJ73Knv4_QC7fHLNlNm12prNHZgsnOpd1dPjhZiJFAHvAf-2BiSY0b7mUdqRwYBB7b48wPUQDzcEQRPT-7iI-LRh0qEfYrKtsOLAYUd37k35rxewvWbbm4-iM9_tElVf02I9frhTDow9eiHdqgfdS0wOLCrL-T7ho_M5xHjjwT9DCXwZ9UDIXDeRrUqKrmarVtCnlo4u-NWGtpI5oNYT-XRxG4RJbOt7fXp08t7wPdo1SaupkGwVRALgun_UpveIV61egEtLUIoMW1PtVROne-lLnRPHcnQ_y1]--></g></svg>