<svg xmlns="http://www.w3.org/2000/svg" xmlns:xlink="http://www.w3.org/1999/xlink" width="95" zoomAndPan="magnify" viewBox="0 0 71.25 33.749999" height="45" preserveAspectRatio="xMidYMid meet" version="1.0"><defs><clipPath id="e0bd1a5b14"><path d="M 1.78125 11 L 32.210938 11 L 32.210938 23 L 1.78125 23 Z M 1.78125 11 " clip-rule="nonzero"/></clipPath><clipPath id="dd0406c4ec"><path d="M 2 22 L 32 22 L 32 32.152344 L 2 32.152344 Z M 2 22 " clip-rule="nonzero"/></clipPath><clipPath id="8a5723a42f"><path d="M 2 1.722656 L 32 1.722656 L 32 12 L 2 12 Z M 2 1.722656 " clip-rule="nonzero"/></clipPath></defs><path fill="#ffffff" d="M 40.496094 30.183594 L 42.371094 23.339844 C 41.214844 21.335938 40.605469 19.0625 40.605469 16.738281 C 40.609375 9.457031 46.535156 3.53125 53.816406 3.53125 C 57.351562 3.53125 60.667969 4.90625 63.164062 7.402344 C 65.65625 9.902344 67.03125 13.21875 67.027344 16.746094 C 67.027344 24.027344 61.097656 29.953125 53.816406 29.953125 L 53.8125 29.953125 C 51.601562 29.953125 49.429688 29.398438 47.5 28.34375 Z M 40.496094 30.183594 " fill-opacity="1" fill-rule="nonzero"/><path fill="#ffffff" d="M 40.496094 30.53125 C 40.40625 30.53125 40.316406 30.492188 40.25 30.425781 C 40.164062 30.339844 40.128906 30.210938 40.160156 30.089844 L 41.996094 23.386719 C 40.859375 21.363281 40.257812 19.066406 40.261719 16.738281 C 40.261719 9.261719 46.34375 3.183594 53.816406 3.183594 C 57.445312 3.183594 60.847656 4.597656 63.410156 7.160156 C 65.96875 9.722656 67.378906 13.125 67.375 16.746094 C 67.375 24.222656 61.292969 30.300781 53.816406 30.300781 C 51.597656 30.300781 49.402344 29.753906 47.457031 28.71875 L 40.585938 30.519531 C 40.554688 30.527344 40.527344 30.53125 40.496094 30.53125 Z M 40.496094 30.53125 " fill-opacity="1" fill-rule="nonzero"/><path fill="#cfd8dc" d="M 53.816406 3.53125 C 57.351562 3.53125 60.667969 4.90625 63.164062 7.402344 C 65.65625 9.902344 67.03125 13.21875 67.027344 16.746094 C 67.027344 24.027344 61.097656 29.953125 53.816406 29.953125 L 53.8125 29.953125 C 51.601562 29.953125 49.429688 29.398438 47.5 28.34375 L 40.496094 30.183594 L 42.371094 23.339844 C 41.214844 21.335938 40.605469 19.0625 40.605469 16.738281 C 40.609375 9.457031 46.535156 3.53125 53.816406 3.53125 M 53.816406 2.835938 C 46.152344 2.835938 39.914062 9.070312 39.910156 16.738281 C 39.910156 19.078125 40.503906 21.386719 41.625 23.433594 L 39.824219 30 C 39.757812 30.238281 39.828125 30.496094 40 30.671875 C 40.132812 30.804688 40.3125 30.878906 40.496094 30.878906 C 40.554688 30.878906 40.613281 30.871094 40.671875 30.855469 L 47.414062 29.089844 C 49.382812 30.109375 51.585938 30.648438 53.8125 30.648438 C 61.484375 30.648438 67.722656 24.414062 67.726562 16.746094 C 67.726562 13.03125 66.28125 9.539062 63.65625 6.914062 C 61.03125 4.285156 57.535156 2.835938 53.816406 2.835938 Z M 53.816406 2.835938 " fill-opacity="1" fill-rule="nonzero"/><path fill="#40c351" d="M 61.585938 8.980469 C 59.511719 6.90625 56.753906 5.761719 53.820312 5.761719 C 47.765625 5.761719 42.839844 10.683594 42.835938 16.738281 C 42.835938 18.8125 43.417969 20.832031 44.515625 22.578125 L 44.777344 22.996094 L 43.667969 27.046875 L 47.824219 25.957031 L 48.226562 26.191406 C 49.910156 27.195312 51.84375 27.722656 53.8125 27.722656 L 53.816406 27.722656 C 59.871094 27.722656 64.796875 22.800781 64.796875 16.746094 C 64.796875 13.8125 63.660156 11.054688 61.585938 8.980469 Z M 61.585938 8.980469 " fill-opacity="1" fill-rule="nonzero"/><path fill="#ffffff" d="M 50.515625 11.214844 C 50.269531 10.667969 50.007812 10.65625 49.773438 10.644531 C 49.582031 10.636719 49.359375 10.636719 49.140625 10.636719 C 48.921875 10.636719 48.5625 10.722656 48.261719 11.050781 C 47.957031 11.382812 47.105469 12.179688 47.105469 13.804688 C 47.105469 15.429688 48.289062 16.996094 48.453125 17.21875 C 48.617188 17.4375 50.734375 20.875 54.089844 22.199219 C 56.878906 23.300781 57.445312 23.082031 58.050781 23.027344 C 58.65625 22.972656 60.003906 22.226562 60.28125 21.457031 C 60.554688 20.6875 60.554688 20.027344 60.472656 19.886719 C 60.390625 19.75 60.171875 19.667969 59.839844 19.503906 C 59.511719 19.335938 57.886719 18.539062 57.585938 18.429688 C 57.28125 18.320312 57.0625 18.265625 56.839844 18.59375 C 56.621094 18.925781 55.988281 19.667969 55.796875 19.886719 C 55.605469 20.109375 55.410156 20.136719 55.082031 19.972656 C 54.75 19.804688 53.6875 19.457031 52.425781 18.332031 C 51.445312 17.457031 50.785156 16.378906 50.589844 16.046875 C 50.398438 15.71875 50.570312 15.539062 50.734375 15.375 C 50.882812 15.226562 51.066406 14.988281 51.230469 14.796875 C 51.394531 14.601562 51.449219 14.464844 51.558594 14.246094 C 51.671875 14.023438 51.617188 13.832031 51.53125 13.667969 C 51.453125 13.5 50.808594 11.867188 50.515625 11.214844 Z M 50.515625 11.214844 " fill-opacity="1" fill-rule="evenodd"/><g clip-path="url(#e0bd1a5b14)"><path fill="#f5f5f5" d="M 32.210938 16.9375 C 32.210938 15.058594 31.855469 13.273438 31.234375 11.613281 L 2.757812 11.613281 C 2.136719 13.273438 1.78125 15.058594 1.78125 16.9375 C 1.78125 18.8125 2.136719 20.601562 2.757812 22.261719 L 31.234375 22.261719 C 31.855469 20.601562 32.210938 18.8125 32.210938 16.9375 Z M 32.210938 16.9375 " fill-opacity="1" fill-rule="nonzero"/></g><path fill="#000088" d="M 16.996094 13.132812 C 14.894531 13.132812 13.191406 14.835938 13.191406 16.9375 C 13.191406 19.039062 14.894531 20.742188 16.996094 20.742188 C 19.097656 20.742188 20.800781 19.039062 20.800781 16.9375 C 20.800781 14.835938 19.097656 13.132812 16.996094 13.132812 Z M 16.996094 20.265625 C 15.15625 20.265625 13.667969 18.777344 13.667969 16.9375 C 13.667969 15.097656 15.15625 13.609375 16.996094 13.609375 C 18.835938 13.609375 20.324219 15.097656 20.324219 16.9375 C 20.324219 18.777344 18.835938 20.265625 16.996094 20.265625 Z M 16.996094 20.265625 " fill-opacity="1" fill-rule="nonzero"/><path fill="#000088" d="M 17.660156 16.9375 C 17.660156 17.304688 17.363281 17.601562 16.996094 17.601562 C 16.628906 17.601562 16.332031 17.304688 16.332031 16.9375 C 16.332031 16.570312 16.628906 16.273438 16.996094 16.273438 C 17.363281 16.273438 17.660156 16.566406 17.660156 16.9375 Z M 17.660156 16.9375 " fill-opacity="1" fill-rule="nonzero"/><path fill="#000088" d="M 20.320312 17.207031 C 20.230469 17.195312 20.144531 17.257812 20.136719 17.347656 C 20.125 17.4375 20.183594 17.523438 20.277344 17.535156 C 20.367188 17.550781 20.449219 17.484375 20.460938 17.394531 C 20.476562 17.300781 20.414062 17.21875 20.320312 17.207031 Z M 20.320312 17.207031 " fill-opacity="1" fill-rule="nonzero"/><path fill="#000088" d="M 16.996094 20.265625 L 17.109375 18.265625 L 16.996094 17.316406 L 16.882812 18.265625 Z M 16.996094 20.265625 " fill-opacity="1" fill-rule="nonzero"/><path fill="#000088" d="M 20.140625 18.058594 C 20.050781 18.023438 19.957031 18.0625 19.917969 18.148438 C 19.882812 18.234375 19.925781 18.332031 20.007812 18.367188 C 20.09375 18.402344 20.191406 18.363281 20.226562 18.273438 C 20.265625 18.191406 20.222656 18.089844 20.140625 18.058594 Z M 20.140625 18.058594 " fill-opacity="1" fill-rule="nonzero"/><path fill="#000088" d="M 16.132812 20.152344 L 16.761719 18.25 L 16.898438 17.304688 L 16.539062 18.195312 Z M 16.132812 20.152344 " fill-opacity="1" fill-rule="nonzero"/><path fill="#000088" d="M 19.738281 18.832031 C 19.667969 18.777344 19.5625 18.789062 19.507812 18.863281 C 19.449219 18.9375 19.464844 19.039062 19.539062 19.097656 C 19.609375 19.152344 19.714844 19.136719 19.769531 19.066406 C 19.828125 18.992188 19.8125 18.886719 19.738281 18.832031 Z M 19.738281 18.832031 " fill-opacity="1" fill-rule="nonzero"/><path fill="#000088" d="M 15.332031 19.820312 L 16.429688 18.144531 L 16.808594 17.265625 L 16.234375 18.035156 Z M 15.332031 19.820312 " fill-opacity="1" fill-rule="nonzero"/><path fill="#000088" d="M 19.15625 19.476562 C 19.101562 19.402344 18.996094 19.390625 18.921875 19.445312 C 18.851562 19.503906 18.835938 19.609375 18.890625 19.679688 C 18.949219 19.753906 19.050781 19.769531 19.125 19.710938 C 19.199219 19.652344 19.210938 19.550781 19.15625 19.476562 Z M 19.15625 19.476562 " fill-opacity="1" fill-rule="nonzero"/><path fill="#000088" d="M 14.640625 19.292969 L 16.132812 17.960938 L 16.726562 17.207031 L 15.972656 17.800781 Z M 14.640625 19.292969 " fill-opacity="1" fill-rule="nonzero"/><path fill="#000088" d="M 18.425781 19.945312 C 18.390625 19.863281 18.292969 19.824219 18.207031 19.859375 C 18.125 19.894531 18.082031 19.992188 18.117188 20.074219 C 18.15625 20.160156 18.25 20.203125 18.332031 20.167969 C 18.421875 20.128906 18.460938 20.035156 18.425781 19.945312 Z M 18.425781 19.945312 " fill-opacity="1" fill-rule="nonzero"/><path fill="#000088" d="M 14.113281 18.601562 L 15.898438 17.699219 L 16.664062 17.128906 L 15.789062 17.503906 Z M 14.113281 18.601562 " fill-opacity="1" fill-rule="nonzero"/><path fill="#000088" d="M 17.597656 20.214844 C 17.585938 20.125 17.5 20.058594 17.410156 20.070312 C 17.320312 20.085938 17.253906 20.171875 17.265625 20.261719 C 17.28125 20.351562 17.363281 20.414062 17.457031 20.402344 C 17.546875 20.390625 17.609375 20.308594 17.597656 20.214844 Z M 17.597656 20.214844 " fill-opacity="1" fill-rule="nonzero"/><path fill="#000088" d="M 13.78125 17.800781 L 15.738281 17.394531 L 16.628906 17.035156 L 15.679688 17.171875 Z M 13.78125 17.800781 " fill-opacity="1" fill-rule="nonzero"/><path fill="#000088" d="M 16.582031 20.074219 C 16.492188 20.058594 16.40625 20.125 16.394531 20.214844 C 16.382812 20.308594 16.449219 20.390625 16.539062 20.402344 C 16.632812 20.417969 16.714844 20.351562 16.726562 20.261719 C 16.738281 20.171875 16.671875 20.085938 16.582031 20.074219 Z M 16.582031 20.074219 " fill-opacity="1" fill-rule="nonzero"/><path fill="#000088" d="M 13.667969 16.9375 L 15.664062 17.050781 L 16.617188 16.9375 L 15.664062 16.824219 Z M 13.667969 16.9375 " fill-opacity="1" fill-rule="nonzero"/><path fill="#000088" d="M 15.789062 19.859375 C 15.703125 19.824219 15.605469 19.867188 15.570312 19.949219 C 15.53125 20.035156 15.574219 20.132812 15.660156 20.167969 C 15.746094 20.203125 15.839844 20.164062 15.878906 20.078125 C 15.914062 19.992188 15.871094 19.898438 15.789062 19.859375 Z M 15.789062 19.859375 " fill-opacity="1" fill-rule="nonzero"/><path fill="#000088" d="M 13.78125 16.074219 L 15.679688 16.699219 L 16.628906 16.839844 L 15.738281 16.480469 Z M 13.78125 16.074219 " fill-opacity="1" fill-rule="nonzero"/><path fill="#000088" d="M 15.074219 19.445312 C 15 19.390625 14.894531 19.402344 14.839844 19.476562 C 14.785156 19.550781 14.796875 19.652344 14.871094 19.710938 C 14.945312 19.765625 15.046875 19.753906 15.105469 19.679688 C 15.160156 19.605469 15.144531 19.503906 15.074219 19.445312 Z M 15.074219 19.445312 " fill-opacity="1" fill-rule="nonzero"/><path fill="#000088" d="M 14.113281 15.273438 L 15.789062 16.371094 L 16.664062 16.746094 L 15.898438 16.171875 Z M 14.113281 15.273438 " fill-opacity="1" fill-rule="nonzero"/><path fill="#000088" d="M 14.488281 18.863281 C 14.429688 18.789062 14.328125 18.777344 14.257812 18.832031 C 14.183594 18.886719 14.167969 18.992188 14.226562 19.066406 C 14.277344 19.136719 14.386719 19.152344 14.457031 19.09375 C 14.53125 19.039062 14.546875 18.933594 14.488281 18.863281 Z M 14.488281 18.863281 " fill-opacity="1" fill-rule="nonzero"/><path fill="#000088" d="M 14.640625 14.582031 L 15.972656 16.074219 L 16.726562 16.667969 L 16.132812 15.914062 Z M 14.640625 14.582031 " fill-opacity="1" fill-rule="nonzero"/><path fill="#000088" d="M 14.074219 18.144531 C 14.039062 18.0625 13.941406 18.019531 13.855469 18.058594 C 13.773438 18.089844 13.730469 18.191406 13.765625 18.273438 C 13.804688 18.359375 13.898438 18.398438 13.988281 18.367188 C 14.070312 18.328125 14.113281 18.230469 14.074219 18.144531 Z M 14.074219 18.144531 " fill-opacity="1" fill-rule="nonzero"/><path fill="#000088" d="M 15.332031 14.054688 L 16.230469 15.839844 L 16.804688 16.605469 L 16.429688 15.730469 Z M 15.332031 14.054688 " fill-opacity="1" fill-rule="nonzero"/><path fill="#000088" d="M 13.859375 17.347656 C 13.847656 17.253906 13.761719 17.195312 13.675781 17.207031 C 13.582031 17.21875 13.519531 17.300781 13.53125 17.390625 C 13.542969 17.484375 13.625 17.546875 13.714844 17.535156 C 13.808594 17.523438 13.871094 17.4375 13.859375 17.347656 Z M 13.859375 17.347656 " fill-opacity="1" fill-rule="nonzero"/><path fill="#000088" d="M 16.132812 13.722656 L 16.539062 15.679688 L 16.898438 16.566406 L 16.761719 15.621094 Z M 16.132812 13.722656 " fill-opacity="1" fill-rule="nonzero"/><path fill="#000088" d="M 13.714844 16.335938 C 13.625 16.324219 13.542969 16.390625 13.53125 16.480469 C 13.519531 16.574219 13.582031 16.65625 13.675781 16.667969 C 13.765625 16.679688 13.851562 16.613281 13.859375 16.523438 C 13.871094 16.433594 13.808594 16.347656 13.714844 16.335938 Z M 13.714844 16.335938 " fill-opacity="1" fill-rule="nonzero"/><path fill="#000088" d="M 16.996094 13.609375 L 16.882812 15.605469 L 16.996094 16.554688 L 17.109375 15.605469 Z M 16.996094 13.609375 " fill-opacity="1" fill-rule="nonzero"/><path fill="#000088" d="M 13.984375 15.507812 C 13.898438 15.472656 13.800781 15.515625 13.765625 15.597656 C 13.730469 15.683594 13.769531 15.78125 13.855469 15.816406 C 13.941406 15.851562 14.039062 15.8125 14.074219 15.726562 C 14.109375 15.640625 14.066406 15.542969 13.984375 15.507812 Z M 13.984375 15.507812 " fill-opacity="1" fill-rule="nonzero"/><path fill="#000088" d="M 17.859375 13.722656 L 17.230469 15.621094 L 17.09375 16.570312 L 17.453125 15.679688 Z M 17.859375 13.722656 " fill-opacity="1" fill-rule="nonzero"/><path fill="#000088" d="M 14.457031 14.777344 C 14.382812 14.722656 14.277344 14.734375 14.222656 14.808594 C 14.167969 14.882812 14.179688 14.984375 14.253906 15.042969 C 14.328125 15.097656 14.429688 15.082031 14.488281 15.011719 C 14.542969 14.9375 14.53125 14.832031 14.457031 14.777344 Z M 14.457031 14.777344 " fill-opacity="1" fill-rule="nonzero"/><path fill="#000088" d="M 18.660156 14.054688 L 17.5625 15.730469 L 17.183594 16.605469 L 17.757812 15.839844 Z M 18.660156 14.054688 " fill-opacity="1" fill-rule="nonzero"/><path fill="#000088" d="M 15.101562 14.195312 C 15.046875 14.121094 14.945312 14.105469 14.871094 14.164062 C 14.796875 14.21875 14.785156 14.324219 14.835938 14.398438 C 14.894531 14.472656 15 14.484375 15.074219 14.429688 C 15.144531 14.371094 15.160156 14.265625 15.101562 14.195312 Z M 15.101562 14.195312 " fill-opacity="1" fill-rule="nonzero"/><path fill="#000088" d="M 19.351562 14.582031 L 17.859375 15.914062 L 17.265625 16.667969 L 18.019531 16.074219 Z M 19.351562 14.582031 " fill-opacity="1" fill-rule="nonzero"/><path fill="#000088" d="M 15.875 13.796875 C 15.839844 13.714844 15.742188 13.671875 15.65625 13.710938 C 15.574219 13.746094 15.53125 13.839844 15.566406 13.925781 C 15.601562 14.011719 15.699219 14.054688 15.785156 14.015625 C 15.871094 13.980469 15.910156 13.886719 15.875 13.796875 Z M 15.875 13.796875 " fill-opacity="1" fill-rule="nonzero"/><path fill="#000088" d="M 19.878906 15.273438 L 18.09375 16.171875 L 17.328125 16.746094 L 18.203125 16.371094 Z M 19.878906 15.273438 " fill-opacity="1" fill-rule="nonzero"/><path fill="#000088" d="M 16.726562 13.613281 C 16.714844 13.519531 16.632812 13.460938 16.539062 13.472656 C 16.449219 13.480469 16.382812 13.566406 16.394531 13.65625 C 16.40625 13.75 16.488281 13.8125 16.582031 13.796875 C 16.671875 13.785156 16.738281 13.703125 16.726562 13.613281 Z M 16.726562 13.613281 " fill-opacity="1" fill-rule="nonzero"/><path fill="#000088" d="M 20.210938 16.074219 L 18.253906 16.480469 L 17.363281 16.839844 L 18.3125 16.699219 Z M 20.210938 16.074219 " fill-opacity="1" fill-rule="nonzero"/><path fill="#000088" d="M 17.453125 13.472656 C 17.359375 13.460938 17.277344 13.523438 17.265625 13.617188 C 17.253906 13.707031 17.320312 13.792969 17.410156 13.800781 C 17.5 13.8125 17.585938 13.75 17.597656 13.65625 C 17.609375 13.566406 17.542969 13.484375 17.453125 13.472656 Z M 17.453125 13.472656 " fill-opacity="1" fill-rule="nonzero"/><path fill="#000088" d="M 20.324219 16.9375 L 18.328125 16.824219 L 17.375 16.9375 L 18.328125 17.050781 Z M 20.324219 16.9375 " fill-opacity="1" fill-rule="nonzero"/><path fill="#000088" d="M 18.332031 13.707031 C 18.25 13.667969 18.152344 13.710938 18.117188 13.792969 C 18.082031 13.882812 18.121094 13.976562 18.203125 14.011719 C 18.292969 14.050781 18.386719 14.007812 18.425781 13.921875 C 18.460938 13.835938 18.417969 13.742188 18.332031 13.707031 Z M 18.332031 13.707031 " fill-opacity="1" fill-rule="nonzero"/><path fill="#000088" d="M 20.210938 17.800781 L 18.3125 17.171875 L 17.363281 17.035156 L 18.253906 17.394531 Z M 20.210938 17.800781 " fill-opacity="1" fill-rule="nonzero"/><path fill="#000088" d="M 19.125 14.164062 C 19.050781 14.109375 18.949219 14.121094 18.890625 14.195312 C 18.835938 14.269531 18.851562 14.371094 18.921875 14.429688 C 18.996094 14.484375 19.101562 14.472656 19.15625 14.398438 C 19.210938 14.320312 19.199219 14.21875 19.125 14.164062 Z M 19.125 14.164062 " fill-opacity="1" fill-rule="nonzero"/><path fill="#000088" d="M 19.878906 18.601562 L 18.203125 17.503906 L 17.328125 17.125 L 18.09375 17.699219 Z M 19.878906 18.601562 " fill-opacity="1" fill-rule="nonzero"/><path fill="#000088" d="M 19.769531 14.808594 C 19.710938 14.738281 19.605469 14.722656 19.535156 14.777344 C 19.460938 14.835938 19.445312 14.9375 19.503906 15.011719 C 19.5625 15.082031 19.664062 15.097656 19.738281 15.042969 C 19.8125 14.988281 19.824219 14.882812 19.769531 14.808594 Z M 19.769531 14.808594 " fill-opacity="1" fill-rule="nonzero"/><path fill="#000088" d="M 19.351562 19.292969 L 18.019531 17.800781 L 17.265625 17.207031 L 17.859375 17.960938 Z M 19.351562 19.292969 " fill-opacity="1" fill-rule="nonzero"/><path fill="#000088" d="M 20.226562 15.597656 C 20.1875 15.515625 20.09375 15.472656 20.007812 15.507812 C 19.921875 15.546875 19.882812 15.640625 19.917969 15.726562 C 19.953125 15.8125 20.050781 15.851562 20.136719 15.816406 C 20.21875 15.78125 20.261719 15.683594 20.226562 15.597656 Z M 20.226562 15.597656 " fill-opacity="1" fill-rule="nonzero"/><path fill="#000088" d="M 18.660156 19.820312 L 17.761719 18.035156 L 17.1875 17.265625 L 17.5625 18.144531 Z M 18.660156 19.820312 " fill-opacity="1" fill-rule="nonzero"/><path fill="#000088" d="M 20.460938 16.480469 C 20.449219 16.390625 20.367188 16.324219 20.273438 16.335938 C 20.183594 16.351562 20.117188 16.433594 20.132812 16.523438 C 20.144531 16.613281 20.230469 16.679688 20.320312 16.667969 C 20.414062 16.65625 20.476562 16.570312 20.460938 16.480469 Z M 20.460938 16.480469 " fill-opacity="1" fill-rule="nonzero"/><path fill="#000088" d="M 17.859375 20.152344 L 17.453125 18.195312 L 17.09375 17.304688 L 17.230469 18.253906 Z M 17.859375 20.152344 " fill-opacity="1" fill-rule="nonzero"/><g clip-path="url(#dd0406c4ec)"><path fill="#388e3c" d="M 31.234375 22.261719 L 2.757812 22.261719 C 4.917969 28.035156 10.46875 32.152344 16.996094 32.152344 C 23.523438 32.152344 29.074219 28.035156 31.234375 22.261719 Z M 31.234375 22.261719 " fill-opacity="1" fill-rule="nonzero"/></g><g clip-path="url(#8a5723a42f)"><path fill="#ff9800" d="M 16.996094 1.722656 C 10.46875 1.722656 4.917969 5.839844 2.757812 11.613281 L 31.234375 11.613281 C 29.074219 5.839844 23.523438 1.722656 16.996094 1.722656 Z M 16.996094 1.722656 " fill-opacity="1" fill-rule="nonzero"/></g></svg>