<svg xmlns="http://www.w3.org/2000/svg" xmlns:xlink="http://www.w3.org/1999/xlink" width="95" zoomAndPan="magnify" viewBox="0 0 71.25 33.749999" height="45" preserveAspectRatio="xMidYMid meet" version="1.0"><defs><clipPath id="b09a8919d8"><path d="M 3.339844 3.390625 L 32.285156 3.390625 L 32.285156 32.335938 L 3.339844 32.335938 Z M 3.339844 3.390625 " clip-rule="nonzero"/></clipPath><clipPath id="36348dd3ed"><path d="M 3.339844 17.863281 C 3.339844 15.945312 3.707031 14.097656 4.441406 12.324219 C 5.175781 10.550781 6.222656 8.988281 7.578125 7.628906 C 8.933594 6.273438 10.5 5.226562 12.273438 4.492188 C 14.046875 3.757812 15.890625 3.390625 17.808594 3.390625 C 19.730469 3.390625 21.574219 3.757812 23.347656 4.492188 C 25.121094 5.226562 26.6875 6.273438 28.042969 7.628906 C 29.398438 8.988281 30.445312 10.550781 31.179688 12.324219 C 31.914062 14.097656 32.28125 15.945312 32.28125 17.863281 C 32.28125 19.78125 31.914062 21.628906 31.179688 23.398438 C 30.445312 25.171875 29.398438 26.738281 28.042969 28.09375 C 26.6875 29.453125 25.121094 30.496094 23.347656 31.230469 C 21.574219 31.964844 19.730469 32.332031 17.808594 32.332031 C 15.890625 32.332031 14.046875 31.964844 12.273438 31.230469 C 10.5 30.496094 8.933594 29.453125 7.578125 28.09375 C 6.222656 26.738281 5.175781 25.171875 4.441406 23.398438 C 3.707031 21.628906 3.339844 19.78125 3.339844 17.863281 Z M 3.339844 17.863281 " clip-rule="nonzero"/></clipPath><clipPath id="abe16aa22f"><path d="M 7 3.390625 L 28 3.390625 L 28 32.335938 L 7 32.335938 Z M 7 3.390625 " clip-rule="nonzero"/></clipPath><clipPath id="be7bf245aa"><path d="M 3.339844 17.863281 C 3.339844 15.945312 3.707031 14.097656 4.441406 12.324219 C 5.175781 10.550781 6.222656 8.988281 7.578125 7.628906 C 8.933594 6.273438 10.5 5.226562 12.273438 4.492188 C 14.046875 3.757812 15.890625 3.390625 17.808594 3.390625 C 19.730469 3.390625 21.574219 3.757812 23.347656 4.492188 C 25.121094 5.226562 26.6875 6.273438 28.042969 7.628906 C 29.398438 8.988281 30.445312 10.550781 31.179688 12.324219 C 31.914062 14.097656 32.28125 15.945312 32.28125 17.863281 C 32.28125 19.78125 31.914062 21.628906 31.179688 23.398438 C 30.445312 25.171875 29.398438 26.738281 28.042969 28.09375 C 26.6875 29.453125 25.121094 30.496094 23.347656 31.230469 C 21.574219 31.964844 19.730469 32.332031 17.808594 32.332031 C 15.890625 32.332031 14.046875 31.964844 12.273438 31.230469 C 10.5 30.496094 8.933594 29.453125 7.578125 28.09375 C 6.222656 26.738281 5.175781 25.171875 4.441406 23.398438 C 3.707031 21.628906 3.339844 19.78125 3.339844 17.863281 Z M 3.339844 17.863281 " clip-rule="nonzero"/></clipPath></defs><path fill="#ffffff" d="M 40.496094 30.183594 L 42.371094 23.339844 C 41.214844 21.335938 40.605469 19.0625 40.605469 16.738281 C 40.609375 9.457031 46.535156 3.53125 53.816406 3.53125 C 57.351562 3.53125 60.667969 4.90625 63.164062 7.402344 C 65.65625 9.902344 67.03125 13.21875 67.027344 16.746094 C 67.027344 24.027344 61.097656 29.953125 53.816406 29.953125 L 53.8125 29.953125 C 51.601562 29.953125 49.429688 29.398438 47.5 28.34375 Z M 40.496094 30.183594 " fill-opacity="1" fill-rule="nonzero"/><path fill="#ffffff" d="M 40.496094 30.53125 C 40.40625 30.53125 40.316406 30.492188 40.25 30.425781 C 40.164062 30.339844 40.128906 30.210938 40.160156 30.089844 L 41.996094 23.386719 C 40.859375 21.363281 40.257812 19.066406 40.261719 16.738281 C 40.261719 9.261719 46.34375 3.183594 53.816406 3.183594 C 57.445312 3.183594 60.847656 4.597656 63.410156 7.160156 C 65.96875 9.722656 67.378906 13.125 67.375 16.746094 C 67.375 24.222656 61.292969 30.300781 53.816406 30.300781 C 51.597656 30.300781 49.402344 29.753906 47.457031 28.71875 L 40.585938 30.519531 C 40.554688 30.527344 40.527344 30.53125 40.496094 30.53125 Z M 40.496094 30.53125 " fill-opacity="1" fill-rule="nonzero"/><path fill="#cfd8dc" d="M 53.816406 3.53125 C 57.351562 3.53125 60.667969 4.90625 63.164062 7.402344 C 65.65625 9.902344 67.03125 13.21875 67.027344 16.746094 C 67.027344 24.027344 61.097656 29.953125 53.816406 29.953125 L 53.8125 29.953125 C 51.601562 29.953125 49.429688 29.398438 47.5 28.34375 L 40.496094 30.183594 L 42.371094 23.339844 C 41.214844 21.335938 40.605469 19.0625 40.605469 16.738281 C 40.609375 9.457031 46.535156 3.53125 53.816406 3.53125 M 53.816406 2.835938 C 46.152344 2.835938 39.914062 9.070312 39.910156 16.738281 C 39.910156 19.078125 40.503906 21.386719 41.625 23.433594 L 39.824219 30 C 39.757812 30.238281 39.828125 30.496094 40 30.671875 C 40.132812 30.804688 40.3125 30.878906 40.496094 30.878906 C 40.554688 30.878906 40.613281 30.871094 40.671875 30.855469 L 47.414062 29.089844 C 49.382812 30.109375 51.585938 30.648438 53.8125 30.648438 C 61.484375 30.648438 67.722656 24.414062 67.726562 16.746094 C 67.726562 13.03125 66.28125 9.539062 63.65625 6.914062 C 61.03125 4.285156 57.535156 2.835938 53.816406 2.835938 Z M 53.816406 2.835938 " fill-opacity="1" fill-rule="nonzero"/><path fill="#40c351" d="M 61.585938 8.980469 C 59.511719 6.90625 56.753906 5.761719 53.820312 5.761719 C 47.765625 5.761719 42.839844 10.683594 42.835938 16.738281 C 42.835938 18.8125 43.417969 20.832031 44.515625 22.578125 L 44.777344 22.996094 L 43.667969 27.046875 L 47.824219 25.957031 L 48.226562 26.191406 C 49.910156 27.195312 51.84375 27.722656 53.8125 27.722656 L 53.816406 27.722656 C 59.871094 27.722656 64.796875 22.800781 64.796875 16.746094 C 64.796875 13.8125 63.660156 11.054688 61.585938 8.980469 Z M 61.585938 8.980469 " fill-opacity="1" fill-rule="nonzero"/><path fill="#ffffff" d="M 50.515625 11.214844 C 50.269531 10.667969 50.007812 10.65625 49.773438 10.644531 C 49.582031 10.636719 49.359375 10.636719 49.140625 10.636719 C 48.921875 10.636719 48.5625 10.722656 48.261719 11.050781 C 47.957031 11.382812 47.105469 12.179688 47.105469 13.804688 C 47.105469 15.429688 48.289062 16.996094 48.453125 17.21875 C 48.617188 17.4375 50.734375 20.875 54.089844 22.199219 C 56.878906 23.300781 57.445312 23.082031 58.050781 23.027344 C 58.65625 22.972656 60.003906 22.226562 60.28125 21.457031 C 60.554688 20.6875 60.554688 20.027344 60.472656 19.886719 C 60.390625 19.75 60.171875 19.667969 59.839844 19.503906 C 59.511719 19.335938 57.886719 18.539062 57.585938 18.429688 C 57.28125 18.320312 57.0625 18.265625 56.839844 18.59375 C 56.621094 18.925781 55.988281 19.667969 55.796875 19.886719 C 55.605469 20.109375 55.410156 20.136719 55.082031 19.972656 C 54.75 19.804688 53.6875 19.457031 52.425781 18.332031 C 51.445312 17.457031 50.785156 16.378906 50.589844 16.046875 C 50.398438 15.71875 50.570312 15.539062 50.734375 15.375 C 50.882812 15.226562 51.066406 14.988281 51.230469 14.796875 C 51.394531 14.601562 51.449219 14.464844 51.558594 14.246094 C 51.671875 14.023438 51.617188 13.832031 51.53125 13.667969 C 51.453125 13.5 50.808594 11.867188 50.515625 11.214844 Z M 50.515625 11.214844 " fill-opacity="1" fill-rule="evenodd"/><g clip-path="url(#b09a8919d8)"><g clip-path="url(#36348dd3ed)"><path fill="#ff0000" d="M -1.992188 2.746094 L 37.609375 2.746094 L 37.609375 32.976562 L -1.992188 32.976562 Z M -1.992188 2.746094 " fill-opacity="1" fill-rule="nonzero"/></g></g><g clip-path="url(#abe16aa22f)"><g clip-path="url(#be7bf245aa)"><path fill="#ffffff" d="M 7.910156 2.746094 L 27.710938 2.746094 L 27.710938 32.976562 L 7.910156 32.976562 Z M 18.183594 26.238281 L 17.996094 22.675781 C 17.984375 22.460938 18.152344 22.277344 18.371094 22.265625 C 18.398438 22.265625 18.425781 22.265625 18.453125 22.273438 L 21.996094 22.894531 L 21.519531 21.574219 C 21.480469 21.46875 21.511719 21.347656 21.601562 21.273438 L 25.484375 18.128906 L 24.609375 17.722656 C 24.488281 17.664062 24.425781 17.523438 24.46875 17.394531 L 25.234375 15.035156 L 23 15.511719 C 22.875 15.539062 22.75 15.472656 22.699219 15.355469 L 22.265625 14.335938 L 20.519531 16.207031 C 20.417969 16.316406 20.25 16.320312 20.140625 16.21875 C 20.074219 16.15625 20.046875 16.0625 20.0625 15.972656 L 20.90625 11.632812 L 19.554688 12.414062 C 19.425781 12.488281 19.261719 12.445312 19.1875 12.316406 C 19.183594 12.3125 19.183594 12.308594 19.179688 12.300781 L 17.808594 9.613281 L 16.441406 12.300781 C 16.375 12.433594 16.214844 12.488281 16.082031 12.421875 C 16.074219 12.417969 16.070312 12.417969 16.066406 12.414062 L 14.714844 11.632812 L 15.558594 15.972656 C 15.585938 16.117188 15.492188 16.257812 15.34375 16.285156 C 15.253906 16.304688 15.164062 16.273438 15.101562 16.207031 L 13.355469 14.335938 L 12.921875 15.355469 C 12.871094 15.472656 12.746094 15.539062 12.621094 15.511719 L 10.386719 15.035156 L 11.152344 17.394531 C 11.195312 17.523438 11.132812 17.664062 11.011719 17.722656 L 10.136719 18.128906 L 14.019531 21.273438 C 14.109375 21.347656 14.140625 21.46875 14.101562 21.574219 L 13.625 22.894531 L 17.167969 22.273438 C 17.378906 22.234375 17.582031 22.378906 17.621094 22.59375 C 17.625 22.621094 17.625 22.648438 17.625 22.675781 L 17.4375 26.238281 Z M 18.183594 26.238281 " fill-opacity="1" fill-rule="nonzero"/></g></g></svg>