<svg width="41" height="41" viewBox="0 0 41 41" fill="none" xmlns="http://www.w3.org/2000/svg">
<path d="M34.7917 0.083374H6.20833C4.58388 0.083374 3.02596 0.728685 1.8773 1.87735C0.728639 3.02601 0.0833282 4.58392 0.0833282 6.20837V26.625C0.0833282 28.2495 0.728639 29.8074 1.8773 30.9561C3.02596 32.1047 4.58388 32.75 6.20833 32.75H29.8712L37.4254 40.3246C37.6162 40.5138 37.8424 40.6636 38.0912 40.7652C38.3399 40.8668 38.6063 40.9183 38.875 40.9167C39.1428 40.9236 39.4085 40.8677 39.6508 40.7534C40.0237 40.6002 40.3428 40.3401 40.5681 40.0058C40.7934 39.6716 40.9146 39.2781 40.9167 38.875V6.20837C40.9167 4.58392 40.2713 3.02601 39.1227 1.87735C37.974 0.728685 36.4161 0.083374 34.7917 0.083374ZM36.8333 33.9546L32.1579 29.2588C31.9671 29.0696 31.7409 28.9199 31.4921 28.8183C31.2434 28.7167 30.977 28.6652 30.7083 28.6667H6.20833C5.66684 28.6667 5.14754 28.4516 4.76465 28.0687C4.38177 27.6858 4.16666 27.1665 4.16666 26.625V6.20837C4.16666 5.66689 4.38177 5.14758 4.76465 4.7647C5.14754 4.38181 5.66684 4.16671 6.20833 4.16671H34.7917C35.3331 4.16671 35.8525 4.38181 36.2353 4.7647C36.6182 5.14758 36.8333 5.66689 36.8333 6.20837V33.9546Z" fill="#5886BF"/>
</svg>
